<?xml version="1.0" encoding="utf-8"?>
<!-- Generator: Adobe Illustrator 25.2.1, SVG Export Plug-In . SVG Version: 6.00 Build 0)  -->
<svg version="1.1" id="AccessMgmt" fill="currentColor" xmlns="http://www.w3.org/2000/svg" xmlns:xlink="http://www.w3.org/1999/xlink" x="0px" y="0px"
	 viewBox="0 0 24 24" style="enable-background:new 0 0 24 24;" xml:space="preserve">
<g id="Group" transform="translate(0 0)">
	<path id="Combined_Shape" d="M17,21.9H7c-1.7,0-3-1.3-3-3v-8c0-1.7,1.3-3,3-3h0.2v-1c0-2.6,2.1-4.8,4.8-4.8s4.8,2.1,4.8,4.8v1H17
		c1.7,0,3,1.3,3,3v8C20,20.5,18.7,21.9,17,21.9z M7,9.4c-0.8,0-1.5,0.7-1.5,1.5v8c0,0.8,0.7,1.5,1.5,1.5h10c0.8,0,1.5-0.7,1.5-1.5
		v-8c0-0.8-0.7-1.5-1.5-1.5H7z M12,3.6c-1.5,0-2.9,1-3.2,2.5L8.8,6.6l0,0.3v1h6.5v-1C15.2,5.1,13.8,3.6,12,3.6z"/>
</g>
</svg>

