<?xml version="1.0" encoding="utf-8"?>
<!-- Generator: Adobe Illustrator 25.2.1, SVG Export Plug-In . SVG Version: 6.00 Build 0)  -->
<svg version="1.1" id="Account" fill="currentColor" xmlns="http://www.w3.org/2000/svg" xmlns:xlink="http://www.w3.org/1999/xlink" x="0px" y="0px"
	 viewBox="0 0 24 24" style="enable-background:new 0 0 24 24;" xml:space="preserve">
<g id="Group" transform="translate(0 -1)">
	<path id="Vector_631_Stroke_" d="M4.8,20.6v1c0,0.4-0.3,0.8-0.8,0.8S3.2,22,3.2,21.6v-1c0-3.2,2.6-5.8,5.8-5.8h6
		c3.2,0,5.8,2.6,5.8,5.8v1c0,0.4-0.3,0.8-0.8,0.8s-0.8-0.3-0.8-0.8v-1c0-2.3-1.9-4.2-4.2-4.2H9C6.7,16.4,4.8,18.3,4.8,20.6z"/>
	<path id="Combined_Shape" d="M12,13.6c-2.8,0-5-2.2-5-5s2.2-5,5-5s5,2.2,5,5C17,11.4,14.8,13.6,12,13.6z M12,5.1
		c-1.9,0-3.5,1.6-3.5,3.5s1.6,3.5,3.5,3.5s3.5-1.6,3.5-3.5S13.9,5.1,12,5.1z"/>
</g>
</svg>
