<?xml version="1.0" encoding="utf-8"?>
<!-- Generator: Adobe Illustrator 25.2.1, SVG Export Plug-In . SVG Version: 6.00 Build 0)  -->
<svg xmlns:xlink="http://www.w3.org/1999/xlink" version="1.1" id="ACMEExternal" fill="currentColor" xmlns="http://www.w3.org/2000/svg"
     x="0px" y="0px"
     viewBox="0 0 24 24" style="enable-background:new 0 0 24 24;" xml:space="preserve">
<g id="Group" transform="translate(0 0)">
	<path id="Combined_Shape" d="M12,22C6.5,22,2,17.5,2,12S6.5,2,12,2s10,4.5,10,10C22,17.5,17.5,22,12,22z M12,3.5
		c-4.7,0-8.5,3.8-8.5,8.5s3.8,8.5,8.5,8.5s8.5-3.8,8.5-8.5C20.5,7.3,16.7,3.5,12,3.5z"/>
</g>
  <path id="Tracé_116"
        d="M14.4,17.2L14,15.9h-4l-0.4,1.3H7.7l3.5-10.5h1.5l3.5,10.5H14.4z M10.4,14.4h3.1L12,9.2L10.4,14.4z"/>
</svg>
