<?xml version="1.0" encoding="utf-8"?>
<!-- Generator: Adobe Illustrator 25.2.1, SVG Export Plug-In . SVG Version: 6.00 Build 0)  -->
<svg version="1.1" id="Add" fill="currentColor" xmlns="http://www.w3.org/2000/svg" xmlns:xlink="http://www.w3.org/1999/xlink" x="0px" y="0px"
	 viewBox="0 0 24 24" style="enable-background:new 0 0 24 24;" xml:space="preserve">
<g id="Group" transform="translate(2 2)">
	<path id="Combined_Shape" d="M10,20C4.5,20,0,15.5,0,10S4.5,0,10,0s10,4.5,10,10C20,15.5,15.5,20,10,20z M10,1.5
		c-4.7,0-8.5,3.8-8.5,8.5s3.8,8.5,8.5,8.5s8.5-3.8,8.5-8.5C18.5,5.3,14.7,1.5,10,1.5z"/>
	<path id="Union" d="M10,5.2C9.6,5.2,9.2,5.6,9.2,6v3.2H6c-0.4,0-0.8,0.3-0.8,0.8c0,0.4,0.3,0.8,0.8,0.8h3.2V14
		c0,0.4,0.3,0.8,0.8,0.8s0.8-0.3,0.8-0.8v-3.2H14c0.4,0,0.8-0.3,0.8-0.8c0-0.4-0.3-0.8-0.8-0.8h-3.2V6C10.8,5.6,10.4,5.2,10,5.2z"/>
</g>
</svg>
