<?xml version="1.0" encoding="utf-8"?>
<!-- Generator: Adobe Illustrator 26.5.0, SVG Export Plug-In . SVG Version: 6.00 Build 0)  -->
<svg version="1.1" id="Approve" fill="currentColor" xmlns="http://www.w3.org/2000/svg" xmlns:xlink="http://www.w3.org/1999/xlink" x="0px" y="0px"
	 viewBox="0 0 24 24" style="enable-background:new 0 0 24 24;" xml:space="preserve">
<style type="text/css">
	.st0{fill:#25314C;}
</style>
<g id="info-circle" transform="translate(-2192 -3500)">
	<path id="info-circle-2" class="st0" d="M2204,3522.8c-5.9,0-10.8-4.8-10.8-10.8s4.8-10.8,10.8-10.8s10.8,4.8,10.8,10.8l0,0
		C2214.7,3517.9,2209.9,3522.7,2204,3522.8z M2204,3502.8c-5.1,0-9.2,4.1-9.2,9.2s4.1,9.2,9.2,9.2s9.2-4.1,9.2-9.2l0,0
		C2213.2,3506.9,2209.1,3502.8,2204,3502.8z"/>
</g>
<path id="octagon-check" class="st0" d="M11.5,14.5l4-4c0.3-0.3,0.3-0.8,0-1.1c-0.3-0.3-0.7-0.3-1,0L11,12.9l-1.5-1.5
	c-0.3-0.3-0.8-0.3-1.1,0c-0.3,0.3-0.3,0.7,0,1l2,2C10.8,14.8,11.2,14.8,11.5,14.5C11.5,14.5,11.5,14.5,11.5,14.5z"/>
</svg>
