<?xml version="1.0" encoding="utf-8"?>
<!-- Generator: Adobe Illustrator 26.5.0, SVG Export Plug-In . SVG Version: 6.00 Build 0)  -->
<svg version="1.1" id="Execution" fill="currentColor" xmlns="http://www.w3.org/2000/svg" xmlns:xlink="http://www.w3.org/1999/xlink" x="0px" y="0px"
	 viewBox="0 0 24 24" style="enable-background:new 0 0 24 24;" xml:space="preserve">
<g id="sync">
	<g id="Group" transform="translate(2.25 2.25)">
		<path id="Union" d="M9.8,1.5c2.7,0,5.2,1.3,6.7,3.5l-2.2,0c-0.4,0-0.8,0.3-0.8,0.8s0.3,0.8,0.8,0.8l3.6,0h0.5
			c0.4,0,0.7-0.3,0.7-0.7v-4C19,1.3,18.7,1,18.2,1s-0.8,0.3-0.8,0.8v2.2C15.7,1.4,12.8,0,9.8,0C4.4,0,0,4.4,0,9.8
			c0,0.4,0.3,0.8,0.8,0.8s0.8-0.3,0.8-0.8C1.5,5.2,5.2,1.5,9.8,1.5z"/>
		<path id="Union-2" d="M9.8,18c-2.7,0-5.2-1.3-6.7-3.5l2.2,0c0.4,0,0.8-0.3,0.8-0.8C6,13.3,5.7,13,5.2,13l-3.5,0H1.3
			c-0.4,0-0.8,0.3-0.8,0.7c0,0,0,0,0,0v4c0,0.4,0.3,0.8,0.8,0.8S2,18.2,2,17.8v-2.2c1.8,2.5,4.7,3.9,7.8,3.9c5.4,0,9.8-4.4,9.8-9.8
			c0-0.4-0.3-0.8-0.8-0.8S18,9.3,18,9.8C18,14.3,14.3,18,9.8,18z"/>
	</g>
</g>
<path id="Vector_479_Stroke_" d="M12.5,9v3.6c0,0.1,0,0.1,0.1,0.2l1.7,1.7c0.3,0.3,0.3,0.8,0,1.1c-0.3,0.3-0.7,0.3-1,0l-1.7-1.7
	c-0.3-0.3-0.5-0.8-0.5-1.2V9c0-0.4,0.3-0.8,0.8-0.8S12.5,8.6,12.5,9z"/>
</svg>
