<?xml version="1.0" encoding="utf-8"?>
<!-- Generator: Adobe Illustrator 26.5.0, SVG Export Plug-In . SVG Version: 6.00 Build 0)  -->
<svg version="1.1" id="Automation" fill="currentColor" xmlns="http://www.w3.org/2000/svg" xmlns:xlink="http://www.w3.org/1999/xlink" x="0px" y="0px"
	 viewBox="0 0 24 24" style="enable-background:new 0 0 24 24;" xml:space="preserve">
<style type="text/css">
	.st0{fill:#25314C;}
</style>
<g id="stopwatch-check" transform="translate(-3228 -1980)">
	<path id="stopwatch-check-2" class="st0" d="M3245.6,1988l0.9-0.9c0.3-0.3,0.3-0.8,0-1.1c-0.3-0.3-0.7-0.3-1,0l-1,1
		c-3.6-2.8-8.8-2.1-11.6,1.6c-2.8,3.6-2.1,8.8,1.6,11.6c3.6,2.8,8.8,2.1,11.6-1.6C3248.5,1995.4,3248.3,1990.9,3245.6,1988
		L3245.6,1988z M3239.5,2000.2c-3.7,0-6.8-3-6.8-6.8s3-6.8,6.8-6.8s6.8,3,6.8,6.8C3246.2,1997.2,3243.2,2000.2,3239.5,2000.2z
		 M3236.2,1983c0-0.4,0.3-0.8,0.8-0.8h5c0.4,0,0.8,0.3,0.8,0.8s-0.3,0.8-0.8,0.8h-5C3236.6,1983.8,3236.2,1983.4,3236.2,1983z
		 M3242.5,1991.3c0.3,0.3,0.3,0.8,0,1.1c0,0,0,0,0,0l-3.3,3.3c-0.3,0.3-0.8,0.3-1.1,0c0,0,0,0,0,0l-1.7-1.7c-0.3-0.3-0.3-0.8,0-1.1
		c0.3-0.3,0.7-0.3,1,0l1.1,1.1l2.8-2.8C3241.8,1991,3242.2,1991,3242.5,1991.3C3242.5,1991.3,3242.5,1991.3,3242.5,1991.3z"/>
</g>
</svg>
