<?xml version="1.0" encoding="utf-8"?>
<!-- Generator: Adobe Illustrator 26.5.0, SVG Export Plug-In . SVG Version: 6.00 Build 0)  -->
<svg version="1.1" id="Policy" fill="currentColor" xmlns="http://www.w3.org/2000/svg" xmlns:xlink="http://www.w3.org/1999/xlink" x="0px" y="0px"
	 viewBox="0 0 24 24" style="enable-background:new 0 0 24 24;" xml:space="preserve">
<g>
	<path d="M3.8,12c0-4.6,3.7-8.2,8.2-8.2c2.7,0,5.2,1.3,6.7,3.5l-2.2,0c-0.4,0-0.8,0.3-0.8,0.8c0,0.4,0.3,0.8,0.8,0.8l3.5,0h0.5
		c0.4,0,0.7-0.3,0.7-0.7V4c0-0.4-0.3-0.8-0.8-0.8S19.8,3.6,19.8,4v2.2c-1.8-2.5-4.7-3.9-7.8-3.9c-5.4,0-9.8,4.4-9.8,9.8
		c0,0.4,0.3,0.8,0.8,0.8S3.8,12.4,3.8,12z"/>
	<path d="M21,11.2c-0.4,0-0.8,0.3-0.8,0.8c0,4.6-3.7,8.2-8.2,8.2c-2.7,0-5.2-1.3-6.7-3.5l2.2,0c0.4,0,0.8-0.3,0.8-0.8
		c0-0.4-0.3-0.8-0.8-0.8l-3.5,0H3.5c-0.4,0-0.8,0.3-0.8,0.7c0,0,0,0,0,0v4c0,0.4,0.3,0.8,0.8,0.8s0.8-0.3,0.8-0.8v-2.2
		c1.8,2.5,4.7,3.9,7.8,3.9c5.4,0,9.8-4.4,9.8-9.8C21.8,11.6,21.4,11.2,21,11.2z"/>
	<path d="M15,12.9H9c-0.4,0-0.8,0.3-0.8,0.8s0.3,0.8,0.8,0.8h6c0.4,0,0.8-0.3,0.8-0.8S15.4,12.9,15,12.9z"/>
	<path d="M15,9.6H9c-0.4,0-0.8,0.3-0.8,0.8s0.3,0.8,0.8,0.8h6c0.4,0,0.8-0.3,0.8-0.8S15.4,9.6,15,9.6z"/>
</g>
</svg>
