<?xml version="1.0" encoding="utf-8"?>
<!-- Generator: Adobe Illustrator 24.3.0, SVG Export Plug-In . SVG Version: 6.00 Build 0)  -->
<svg version="1.1" id="AWS" fill="currentColor" xmlns="http://www.w3.org/2000/svg" xmlns:xlink="http://www.w3.org/1999/xlink" x="0px" y="0px"
	 viewBox="0 0 32 34.6" style="enable-background:new 0 0 32 34.6;" xml:space="preserve">
<style type="text/css">
	.st0{fill:#010202;}
</style>
<g id="amazon-s3" transform="translate(0.032 0.011)">
	<path id="Tracé_485" class="st0" d="M9.2,14.7c0,0.3,0,0.6,0.1,0.9c0.1,0.3,0.2,0.5,0.3,0.7c0,0.1,0.1,0.2,0.1,0.2
		c0,0.1-0.1,0.2-0.2,0.3l-0.7,0.4c-0.1,0.1-0.2,0.1-0.3,0.1c-0.1,0-0.2-0.1-0.3-0.1C8.1,17.2,8,17,7.9,16.9
		c-0.1-0.2-0.2-0.4-0.3-0.6c-0.7,0.9-1.9,1.5-3.1,1.4c-0.8,0-1.5-0.2-2.1-0.7c-0.5-0.5-0.8-1.3-0.8-2c0-0.8,0.3-1.6,0.9-2.1
		c0.7-0.6,1.6-0.9,2.5-0.8c0.4,0,0.7,0,1.1,0.1c0.4,0.1,0.8,0.1,1.2,0.2v-0.8c0.1-0.6-0.1-1.2-0.5-1.7C6.5,9.5,5.9,9.3,5.3,9.4
		c-0.4,0-0.8,0-1.1,0.1C3.8,9.6,3.4,9.7,3,9.9C2.9,9.9,2.8,10,2.7,10c-0.1,0-0.1,0-0.2,0c-0.1,0-0.2-0.1-0.2-0.3V9.2
		c0-0.1,0-0.3,0.1-0.4c0.1-0.1,0.2-0.2,0.3-0.2C3,8.4,3.5,8.3,3.9,8.2C4.5,8,5,8,5.6,8c1-0.1,2,0.2,2.7,0.8c0.6,0.7,0.9,1.6,0.9,2.6
		L9.2,14.7L9.2,14.7z M5,16.3c0.4,0,0.7-0.1,1.1-0.2c0.4-0.1,0.7-0.4,1-0.7c0.2-0.2,0.3-0.4,0.4-0.7c0.1-0.3,0.1-0.6,0.1-0.9v-0.4
		c-0.3-0.1-0.6-0.1-1-0.2c-0.3,0-0.6-0.1-1-0.1c-0.5,0-1.1,0.1-1.5,0.4c-0.3,0.3-0.5,0.7-0.5,1.2c0,0.4,0.1,0.8,0.4,1.1
		C4.2,16.2,4.6,16.3,5,16.3L5,16.3z M13.3,17.4c-0.1,0-0.3,0-0.4-0.1c-0.1-0.1-0.2-0.3-0.2-0.4l-2.4-8c-0.1-0.1-0.1-0.3-0.1-0.4
		c0-0.1,0.1-0.2,0.2-0.3h1.1c0.1,0,0.3,0,0.4,0.1C11.9,8.5,12,8.6,12,8.7l1.7,6.9l1.6-6.9c0-0.2,0.1-0.3,0.2-0.4
		c0.1-0.1,0.3-0.1,0.4-0.1h0.8c0.1,0,0.3,0,0.4,0.1c0.1,0.1,0.2,0.3,0.2,0.4l1.6,7l1.8-7c0-0.2,0.1-0.3,0.2-0.4
		c0.1-0.1,0.3-0.1,0.4-0.1h1c0.1,0,0.2,0.1,0.3,0.2v0.1c0,0.1,0,0.1,0,0.2c0,0.1,0,0.2-0.1,0.3l-2.5,8c0,0.2-0.1,0.3-0.2,0.4
		c-0.1,0.1-0.3,0.1-0.4,0.1h-0.9c-0.1,0-0.3,0-0.4-0.1c-0.1-0.1-0.2-0.3-0.2-0.4l-1.6-6.7l-1.6,6.7c0,0.2-0.1,0.3-0.2,0.4
		c-0.1,0.1-0.3,0.1-0.4,0.1H13.3z M26.6,17.7c-0.5,0-1.1-0.1-1.6-0.2c-0.4-0.1-0.8-0.2-1.2-0.4c-0.1-0.1-0.2-0.2-0.3-0.3
		c0-0.1-0.1-0.2-0.1-0.3V16c0-0.2,0.1-0.3,0.2-0.3c0.1,0,0.1,0,0.2,0c0.1,0,0.2,0.1,0.3,0.1c0.4,0.2,0.7,0.3,1.1,0.4
		c0.4,0.1,0.8,0.1,1.2,0.1c0.5,0,1.1-0.1,1.5-0.3c0.3-0.2,0.5-0.6,0.5-1c0-0.3-0.1-0.5-0.3-0.7c-0.3-0.3-0.7-0.4-1-0.5l-1.5-0.5
		c-0.7-0.2-1.2-0.5-1.7-1.1c-0.3-0.4-0.5-1-0.5-1.5c0-0.4,0.1-0.8,0.3-1.2c0.2-0.3,0.4-0.6,0.7-0.9c0.3-0.2,0.7-0.4,1.1-0.5
		C26.1,8,26.5,8,27,8c0.2,0,0.5,0,0.7,0c0.2,0,0.5,0.1,0.7,0.1c0.2,0,0.4,0.1,0.6,0.2c0.2,0,0.3,0.1,0.4,0.2
		c0.1,0.1,0.2,0.1,0.3,0.3c0.1,0.1,0.1,0.2,0.1,0.3v0.5c0,0.2-0.1,0.3-0.2,0.3c-0.1,0-0.3-0.1-0.4-0.1c-0.6-0.3-1.3-0.4-2-0.4
		c-0.5,0-1,0.1-1.4,0.3c-0.3,0.2-0.5,0.5-0.5,0.9c0,0.3,0.1,0.5,0.3,0.7c0.3,0.3,0.7,0.5,1.1,0.6l1.5,0.5c0.6,0.2,1.2,0.5,1.6,1
		c0.3,0.4,0.5,0.9,0.5,1.5c0,0.4-0.1,0.8-0.3,1.2c-0.2,0.4-0.4,0.7-0.8,0.9c-0.3,0.3-0.7,0.5-1.2,0.6C27.6,17.6,27.1,17.7,26.6,17.7
		L26.6,17.7z"/>
	<path id="Tracé_486" class="st0" d="M28.6,22.8c-3.7,2.5-8.1,3.9-12.6,3.9c-5.7,0-11.2-2.1-15.4-5.9c-0.3-0.3,0-0.7,0.4-0.5
		c4.7,2.7,10,4.1,15.4,4.1c4,0,8-0.8,11.8-2.4C28.6,21.7,29.1,22.3,28.6,22.8z"/>
	<path id="Tracé_487" class="st0" d="M30,21.1c-0.4-0.6-2.9-0.3-4-0.1c-0.3,0-0.4-0.2-0.1-0.5c2-1.4,5.2-1,5.5-0.5
		c0.4,0.5-0.1,3.7-1.9,5.2c-0.3,0.2-0.5,0.1-0.4-0.2C29.5,24,30.4,21.7,30,21.1z"/>
</g>
</svg>
