<?xml version="1.0" encoding="utf-8"?>
<!-- Generator: Adobe Illustrator 25.2.1, SVG Export Plug-In . SVG Version: 6.00 Build 0)  -->
<svg version="1.1" id="Back" fill="currentColor" xmlns="http://www.w3.org/2000/svg" xmlns:xlink="http://www.w3.org/1999/xlink" x="0px" y="0px"
	 viewBox="0 0 24 24" style="enable-background:new 0 0 24 24;" xml:space="preserve">
<path id="Vector_474_Stroke_" d="M15.6,18l-5.8-5.8c-0.1-0.1-0.1-0.3,0-0.4c0,0,0,0,0,0L15.6,6c0.3-0.3,0.3-0.8,0-1.1c0,0,0,0,0,0
	c-0.3-0.3-0.8-0.3-1.1,0c0,0,0,0,0,0l-5.8,5.8c-0.7,0.7-0.7,1.8,0,2.5c0,0,0,0,0,0l5.8,5.8c0.3,0.3,0.8,0.3,1.1,0
	C15.9,18.7,15.9,18.3,15.6,18z"/>
</svg>
