<?xml version="1.0" encoding="utf-8"?>
<!-- Generator: Adobe Illustrator 25.2.1, SVG Export Plug-In . SVG Version: 6.00 Build 0)  -->
<svg version="1.1" id="Cache" fill="currentColor" xmlns="http://www.w3.org/2000/svg" xmlns:xlink="http://www.w3.org/1999/xlink" x="0px" y="0px"
	 viewBox="0 0 24 24" style="enable-background:new 0 0 24 24;" xml:space="preserve">
<path id="Union" d="M12,3.8c2.7,0,5.2,1.3,6.7,3.5l-2.2,0c-0.4,0-0.7,0.3-0.7,0.8s0.3,0.7,0.7,0.7l3.6,0h0.5c0.4,0,0.7-0.3,0.7-0.7
	V4c0-0.4-0.3-0.8-0.8-0.8S19.8,3.6,19.8,4v2.2c-1.8-2.5-4.7-3.9-7.8-3.9c-5.4,0-9.8,4.4-9.8,9.8c0,0.4,0.3,0.8,0.8,0.8
	s0.8-0.3,0.8-0.8C3.8,7.4,7.4,3.8,12,3.8z"/>
<path id="Union-2" d="M12,20.2c-2.7,0-5.2-1.3-6.7-3.5l2.2,0c0.4,0,0.8-0.3,0.8-0.8s-0.3-0.8-0.8-0.8l-3.5,0H3.5
	c-0.4,0-0.8,0.3-0.8,0.7c0,0,0,0,0,0v4c0,0.4,0.3,0.8,0.8,0.8s0.8-0.3,0.8-0.8v-2.2c1.8,2.5,4.7,3.9,7.8,3.9c5.4,0,9.8-4.4,9.8-9.8
	c0-0.4-0.3-0.8-0.8-0.8s-0.8,0.3-0.8,0.8C20.2,16.6,16.6,20.2,12,20.2z"/>
</svg>
