<?xml version="1.0" encoding="utf-8"?>
<!-- Generator: Adobe Illustrator 25.2.1, SVG Export Plug-In . SVG Version: 6.00 Build 0)  -->
<svg version="1.1" id="Certificate" fill="currentColor" xmlns="http://www.w3.org/2000/svg" xmlns:xlink="http://www.w3.org/1999/xlink" x="0px" y="0px"
	 viewBox="0 0 24 24" style="enable-background:new 0 0 24 24;" xml:space="preserve">
<g id="Group" transform="translate(-0.002 0)">
	<path id="Shape" d="M16,22.1c-0.1,0-0.2,0-0.3,0L12,20.9L8.3,22c-0.1,0-0.2,0-0.3,0c-0.6,0-1-0.4-1-1V16c0.1,0,0.1,0.1,0.2,0.1l0,0
		L7,16c-0.8-0.4-1.3-1.3-1.4-2.2l0-0.2c0-0.6-0.2-1.2-0.6-1.7l-0.1-0.2c-1-1-1-2.6-0.1-3.7L4.8,8c0.4-0.4,0.7-1,0.7-1.6l0-0.2
		c0-1.4,1.1-2.6,2.5-2.7l0.2,0c0.6,0,1.2-0.2,1.7-0.6l0.2-0.1c1-1,2.6-1,3.7-0.1l0.1,0.1c0.4,0.4,1,0.7,1.6,0.7l0.2,0
		c1.4,0,2.6,1.1,2.7,2.5l0,0.2c0,0.6,0.2,1.2,0.6,1.7L19.2,8c1,1,1,2.6,0.1,3.7l-0.1,0.1c-0.4,0.4-0.7,1-0.7,1.6l0,0.2
		c0,0.9-0.5,1.8-1.3,2.3L17,16l0,0v5C17,21.6,16.6,22.1,16,22.1z M8.5,16.4v4l3.1-0.9c0.3-0.1,0.6-0.1,0.9,0l3.1,0.9v-4
		c-0.5,0.1-1,0.3-1.4,0.6l-0.1,0.1c-1,1-2.6,1-3.7,0.1l-0.1-0.1c-0.4-0.4-0.9-0.6-1.4-0.7L8.5,16.4L8.5,16.4z M12,3.4
		c-0.3,0-0.7,0.1-0.9,0.4c-0.7,0.7-1.6,1.1-2.6,1.1L8.3,5C7.7,5,7.1,5.5,7.1,6.1l0,0.1c0,1-0.4,2-1.2,2.8c-0.5,0.5-0.5,1.3,0,1.8
		C6.5,11.5,7,12.4,7,13.4l0,0.2c0,0.6,0.5,1.2,1.1,1.2l0.1,0c1,0,2,0.4,2.8,1.2c0.5,0.5,1.3,0.5,1.8,0c0.7-0.7,1.6-1.1,2.6-1.1
		l0.2,0c0.6,0,1.2-0.5,1.3-1.1l0-0.1c0-1,0.4-2,1.2-2.8c0.5-0.5,0.5-1.3,0-1.8c-0.7-0.7-1.1-1.6-1.1-2.6l0-0.2
		c0-0.6-0.5-1.2-1.1-1.2l-0.1,0c-1,0-2-0.4-2.8-1.2C12.7,3.6,12.3,3.4,12,3.4z"/>
	<path id="Combined_Shape" d="M12,12.9c-1.7,0-3-1.3-3-3s1.3-3,3-3s3,1.3,3,3S13.7,12.9,12,12.9z M12,8.4c-0.8,0-1.5,0.7-1.5,1.5
		s0.7,1.5,1.5,1.5c0.8,0,1.5-0.7,1.5-1.5S12.8,8.4,12,8.4z"/>
</g>
</svg>
