<?xml version="1.0" encoding="utf-8"?>
<!-- Generator: Adobe Illustrator 25.2.1, SVG Export Plug-In . SVG Version: 6.00 Build 0)  -->
<svg version="1.1" id="CertFacColor" fill="currentColor" xmlns="http://www.w3.org/2000/svg" xmlns:xlink="http://www.w3.org/1999/xlink" x="0px"
	 y="0px" viewBox="0 0 32 34.6" style="enable-background:new 0 0 32 34.6;" xml:space="preserve">
<style type="text/css">
	.st0{fill:none;}
</style>
<g>
	<path class="st0" d="M30,6.8h-0.9v18.3c0,1.5-1.2,2.6-2.7,2.6h-8c-0.5,1.4-2,2.1-3.3,1.6c-0.7-0.3-1.3-0.8-1.6-1.6h-8
		c-1.5,0-2.6-1.2-2.7-2.6V6.8H2c-0.5,0-0.9,0.4-0.9,0.9v20.9c0,0.5,0.4,0.9,0.9,0.9h9.8c0.4,1,1.4,1.7,2.5,1.7h3.5
		c1.1,0,2.1-0.7,2.5-1.7H30c0.5,0,0.9-0.4,0.9-0.9V7.7C30.9,7.2,30.5,6.8,30,6.8z"/>
	<path class="st0" d="M9,22.6c4.1-0.1,5.7,2.2,6.1,2.8v-20C13.4,4,11.2,3.3,9,3.4c-0.5,0-0.9,0.4-0.9,0.9v17.4
		C8.1,22.2,8.5,22.6,9,22.6z"/>
	<path class="st0" d="M17.8,26h8.7c0.5,0,0.9-0.4,0.9-0.9V6c0-0.5-0.4-0.9-0.9-0.9h-7c-0.9,0-1.9,0.3-2.6,0.9v20.9
		C16.9,26.4,17.3,26,17.8,26z"/>
	<path class="st0" d="M5.5,26.1h7.9c-1.1-1.2-2.8-1.9-4.4-1.7c-1.4,0-2.6-1.2-2.6-2.6V5.1H5.5C5,5.1,4.6,5.5,4.6,6v19.2
		C4.6,25.7,5,26.1,5.5,26.1z"/>
</g>
</svg>
