<?xml version="1.0" encoding="utf-8"?>
<!-- Generator: Adobe Illustrator 25.2.1, SVG Export Plug-In . SVG Version: 6.00 Build 0)  -->
<svg version="1.1" id="CompliancePolicy" fill="currentColor" xmlns="http://www.w3.org/2000/svg" xmlns:xlink="http://www.w3.org/1999/xlink" x="0px" y="0px"
	 viewBox="0 0 24 24" style="enable-background:new 0 0 24 24;" xml:space="preserve">
<g id="Regular_1.5px_file_add">
	<g id="Group" transform="translate(3 2)">
		<path id="Combined_Shape" d="M15,20H3c-1.7,0-3-1.3-3-3V3c0-1.7,1.3-3,3-3h9.8c0.3,0,0.5,0,0.7,0.1c0,0,0.1,0,0.1,0
			c0.5,0.1,0.9,0.4,1.2,0.7l2.2,2.2c0.4,0.4,0.7,0.9,0.8,1.4v0C18,4.8,18,5,18,5.2V17C18,18.7,16.7,20,15,20z M3,1.5
			C2.2,1.5,1.5,2.2,1.5,3v14c0,0.8,0.7,1.5,1.5,1.5h12c0.8,0,1.5-0.7,1.5-1.5V6H14c-1.1,0-2-0.9-2-2V1.5H3z M13.5,1.7V4
			c0,0.3,0.2,0.5,0.5,0.5h2.3c-0.1-0.1-0.1-0.2-0.2-0.3l-2.2-2.2C13.7,1.9,13.6,1.8,13.5,1.7L13.5,1.7z"/>
	</g>
</g>
<path id="Vector_408_Stroke_" d="M16.3,11.3l-5,5c-0.3,0.3-0.8,0.3-1.1,0c0,0,0,0,0,0l-2.5-2.5c-0.3-0.3-0.3-0.8,0-1.1
	c0.3-0.3,0.7-0.3,1,0l2,2l4.5-4.5c0.3-0.3,0.8-0.3,1.1,0C16.5,10.5,16.5,11,16.3,11.3z"/>
</svg>
