<?xml version="1.0" encoding="utf-8"?>
<!-- Generator: Adobe Illustrator 25.2.1, SVG Export Plug-In . SVG Version: 6.00 Build 0)  -->
<svg version="1.1" id="ConfigurationPermission" fill="currentColor" xmlns="http://www.w3.org/2000/svg" xmlns:xlink="http://www.w3.org/1999/xlink" x="0px" y="0px"
	 viewBox="0 0 45.4 45.4" style="enable-background:new 0 0 45.4 45.4;" xml:space="preserve">
<style type="text/css">
	.st0{fill:none;}
</style>
<path id="Union_15" class="st0" d="M34.1,41.8l-1.8-0.1c-0.5,0-0.9-0.4-0.9-0.9l0.1-1.7c-0.8-0.2-1.5-0.6-2.2-1L28,39.2
	c-0.4,0.3-0.9,0.3-1.3-0.1c0,0,0,0,0,0l-1.2-1.4c-0.2-0.2-0.2-0.4-0.2-0.6c0-0.2,0.1-0.5,0.3-0.6l1.2-1.1c-0.4-0.7-0.7-1.5-0.8-2.3
	L24.3,33c-0.2,0-0.5-0.1-0.6-0.3c-0.2-0.2-0.2-0.4-0.2-0.6l0.1-1.8c0-0.5,0.4-0.9,0.9-0.9l1.7,0.1c0.2-0.8,0.6-1.5,1-2.2L26,26
	c-0.3-0.4-0.3-0.9,0.1-1.3c0,0,0,0,0,0l1.3-1.2c0.2-0.2,0.4-0.2,0.6-0.2c0.2,0,0.5,0.1,0.6,0.3l1.1,1.3c0.7-0.4,1.5-0.7,2.3-0.8
	l0.1-1.7c0-0.5,0.4-0.9,0.9-0.9l1.8,0.1c0.5,0,0.9,0.4,0.9,0.9c0,0,0,0,0,0l-0.1,1.7c0.8,0.2,1.5,0.6,2.2,1l1.2-1.1
	c0.4-0.3,0.9-0.3,1.3,0.1c0,0,0,0,0,0l1.2,1.4c0.3,0.4,0.3,0.9-0.1,1.3c0,0,0,0,0,0l-1.2,1.1c0.4,0.7,0.7,1.5,0.8,2.3l1.7,0.1
	c0.5,0,0.9,0.4,0.9,0.9c0,0,0,0,0,0L43.7,33c0,0.5-0.4,0.9-0.9,0.9L41,33.8c-0.2,0.8-0.6,1.5-1,2.2l1.1,1.3c0.3,0.4,0.3,0.9,0,1.3
	c0,0,0,0,0,0l-1.3,1.2c-0.2,0.2-0.4,0.2-0.6,0.2c-0.2,0-0.5-0.1-0.6-0.3l-1.2-1.2c-0.7,0.4-1.5,0.7-2.3,0.8L35,41
	c0,0.2-0.1,0.5-0.3,0.6C34.5,41.7,34.3,41.8,34.1,41.8L34.1,41.8z M29.4,31.4c-0.1,2.3,1.7,4.3,4,4.4c2.3,0.1,4.3-1.7,4.4-4
	c0.1-2.3-1.7-4.3-4-4.4l0,0c-0.1,0-0.1,0-0.2,0C31.3,27.4,29.5,29.2,29.4,31.4L29.4,31.4z M8.4,39.6c-2.5-0.9-4.8-2.2-6.8-3.9v-6.5
	c0-4.1,3.3-7.4,7.4-7.4h14.7c0.4,0,0.7,0,1.1,0.1L23.7,23c-0.4,0.4-0.4,1.2,0,1.6l1.5,1.5c-0.6,0.9-1,1.8-1.2,2.9l-2.2,0h0
	c-0.6,0-1.1,0.5-1.1,1.1l0,2.3c0,0.6,0.5,1.2,1.1,1.2l0,0l2.2,0c0.2,1,0.6,2,1.2,2.9L23.6,38c-0.2,0.2-0.3,0.5-0.3,0.8
	c0,0.3,0.1,0.6,0.3,0.8l0.2,0.2C18.8,41.5,13.4,41.4,8.4,39.6L8.4,39.6z M8,12c0-4.7,3.8-8.4,8.4-8.4c4.7,0,8.4,3.8,8.4,8.4
	c0,4.7-3.8,8.4-8.4,8.4l0,0C11.8,20.5,8,16.7,8,12C8,12,8,12,8,12L8,12z"/>
</svg>
