<?xml version="1.0" encoding="utf-8"?>
<!-- Generator: Adobe Illustrator 25.2.1, SVG Export Plug-In . SVG Version: 6.00 Build 0)  -->
<svg version="1.1" id="Connector" fill="currentColor" xmlns="http://www.w3.org/2000/svg" xmlns:xlink="http://www.w3.org/1999/xlink" x="0px" y="0px"
	 viewBox="0 0 24 24" style="enable-background:new 0 0 24 24;" xml:space="preserve">
<path id="Shape" d="M7,19c-2.2,0-4-1.8-4-4s1.8-4,4-4c1.1,0,2.1,0.4,2.8,1.2l0.2,0.2l3.3-2l0,0c-0.7-2.1,0.3-4.4,2.4-5.1
	s4.4,0.3,5.1,2.4c0.7,2.1-0.3,4.4-2.4,5.1c-1.5,0.5-3.1,0.1-4.2-1L14,11.7l-3.3,2c0.2,0.4,0.2,0.9,0.2,1.4c0.1,0.9-0.2,1.8-0.9,2.5
	c-0.1,0.1-0.1,0.1-0.2,0.2C9.2,18.5,8.1,19,7,19z M7,12.5c-1.4,0-2.5,1.1-2.5,2.5s1.1,2.5,2.5,2.5s2.5-1.1,2.5-2.5S8.4,12.5,7,12.5z
	 M17,6.5c-1.4,0-2.5,1.1-2.5,2.5s1.1,2.5,2.5,2.5s2.5-1.1,2.5-2.5S18.4,6.5,17,6.5z"/>
</svg>
