<?xml version="1.0" encoding="utf-8"?>
<!-- Generator: Adobe Illustrator 26.4.0, SVG Export Plug-In . SVG Version: 6.00 Build 0)  -->
<svg version="1.1" id="Credential" fill="currentColor" xmlns="http://www.w3.org/2000/svg" xmlns:xlink="http://www.w3.org/1999/xlink" x="0px" y="0px"
	 viewBox="0 0 24 24" style="enable-background:new 0 0 24 24;" xml:space="preserve">
<path id="Shape" d="M12,22C6.5,22,2,17.5,2,12C2,6.5,6.5,2,12,2s10,4.5,10,10c0,2.9-1.3,5.6-3.4,7.5l-0.2,0.2
	C16.6,21.2,14.3,22,12,22z M12,16.5c-1.9,0-3.7,1-4.7,2.6c1.3,0.9,2.8,1.3,4.4,1.4H12c0.1,0,0.2,0,0.3,0c1.5-0.1,3.1-0.5,4.3-1.4
	C15.7,17.5,13.9,16.5,12,16.5z M12,15c2.4,0,4.6,1.2,5.9,3.2c3.4-3.2,3.5-8.6,0.3-12s-8.6-3.5-12-0.3C4.5,7.4,3.5,9.7,3.5,12
	c0,2.3,0.9,4.6,2.6,6.2C7.4,16.2,9.6,15,12,15z M12,14c-2.2,0-4-1.8-4-4s1.8-4,4-4s4,1.8,4,4S14.2,14,12,14z M12,7.5
	c-1.4,0-2.5,1.1-2.5,2.5s1.1,2.5,2.5,2.5s2.5-1.1,2.5-2.5S13.4,7.5,12,7.5z"/>
</svg>
