<?xml version="1.0" encoding="utf-8"?>
<!-- Generator: Adobe Illustrator 25.2.1, SVG Export Plug-In . SVG Version: 6.00 Build 0)  -->
<svg version="1.1" id="Criteria" fill="currentColor" xmlns="http://www.w3.org/2000/svg" xmlns:xlink="http://www.w3.org/1999/xlink" x="0px" y="0px"
	 viewBox="0 0 24 24" style="enable-background:new 0 0 24 24;" xml:space="preserve">
<g id="Group" transform="translate(0 0)">
	<path id="Combined_Shape" d="M19,21.9H5c-1.7,0-3-1.3-3-3v-12c0-1.7,1.3-3,3-3h1.2v-1c0-0.4,0.3-0.8,0.8-0.8s0.8,0.3,0.8,0.8v1h8.5
		v-1c0-0.4,0.3-0.8,0.8-0.8s0.8,0.3,0.8,0.8v1H19c1.7,0,3,1.3,3,3v12C22,20.5,20.7,21.9,19,21.9z M5,5.4C4.2,5.4,3.5,6,3.5,6.9v12
		c0,0.8,0.7,1.5,1.5,1.5h14c0.8,0,1.5-0.7,1.5-1.5v-12c0-0.8-0.7-1.5-1.5-1.5h-1.2v1.5c0,0.4-0.3,0.8-0.8,0.8s-0.8-0.3-0.8-0.8V5.4
		H7.8v1.5c0,0.4-0.3,0.8-0.8,0.8S6.2,7.3,6.2,6.9V5.4H5z"/>
	<path id="Union" d="M12,9.1c-0.4,0-0.8,0.3-0.8,0.8v2.2H9c-0.4,0-0.8,0.3-0.8,0.8s0.3,0.8,0.8,0.8h2.2v2.2c0,0.4,0.3,0.8,0.8,0.8
		s0.8-0.3,0.8-0.8v-2.2H15c0.4,0,0.8-0.3,0.8-0.8s-0.3-0.8-0.8-0.8h-2.2V9.9C12.8,9.5,12.4,9.1,12,9.1z"/>
</g>
</svg>
