<?xml version="1.0" encoding="utf-8"?>
<!-- Generator: Adobe Illustrator 26.5.0, SVG Export Plug-In . SVG Version: 6.00 Build 0)  -->
<svg version="1.1" id="CRLEntries" fill="currentColor" xmlns="http://www.w3.org/2000/svg" xmlns:xlink="http://www.w3.org/1999/xlink" x="0px" y="0px"
	 viewBox="0 0 24 24" style="enable-background:new 0 0 24 24;" xml:space="preserve">
<g>
	<path d="M11.2,20h-6C4.6,20,4,19.4,4,18.7v-14C4,4,4.6,3.5,5.2,3.5h12c0.7,0,1.2,0.6,1.2,1.2v7c0,0.4,0.3,0.8,0.8,0.8
		s0.8-0.3,0.8-0.8v-7C20,3.2,18.8,2,17.2,2h-12C3.7,2,2.5,3.2,2.5,4.7v14c0,1.5,1.2,2.8,2.8,2.8h6c0.4,0,0.8-0.3,0.8-0.8
		S11.7,20,11.2,20z"/>
	<path d="M7.2,8.1h7.6c0,0,0.1,0,0.1,0c0.4,0,0.7-0.4,0.7-0.8c0-0.4-0.4-0.7-0.8-0.7H7.2c0,0-0.1,0-0.1,0C6.7,6.6,6.4,7,6.4,7.4
		C6.5,7.8,6.8,8.1,7.2,8.1z"/>
	<path d="M7.2,11.8h7.7c0.4,0,0.8-0.3,0.8-0.8c0-0.4-0.3-0.8-0.8-0.8H7.2c-0.4,0-0.8,0.3-0.8,0.8C6.4,11.5,6.8,11.8,7.2,11.8z"/>
	<path d="M11.9,14.3H7.2c-0.4,0-0.8,0.3-0.8,0.8c0,0.4,0.3,0.8,0.8,0.8h4.7c0.4,0,0.8-0.3,0.8-0.8h0C12.6,14.7,12.3,14.3,11.9,14.3z
		"/>
	<path d="M17.2,13.5c-2.3,0-4.2,1.9-4.2,4.2c0,2.3,1.9,4.2,4.2,4.2s4.2-1.9,4.2-4.2C21.5,15.5,19.6,13.5,17.2,13.5z M14.5,17.8
		c0-1.5,1.2-2.7,2.7-2.8c0.5,0,0.9,0.1,1.3,0.4l-3.7,3.7C14.6,18.7,14.5,18.3,14.5,17.8z M17.2,20.5c-0.5,0-0.9-0.1-1.3-0.4l3.7-3.7
		c0.2,0.4,0.4,0.9,0.4,1.3C20,19.3,18.8,20.5,17.2,20.5z"/>
</g>
</svg>
