<?xml version="1.0" encoding="utf-8"?>
<!-- Generator: Adobe Illustrator 26.5.0, SVG Export Plug-In . SVG Version: 6.00 Build 0)  -->
<svg version="1.1" id="CRMP" fill="currentColor" xmlns="http://www.w3.org/2000/svg" xmlns:xlink="http://www.w3.org/1999/xlink" x="0px" y="0px"
	 viewBox="0 0 24 24" style="enable-background:new 0 0 24 24;" xml:space="preserve">
<style type="text/css">
	.st0{fill:none;}
</style>

<g id="Group" transform="translate(2 2)">
	<path id="Combined_Shape" d="M10,20C4.5,20,0,15.5,0,10S4.5,0,10,0s10,4.5,10,10C20,15.5,15.5,20,10,20z M10,1.5
		c-4.7,0-8.5,3.8-8.5,8.5s3.8,8.5,8.5,8.5s8.5-3.8,8.5-8.5C18.5,5.3,14.7,1.5,10,1.5z"/>
	<path id="Tracé_1" d="M4.5,9.8c0-1,0.2-1.9,0.7-2.8c0.4-0.8,1.1-1.5,1.9-1.9C8,4.6,8.9,4.4,9.8,4.4c1.1,0,2.2,0.3,3.1,0.9
		c0.9,0.6,1.5,1.5,1.8,2.5h-2.4c-0.2-0.5-0.6-0.9-1-1.1c-0.5-0.3-1-0.4-1.5-0.4c-0.6,0-1.1,0.1-1.6,0.4C7.7,7,7.3,7.4,7.1,7.9
		C6.8,8.5,6.7,9.1,6.7,9.8c0,0.6,0.1,1.3,0.4,1.8c0.2,0.5,0.6,0.9,1.1,1.2c0.5,0.3,1.1,0.4,1.6,0.4c0.5,0,1-0.1,1.5-0.4
		c0.4-0.3,0.8-0.7,1-1.1h2.4c-0.3,1-1,1.9-1.8,2.5c-0.9,0.6-2,0.9-3.1,0.9c-0.9,0-1.9-0.2-2.7-0.7c-0.8-0.4-1.5-1.1-1.9-1.9
		C4.8,11.7,4.5,10.7,4.5,9.8z"/>
</g>
</svg>
