<?xml version="1.0" encoding="utf-8"?>
<!-- Generator: Adobe Illustrator 25.2.1, SVG Export Plug-In . SVG Version: 6.00 Build 0)  -->
<svg version="1.1" id="Crypto" fill="currentColor" xmlns="http://www.w3.org/2000/svg" xmlns:xlink="http://www.w3.org/1999/xlink" x="0px" y="0px"
	 viewBox="0 0 24 24" style="enable-background:new 0 0 24 24;" xml:space="preserve">
<path id="Combined_Shape" d="M14.1,22.1c-1.2,1.2-3.1,1.2-4.2,0C9.3,21.6,9,20.8,9,20l0-7.8C7.1,11.1,6,9.1,6,7
	c0-2.5,1.5-4.7,3.9-5.6c1.4-0.5,2.9-0.5,4.3,0c3.1,1.2,4.7,4.6,3.5,7.7c-0.5,1.3-1.4,2.4-2.6,3.1l0,7.8C15,20.8,14.7,21.6,14.1,22.1
	z M8.8,3.8C8,4.7,7.5,5.8,7.5,7c0,1.6,0.9,3.1,2.3,3.9c0.5,0.3,0.7,0.8,0.7,1.3l0,7.8c0,0.8,0.6,1.5,1.5,1.5c0.8,0,1.5-0.6,1.5-1.5
	c0,0,0,0,0-0.1v-7.8c0-0.5,0.3-1,0.7-1.3c0.3-0.2,0.7-0.4,0.9-0.7c1.8-1.8,1.8-4.6,0-6.4c-0.2-0.2-0.4-0.4-0.7-0.6
	c-0.8-0.5-1.6-0.7-2.5-0.8c-0.9,0-1.8,0.2-2.5,0.8C9.3,3.4,9,3.6,8.8,3.8z"/>
</svg>
