<?xml version="1.0" encoding="utf-8"?>
<!-- Generator: Adobe Illustrator 25.2.1, SVG Export Plug-In . SVG Version: 6.00 Build 0)  -->
<svg version="1.1" id="Dashboard" fill="currentColor" xmlns="http://www.w3.org/2000/svg" xmlns:xlink="http://www.w3.org/1999/xlink" x="0px" y="0px"
	 viewBox="0 0 24 24" style="enable-background:new 0 0 24 24;" xml:space="preserve">
<path id="Vector_606_Stroke_" d="M3.8,3v16c0,0.7,0.6,1.2,1.2,1.2h16c0.4,0,0.8,0.3,0.8,0.8s-0.3,0.8-0.8,0.8H5
	c-1.5,0-2.8-1.2-2.8-2.8V3c0-0.4,0.3-0.8,0.8-0.8S3.8,2.6,3.8,3z"/>
<path id="Vector_618_Stroke_" d="M21.5,9.5l-4.6,4.6c-1.1,1.1-2.8,1.1-3.9,0l-2.2-2.2c-0.5-0.5-1.3-0.5-1.8,0c0,0,0,0,0,0L7,14
	c-0.3,0.3-0.8,0.3-1.1,0c-0.3-0.3-0.3-0.7,0-1l2.1-2.1c1.1-1.1,2.8-1.1,3.9,0l2.2,2.2c0.5,0.5,1.3,0.5,1.8,0c0,0,0,0,0,0l4.6-4.6
	c0.3-0.3,0.8-0.3,1.1,0C21.8,8.8,21.8,9.2,21.5,9.5z"/>
</svg>
