<?xml version="1.0" encoding="utf-8"?>
<!-- Generator: Adobe Illustrator 26.5.0, SVG Export Plug-In . SVG Version: 6.00 Build 0)  -->
<svg version="1.1" id="DataDiscovery" fill="currentColor" xmlns="http://www.w3.org/2000/svg" xmlns:xlink="http://www.w3.org/1999/xlink" x="0px"
	 y="0px" viewBox="0 0 24 24" style="enable-background:new 0 0 24 24;" xml:space="preserve">
<g id="certificate" transform="translate(-3173.25 -1494.25)">
	<path id="certificate-2" class="st0" d="M3182.6,1513.2c0,0.4-0.3,0.8-0.8,0.8h-3.3c-1.9,0.2-3.5-1.1-3.8-3c0-0.3,0-0.5,0-0.8v-8
		c-0.2-1.9,1.1-3.5,3-3.8c0.3,0,0.5,0,0.8,0h12c2.4,0,3.9,0.7,3.8,3.5c0,0.4-0.3,0.8-0.8,0.8s-0.8-0.3-0.8-0.8c0-0.1,0,0.1,0-0.3
		c0-1.4-0.7-1.7-2.2-1.7h-12c-1.6,0-2.2,0.7-2.2,2.2v8c0,1.6,0.7,2.2,2.2,2.2h3.3C3182.3,1512.5,3182.6,1512.8,3182.6,1513.2z"/>
</g>
<path id="eye" class="st0" d="M22,12.7c-0.9-1.5-2.9-4-6.3-4s-5.4,2.5-6.3,4c-0.5,0.8-0.5,1.8,0,2.5c0.9,1.5,2.9,4,6.3,4
	s5.4-2.5,6.3-4C22.4,14.5,22.4,13.5,22,12.7z M21.1,14.7c-0.8,1.3-2.5,3.5-5.4,3.5s-4.6-2.2-5.4-3.5c-0.3-0.5-0.3-1,0-1.5
	c0.8-1.3,2.5-3.5,5.4-3.5s4.6,2.2,5.4,3.5C21.4,13.7,21.4,14.3,21.1,14.7z M15.7,11.1c-1.6,0-2.9,1.3-2.9,2.9s1.3,2.9,2.9,2.9
	s2.9-1.3,2.9-2.9v0C18.6,12.4,17.3,11.1,15.7,11.1C15.7,11.1,15.7,11.1,15.7,11.1L15.7,11.1z M15.7,15.9c-1,0-1.9-0.8-1.9-1.9
	c0-1,0.8-1.9,1.9-1.9c1,0,1.9,0.8,1.9,1.9C17.6,15,16.7,15.9,15.7,15.9L15.7,15.9z"/>
<path id="eye_-_Contour" class="st0" d="M15.7,8.6c3.5,0,5.5,2.6,6.4,4.1c0.5,0.8,0.5,1.9,0,2.7c-0.9,1.5-3,4.1-6.4,4.1
	s-5.5-2.6-6.4-4.1c-0.5-0.8-0.5-1.9,0-2.7C10.2,11.1,12.2,8.6,15.7,8.6z M15.7,19.1c3.3,0,5.3-2.5,6.2-3.9c0.4-0.7,0.4-1.6,0-2.4
	C21,11.3,19,8.9,15.7,8.9s-5.3,2.5-6.2,3.9c-0.4,0.7-0.4,1.6,0,2.4C10.4,16.7,12.4,19.1,15.7,19.1L15.7,19.1z M15.7,9.6
	c1.3,0,2.6,0.5,3.6,1.3c0.8,0.6,1.4,1.4,2,2.3c0.3,0.5,0.3,1.1,0,1.6l0,0.1c-0.8,1.3-2.6,3.5-5.5,3.5c-1.3,0-2.6-0.5-3.6-1.3
	c-0.8-0.6-1.4-1.4-2-2.3c-0.3-0.5-0.3-1.1,0-1.6C10.9,11.8,12.7,9.6,15.7,9.6L15.7,9.6z M21,14.6c0.2-0.4,0.2-0.9,0-1.3
	c-0.8-1.3-2.5-3.4-5.3-3.4s-4.5,2.2-5.3,3.4c-0.2,0.4-0.2,0.9,0,1.3c0.8,1.3,2.5,3.4,5.3,3.4S20.2,16,21,14.6L21,14.6z M15.7,11
	L15.7,11c1.7,0,3,1.4,3,3c0,1.7-1.4,3-3,3c-1.7,0-3-1.4-3-3c0,0,0,0,0,0C12.6,12.3,14,11,15.7,11L15.7,11z M15.7,16.7
	c1.5,0,2.7-1.2,2.7-2.7s-1.2-2.7-2.7-2.7c-1.5,0-2.7,1.2-2.7,2.7C12.9,15.5,14.2,16.7,15.7,16.7L15.7,16.7z M15.7,12
	c1.1,0,2,0.9,2,2c0,1.1-0.9,2-2,2c0,0,0,0,0,0l0,0c-1.1,0-2-0.9-2-2C13.7,12.9,14.6,12,15.7,12z M15.7,15.7c1,0,1.7-0.8,1.7-1.7
	s-0.8-1.7-1.7-1.7S14,13,14,14v0C14,15,14.7,15.7,15.7,15.7z"/>
</svg>
