<?xml version="1.0" encoding="utf-8"?>
<!-- Generator: Adobe Illustrator 25.2.1, SVG Export Plug-In . SVG Version: 6.00 Build 0)  -->
<svg version="1.1" id="Delete" fill="currentColor" xmlns="http://www.w3.org/2000/svg" xmlns:xlink="http://www.w3.org/1999/xlink" x="0px" y="0px"
	 viewBox="0 0 24 24" style="enable-background:new 0 0 24 24;" xml:space="preserve">
<g id="Group" transform="translate(0 0)">
	<path id="Path_38_Copy_Stroke_" d="M10.8,11v5c0,0.4-0.3,0.8-0.8,0.8S9.2,16.4,9.2,16v-5c0-0.4,0.3-0.8,0.8-0.8S10.8,10.6,10.8,11z
		"/>
	<path id="Path_38_Copy_Stroke_2" d="M14.8,11v5c0,0.4-0.3,0.8-0.8,0.8s-0.8-0.3-0.8-0.8v-5c0-0.4,0.3-0.8,0.8-0.8
		S14.8,10.6,14.8,11z"/>
	<path id="Combined_Shape" d="M17,21.8H7c-1.5,0-2.7-1.2-2.8-2.8V6.8H3C2.6,6.8,2.2,6.4,2.2,6S2.6,5.2,3,5.2h4.2V5
		c0-1.5,1.2-2.7,2.8-2.8h4c1.5,0,2.7,1.2,2.8,2.8v0.2H21c0.4,0,0.8,0.3,0.8,0.8S21.4,6.8,21,6.8h-1.2V19
		C19.7,20.5,18.5,21.7,17,21.8z M5.8,6.8V19c0,0.7,0.6,1.2,1.2,1.2h10c0.7,0,1.2-0.6,1.2-1.2V6.8H5.8z M10,3.8
		C9.3,3.8,8.8,4.3,8.8,5v0.2h6.5V5c0-0.7-0.6-1.2-1.2-1.2H10z"/>
</g>
</svg>
