<?xml version="1.0" encoding="utf-8"?>
<!-- Generator: Adobe Illustrator 26.5.0, SVG Export Plug-In . SVG Version: 6.00 Build 0)  -->
<svg version="1.1" id="Deny" fill="currentColor" xmlns="http://www.w3.org/2000/svg" xmlns:xlink="http://www.w3.org/1999/xlink" x="0px" y="0px"
	 viewBox="0 0 24 24" style="enable-background:new 0 0 24 24;" xml:space="preserve">
<style type="text/css">
	.st0{fill:#25314C;}
</style>
<g id="octagon-minus" transform="translate(-2640 -3500)">
	<path id="octagon-minus-2" class="st0" d="M2655.4,3521.8h-6.8c-0.6,0-1.2-0.2-1.6-0.7l-4.1-4.1c-0.4-0.4-0.7-1-0.7-1.6v-6.8
		c0-0.6,0.2-1.2,0.7-1.6l4.1-4.1c0.4-0.4,1-0.7,1.6-0.7h6.8c0.6,0,1.2,0.2,1.6,0.7l4.1,4.1c0.4,0.4,0.7,1,0.7,1.6v6.8
		c0,0.6-0.2,1.2-0.7,1.6l-4.1,4.1C2656.5,3521.5,2656,3521.7,2655.4,3521.8z M2648.6,3503.8c-0.2,0-0.4,0.1-0.5,0.2l-4.1,4.1
		c-0.1,0.1-0.2,0.3-0.2,0.5v6.8c0,0.2,0.1,0.4,0.2,0.5l4.1,4.1c0.1,0.1,0.3,0.2,0.5,0.2h6.8c0.2,0,0.4-0.1,0.5-0.2l4.1-4.1
		c0.1-0.1,0.2-0.3,0.2-0.5v-6.8c0-0.2-0.1-0.4-0.2-0.5l-4.1-4.1c-0.1-0.1-0.3-0.2-0.5-0.2H2648.6z M2655.7,3512
		c0-0.4-0.3-0.8-0.8-0.8h-6c-0.4,0-0.8,0.3-0.8,0.8s0.3,0.8,0.8,0.8h6C2655.4,3512.8,2655.7,3512.4,2655.7,3512L2655.7,3512
		L2655.7,3512z"/>
</g>
</svg>
