<?xml version="1.0" encoding="utf-8"?>
<!-- Generator: Adobe Illustrator 25.2.1, SVG Export Plug-In . SVG Version: 6.00 Build 0)  -->
<svg version="1.1" id="Detail" fill="currentColor" xmlns="http://www.w3.org/2000/svg" xmlns:xlink="http://www.w3.org/1999/xlink"
	 x="0px" y="0px" viewBox="0 0 45.4 45.4" style="enable-background:new 0 0 45.4 45.4;" xml:space="preserve">
<style type="text/css">
	.st0{fill:none;}
</style>
<path id="Union_22" class="st0" d="M34.1,38.2l-9.7-9.6C19.9,31.3,14.3,31,10,28.1C4.1,23.9,2.7,15.8,6.8,9.9c0,0,0-0.1,0.1-0.1
	c4.2-5.9,12.5-7.3,18.4-3.1c5.9,4.1,7.4,12.2,3.2,18.2c0,0-0.1,0.1-0.1,0.1l9.6,9.4c0,0,0.1,0.1,0.1,0.1c1,1.1,1,2.8-0.1,3.9
	c0,0,0,0,0,0c-0.5,0.5-1.2,0.8-1.9,0.8C35.4,39.1,34.6,38.8,34.1,38.2z M9.2,17.4c0,4.7,3.8,8.5,8.5,8.5l0,0c4.7,0,8.4-3.9,8.4-8.5
	c0-4.7-3.9-8.4-8.5-8.4C12.9,9,9.1,12.7,9.2,17.4z"/>
</svg>
