<?xml version="1.0" encoding="utf-8"?>
<!-- Generator: Adobe Illustrator 26.5.0, SVG Export Plug-In . SVG Version: 6.00 Build 0)  -->
<svg version="1.1" id="DetailDiscovery" fill="currentColor" xmlns="http://www.w3.org/2000/svg" xmlns:xlink="http://www.w3.org/1999/xlink" x="0px"
	 y="0px" viewBox="0 0 24 24" style="enable-background:new 0 0 24 24;" xml:space="preserve">
<style type="text/css">
	.st0{fill:#25314C;}
</style>
<g id="certificate" transform="translate(-3173.25 -1494.25)">
	<path id="certificate-2" class="st0" d="M3183.4,1513c0,0.4-0.3,0.8-0.8,0.8h-3.9c-1.9,0.2-3.5-1.1-3.8-3c0-0.3,0-0.5,0-0.8v-8
		c-0.2-1.9,1.1-3.5,3-3.8c0.3,0,0.5,0,0.8,0h12c1.9-0.2,3.5,1.1,3.8,3c0,0.3,0,0.5,0,0.8c0,0.4-0.3,0.8-0.8,0.8s-0.8-0.3-0.8-0.8
		c0-1.6-0.7-2.2-2.2-2.2h-12c-1.6,0-2.2,0.7-2.2,2.2v8c0,1.6,0.7,2.2,2.2,2.2h3.9C3183.1,1512.3,3183.4,1512.6,3183.4,1513z"/>
</g>
<path class="st0" d="M22.7,18.1l-4-3.6c1.2-1.7,1.2-4,0-5.7c-1.6-2.1-4.6-2.6-6.8-1c-2.1,1.6-2.6,4.6-1,6.8c1.6,2.1,4.6,2.6,6.8,1
	l4,3.6c0.1,0.1,0.3,0.2,0.5,0.2c0.2,0,0.4-0.1,0.5-0.2C23,18.8,23,18.3,22.7,18.1z M18.1,11.6c0,1.9-1.5,3.4-3.4,3.4
	s-3.4-1.5-3.4-3.4v0c0-1.9,1.5-3.4,3.4-3.4C16.6,8.3,18.1,9.8,18.1,11.6z"/>
<path id="search-text_00000062160970623438436150000005794918658872085942_" class="st0" d="M11.6,9.6c-1.6,0-3.3,0-4.9,0
	C6.3,9.6,6,9.9,6,10.3S6.3,11,6.7,11c1.5,0,3,0,4.6,0c0-0.1-0.1-0.4,0-0.7C11.3,9.9,11.5,9.7,11.6,9.6z M10.6,12.5H6.7
	c-0.4,0-0.7,0.3-0.7,0.7s0.3,0.7,0.7,0.7h3.9c0.4,0,0.7-0.3,0.7-0.7S10.9,12.5,10.6,12.5z M13.2,10.6"/>
</svg>
