<?xml version="1.0" encoding="utf-8"?>
<!-- Generator: Adobe Illustrator 25.2.1, SVG Export Plug-In . SVG Version: 6.00 Build 0)  -->
<svg version="1.1" id="DetailCertificate" fill="currentColor" xmlns="http://www.w3.org/2000/svg" xmlns:xlink="http://www.w3.org/1999/xlink" x="0px" y="0px"
	 viewBox="0 0 45.4 45.4" style="enable-background:new 0 0 45.4 45.4;" xml:space="preserve">
<style type="text/css">
	.st0{fill:none;}
</style>
<path id="Soustraction_93" class="st0" d="M26.3,41c-0.2,0-0.5-0.1-0.7-0.2l-2.9-1.9l-2.9,1.9c-0.2,0.1-0.4,0.2-0.6,0.2
	c-0.7,0-1.2-0.5-1.2-1.2c0,0,0,0,0,0v-4.5H3.6c-0.7,0-1.2-0.5-1.2-1.2v0V5.6C2.5,5,3,4.4,3.6,4.4l0,0h38.1c0.7,0,1.2,0.5,1.2,1.2v0
	v28.5c0,0.7-0.5,1.2-1.2,1.2l0,0H27.5v4.5C27.5,40.4,26.9,41,26.3,41C26.3,41,26.3,41,26.3,41z M15.5,22.7c-0.7,0-1.3,0.6-1.3,1.3
	c0,0.7,0.6,1.3,1.3,1.3h14.5c0.7,0,1.3-0.6,1.3-1.3c0-0.7-0.6-1.3-1.3-1.3H15.5z M10.2,15c-0.7,0-1.3,0.6-1.3,1.3
	c0,0.7,0.6,1.3,1.3,1.3h25c0.7,0,1.3-0.6,1.3-1.3c0-0.7-0.6-1.3-1.3-1.3H10.2z"/>
</svg>
