<?xml version="1.0" encoding="utf-8"?>
<!-- Generator: Adobe Illustrator 25.2.1, SVG Export Plug-In . SVG Version: 6.00 Build 0)  -->
<svg version="1.1" id="DiscoveryPermission" fill="currentColor" xmlns="http://www.w3.org/2000/svg" xmlns:xlink="http://www.w3.org/1999/xlink" x="0px" y="0px"
	 viewBox="0 0 45.4 45.4" style="enable-background:new 0 0 45.4 45.4;" xml:space="preserve">
<style type="text/css">
	.st0{fill:none;}
</style>
<path id="Union_17" class="st0" d="M7.7,39.1c-2.3-0.9-4.5-2.1-6.4-3.7v-6.2c0-3.9,3.1-7,7-7h14c1,0,2,0.2,2.9,0.6
	c-3.9,1.4-7.2,3.9-9.6,7.3c-0.3,0.4-0.3,1,0,1.4c2.3,3.1,5.3,5.6,8.9,7C19.2,40.9,13.2,41.1,7.7,39.1L7.7,39.1z M18.1,31.4
	c-0.3-0.4-0.3-0.9,0-1.2C21.5,25.7,26,23,31,23s9.5,2.7,12.9,7.2c0.3,0.4,0.3,0.9,0,1.2c-3.3,4.4-7.9,7.2-12.9,7.2
	S21.5,35.8,18.1,31.4L18.1,31.4z M30.7,25.3c-3,0.2-5.3,2.8-5.1,5.9c0.2,3,2.8,5.3,5.9,5.1c3-0.2,5.3-2.8,5.1-5.9
	c-0.2-2.9-2.6-5.1-5.5-5.1C30.9,25.2,30.8,25.3,30.7,25.3L30.7,25.3z M28.1,30.6c0.1-1.6,1.5-2.9,3.1-2.8s2.9,1.5,2.8,3.1
	c-0.1,1.5-1.3,2.7-2.8,2.8c-0.1,0-0.1,0-0.2,0c-1.6,0-3-1.3-3-2.9C28,30.7,28.1,30.6,28.1,30.6L28.1,30.6z M7.3,12.9
	c0-4.4,3.6-8,8-8c4.4,0,8,3.6,8,8c0,4.4-3.6,8-8,8c0,0,0,0,0,0C10.9,20.9,7.3,17.4,7.3,12.9L7.3,12.9z"/>
</svg>
