<?xml version="1.0" encoding="utf-8"?>
<!-- Generator: Adobe Illustrator 25.2.1, SVG Export Plug-In . SVG Version: 6.00 Build 0)  -->
<svg version="1.1" id="DiscoveryLog" fill="currentColor" xmlns="http://www.w3.org/2000/svg" xmlns:xlink="http://www.w3.org/1999/xlink" x="0px" y="0px"
	 viewBox="0 0 24 24" style="enable-background:new 0 0 24 24;" xml:space="preserve">
<g id="Regular_1.5px_search">
	<path id="Combined_Shape" d="M20.1,21.3c-0.2,0-0.4-0.1-0.5-0.2l-2.7-2.7c-3.8,3.2-9.5,2.7-12.7-1.1S1.5,7.9,5.3,4.6
		S14.8,1.9,18,5.7c2.8,3.4,2.8,8.3,0,11.6l2.7,2.7c0.3,0.3,0.3,0.8,0,1.1C20.5,21.2,20.3,21.3,20.1,21.3z M11.1,4
		C7,4,3.6,7.4,3.6,11.5S7,19,11.1,19s7.5-3.4,7.5-7.5C18.6,7.4,15.3,4,11.1,4z"/>
</g>
<path id="Vector_492_Stroke_" d="M7.1,9h8c0.4,0,0.8,0.3,0.8,0.8c0,0.4-0.3,0.8-0.8,0.8h-8c-0.4,0-0.8-0.3-0.8-0.8
	C6.4,9.4,6.7,9,7.1,9z"/>
<path id="Vector_493_Stroke_" d="M7.1,12h4c0.4,0,0.8,0.3,0.8,0.8c0,0.4-0.3,0.8-0.8,0.8h-4c-0.4,0-0.8-0.3-0.8-0.8
	C6.4,12.4,6.7,12,7.1,12z"/>
</svg>
