<?xml version="1.0" encoding="utf-8"?>
<!-- Generator: Adobe Illustrator 26.5.0, SVG Export Plug-In . SVG Version: 6.00 Build 0)  -->
<svg version="1.1" id="Discovery" fill="currentColor" xmlns="http://www.w3.org/2000/svg" xmlns:xlink="http://www.w3.org/1999/xlink" x="0px" y="0px"
	 viewBox="0 0 24 24" style="enable-background:new 0 0 24 24;" xml:space="preserve">
<path id="Soustraction_2" d="M11.8,19.5c-5.1,0-8.1-3.8-9.5-6.1c-0.7-1.2-0.7-2.7,0-3.8c1.3-2.3,4.4-6.1,9.5-6.1s8.1,3.8,9.5,6.1
	c0.7,1.1,0.7,2.6,0.1,3.7l0,0l0,0c-0.2,0.3-0.5,0.4-0.8,0.5c-0.1,0-0.2,0-0.4-0.1c-0.3-0.3-0.4-0.7-0.2-1.1c0.4-0.7,0.4-1.5,0-2.2
	c-1.2-2-3.8-5.3-8.2-5.3s-7,3.3-8.2,5.3c-0.4,0.7-0.4,1.6,0,2.2c1.2,2,3.8,5.3,8.2,5.3c0.5,0,1,0,1.5-0.1l0,0h0c0.1,0,0.1,0,0.2,0
	c0.3,0,0.6,0.2,0.7,0.5c0.3,0.5-0.3,0.9-0.6,1C13,19.4,12.4,19.5,11.8,19.5z"/>
<path id="search-text" d="M19.6,18l-4.4-3.9c1.6-2,1.4-4.9-0.6-6.5c-2-1.6-4.9-1.4-6.5,0.6s-1.4,4.9,0.6,6.5c1.7,1.4,4.2,1.4,5.9,0
	l4.4,3.9c0.2,0.2,0.4,0.1,0.6,0C19.8,18.4,19.8,18.2,19.6,18z M7.9,11.2c0-2.1,1.7-3.8,3.8-3.8c2.1,0,3.8,1.7,3.8,3.8
	c0,2.1-1.7,3.8-3.8,3.8S7.9,13.3,7.9,11.2L7.9,11.2z"/>
<path id="search-text_-_Contour" d="M19.3,19c-0.2,0-0.3-0.1-0.5-0.2l-4.2-3.7c-2.1,1.6-5.2,1.2-6.8-0.9S6.6,9,8.8,7.3
	c2.1-1.6,5.2-1.2,6.8,0.9c1.3,1.7,1.3,4.2,0,5.9l4.2,3.7c0.3,0.3,0.3,0.7,0,0.9C19.7,18.9,19.5,19,19.3,19L19.3,19z M14.7,14.4
	l4.5,4c0.1,0.1,0.1,0.1,0.2,0c0.1-0.1,0.1-0.1,0-0.2l-4.5-4l0.2-0.2c1.6-1.8,1.3-4.6-0.5-6.1C12.7,6.3,10,6.5,8.4,8.4
	c-1.6,1.8-1.3,4.6,0.5,6.1c1.6,1.4,4,1.4,5.6,0L14.7,14.4z M11.7,15.3c-2.2,0-4.1-1.8-4.1-4.1v0c0-2.3,1.8-4.1,4.1-4.1
	c2.3,0,4.1,1.8,4.1,4.1C15.8,13.5,14,15.3,11.7,15.3L11.7,15.3z M8.2,11.2c0,2,1.6,3.6,3.6,3.6s3.6-1.6,3.6-3.6c0-2-1.6-3.6-3.6-3.6
	C9.8,7.6,8.2,9.2,8.2,11.2L8.2,11.2z"/>
</svg>
