<?xml version="1.0" encoding="utf-8"?>
<!-- Generator: Adobe Illustrator 25.2.1, SVG Export Plug-In . SVG Version: 6.00 Build 0)  -->
<svg version="1.1" id="Download" fill="currentColor" xmlns="http://www.w3.org/2000/svg" xmlns:xlink="http://www.w3.org/1999/xlink" x="0px" y="0px"
	 viewBox="0 0 24 24" style="enable-background:new 0 0 24 24;" xml:space="preserve">
<path id="Union" d="M12,4.2c-0.4,0-0.8,0.3-0.8,0.8v8.7L8,10.5c-0.3-0.3-0.8-0.3-1.1,0c-0.3,0.3-0.3,0.8,0,1.1c0,0,0,0,0,0l3.8,3.8
	c0.7,0.7,1.8,0.7,2.5,0c0,0,0,0,0,0l3.8-3.8c0.3-0.3,0.3-0.8,0-1.1c-0.3-0.3-0.8-0.3-1.1,0l0,0l-3.2,3.2V5C12.8,4.6,12.4,4.2,12,4.2
	z"/>
<path id="Path_13_Copy_5_Stroke_" d="M4.8,15v2c0,0.7,0.6,1.2,1.2,1.2h12c0.7,0,1.2-0.6,1.2-1.2v-2c0-0.4,0.3-0.8,0.8-0.8
	s0.8,0.3,0.8,0.8v2c0,1.5-1.2,2.8-2.8,2.8H6c-1.5,0-2.8-1.2-2.8-2.8v-2c0-0.4,0.3-0.8,0.8-0.8S4.8,14.6,4.8,15z"/>
</svg>
