<?xml version="1.0" encoding="utf-8"?>
<!-- Generator: Adobe Illustrator 25.2.1, SVG Export Plug-In . SVG Version: 6.00 Build 0)  -->
<svg version="1.1" id="Duplicate" fill="currentColor" xmlns="http://www.w3.org/2000/svg" xmlns:xlink="http://www.w3.org/1999/xlink" x="0px" y="0px"
	 viewBox="0 0 24 24" style="enable-background:new 0 0 24 24;" xml:space="preserve">
<g id="Group" transform="translate(0 0)">
	<path id="Subtract" d="M6,6C4.3,6,3,7.3,3,9v10c0,1.7,1.3,3,3,3h8c1.7,0,3-1.3,3-3v-1h-1.5v1c0,0.8-0.7,1.5-1.5,1.5H6
		c-0.8,0-1.5-0.7-1.5-1.5V9c0-0.8,0.7-1.5,1.5-1.5h1V6H6z"/>
	<path id="Combined_Shape" d="M18,18h-8c-1.7,0-3-1.3-3-3V5c0-1.7,1.3-3,3-3h5.8c0.1,0,0.2,0,0.2,0v0c0.5,0,1.1,0.2,1.5,0.5
		c0.1,0.1,0.1,0.1,0.2,0.2l2.6,2.6c0.1,0.1,0.1,0.1,0.2,0.2C20.8,5.9,21,6.5,21,7h0c0,0.1,0,0.2,0,0.2V15C21,16.7,19.7,18,18,18z
		 M10,3.5C9.2,3.5,8.5,4.2,8.5,5v10c0,0.8,0.7,1.5,1.5,1.5h8c0.8,0,1.5-0.7,1.5-1.5V7.2c0-0.1,0-0.2,0-0.2H18c-1.1,0-2-0.9-2-2V3.5
		c-0.1,0-0.2,0-0.2,0H10z M17.5,4.6V5c0,0.3,0.2,0.5,0.5,0.5h0.4L17.5,4.6z"/>
</g>
</svg>
