<?xml version="1.0" encoding="utf-8"?>
<!-- Generator: Adobe Illustrator 25.2.1, SVG Export Plug-In . SVG Version: 6.00 Build 0)  -->
<svg version="1.1" id="Edit" fill="currentColor" xmlns="http://www.w3.org/2000/svg" xmlns:xlink="http://www.w3.org/1999/xlink" x="0px" y="0px"
	 viewBox="0 0 24 24" style="enable-background:new 0 0 24 24;" xml:space="preserve" fill="#4B6DD1">
<path id="Combined_Shape" d="M3.9,21.1c-0.6,0-1-0.5-1-1c0-0.1,0-0.1,0-0.2l1.1-5.3c0-0.2,0.1-0.4,0.3-0.5L14.6,3.7
	c1.2-1.2,3.1-1.2,4.2,0c0,0,0,0,0,0l1.4,1.4c1.2,1.2,1.2,3.1,0,4.2c0,0,0,0,0,0L9.9,19.8c-0.1,0.1-0.3,0.2-0.5,0.3l-5.3,1.1
	C4,21.1,3.9,21.1,3.9,21.1z M13,7.5L13,7.5l-7.6,7.6l-0.9,4.4l4.4-0.9l7.6-7.6L13,7.5z M16.7,4.4c-0.4,0-0.8,0.2-1.1,0.4l-1.6,1.6
	l3.5,3.5l1.6-1.6c0.6-0.6,0.6-1.5,0-2.1l-1.4-1.4C17.5,4.5,17.1,4.4,16.7,4.4z"/>
</svg>
