<?xml version="1.0" encoding="utf-8"?>
<!-- Generator: Adobe Illustrator 25.2.1, SVG Export Plug-In . SVG Version: 6.00 Build 0)  -->
<svg version="1.1" id="EST" fill="currentColor" xmlns="http://www.w3.org/2000/svg" xmlns:xlink="http://www.w3.org/1999/xlink" x="0px" y="0px"
	 viewBox="0 0 24 24" style="enable-background:new 0 0 24 24;" xml:space="preserve">
<g id="Group" transform="translate(0 0)">
	<path id="Combined_Shape" d="M12,22C6.5,22,2,17.5,2,12S6.5,2,12,2s10,4.5,10,10C22,17.5,17.5,22,12,22z M12,3.5
		c-4.7,0-8.5,3.8-8.5,8.5s3.8,8.5,8.5,8.5s8.5-3.8,8.5-8.5C20.5,7.3,16.7,3.5,12,3.5z"/>
</g>
<path id="Tracé_117" d="M9,17.2V6.8H15v1.5h-4.3v3H15v1.5h-4.3v2.9H15v1.5H9z"/>
</svg>
