<?xml version="1.0" encoding="utf-8"?>
<!-- Generator: Adobe Illustrator 25.2.1, SVG Export Plug-In . SVG Version: 6.00 Build 0)  -->
<svg version="1.1" id="ExchangeCertificate" fill="currentColor" xmlns="http://www.w3.org/2000/svg" xmlns:xlink="http://www.w3.org/1999/xlink" x="0px"
	 y="0px" viewBox="0 0 45.4 45.4" style="enable-background:new 0 0 45.4 45.4;" xml:space="preserve">
<style type="text/css">
	.st0{fill:none;}
</style>
<path id="Soustraction_57" class="st0" d="M26.4,42.8c-0.2,0-0.5-0.1-0.6-0.2l-2.9-1.9l-2.9,1.9c-0.2,0.1-0.4,0.2-0.6,0.2
	c-0.6,0-1.2-0.5-1.2-1.2v0V34c2.3,2.6,6.2,2.8,8.8,0.5c0.2-0.2,0.4-0.4,0.6-0.6v7.7C27.5,42.3,27,42.8,26.4,42.8z M22.8,33.7
	c-2.2,0-3.9-1.8-3.9-3.9s1.8-3.9,3.9-3.9c2.2,0,3.9,1.8,3.9,3.9C26.7,32,24.9,33.7,22.8,33.7L22.8,33.7L22.8,33.7z M17.5,33.2H3.8
	c-0.6,0-1.2-0.5-1.2-1.2v0V3.8c0-0.6,0.5-1.2,1.2-1.2l0,0h37.8c0.6,0,1.2,0.5,1.2,1.2v0V32c0,0.6-0.5,1.2-1.2,1.2l0,0H28
	c1.9-2.9,1-6.8-1.9-8.7c-2.9-1.9-6.8-1-8.7,1.9C16.2,28.5,16.2,31.1,17.5,33.2L17.5,33.2z M15.6,13.8c-0.2,0-0.4,0.1-0.6,0.2
	l-3.5,2.8c-0.3,0.2-0.4,0.6-0.3,1c-0.1,0.4,0.1,0.7,0.3,1l3.5,2.8c0.4,0.3,1,0.3,1.4-0.1c0,0,0,0,0,0c0.2-0.2,0.2-0.5,0.2-0.7
	c0-0.3-0.2-0.5-0.4-0.7l-1.1-0.9h16.6c0.8,0,1.4-0.6,1.4-1.3c0-0.8-0.6-1.4-1.3-1.4c0,0-0.1,0-0.1,0H15.1l1.1-0.9
	c0.4-0.3,0.5-1,0.2-1.4C16.2,13.9,15.9,13.8,15.6,13.8L15.6,13.8z M13.7,7.6c-0.8,0-1.4,0.6-1.4,1.3c0,0.8,0.6,1.4,1.3,1.4
	c0,0,0.1,0,0.1,0h15.8l-1,0.8c-0.4,0.3-0.5,0.9-0.2,1.4c0,0,0,0,0,0c0.2,0.2,0.5,0.4,0.8,0.4c0.2,0,0.4-0.1,0.6-0.2l3.5-2.8
	c0.5-0.6,0.5-1.4,0-1.9l-3.5-2.8c-0.4-0.3-1-0.3-1.4,0.1c-0.3,0.4-0.3,1,0.1,1.4c0,0,0,0,0,0l1.2,1L13.7,7.6z"/>
</svg>
