<?xml version="1.0" encoding="utf-8"?>
<!-- Generator: Adobe Illustrator 25.2.1, SVG Export Plug-In . SVG Version: 6.00 Build 0)  -->
<svg version="1.1" id="Extension" fill="currentColor" xmlns="http://www.w3.org/2000/svg" xmlns:xlink="http://www.w3.org/1999/xlink" x="0px" y="0px"
	 viewBox="0 0 24 24" style="enable-background:new 0 0 24 24;" xml:space="preserve">
<path id="Combined_Shape" d="M19.5,21.2h-4.3c-0.4,0-0.8-0.3-0.7-0.8c0-0.1,0-0.3,0.1-0.4c0.3-0.6,0.1-1.4-0.5-1.7
	c-0.6-0.3-1.4-0.1-1.7,0.5c-0.2,0.4-0.2,0.9,0,1.2c0.2,0.4,0.1,0.8-0.3,1c-0.1,0.1-0.2,0.1-0.4,0.1H7.5c-1,0-1.7-0.8-1.8-1.8v-3.3
	c-0.1,0-0.2,0-0.2,0c-1.5,0-2.7-1.2-2.7-2.8s1.2-2.8,2.7-2.8c0.1,0,0.2,0,0.2,0V7.5c0-1,0.8-1.7,1.8-1.8h3.3c0-0.1,0-0.2,0-0.2
	c0-1.5,1.2-2.8,2.8-2.8s2.8,1.2,2.8,2.8c0,0.1,0,0.2,0,0.2h3.3c1,0,1.7,0.8,1.8,1.8v4.3c0,0.4-0.3,0.8-0.8,0.7c-0.1,0-0.3,0-0.4-0.1
	c-0.6-0.3-1.4-0.1-1.7,0.5c-0.3,0.6-0.1,1.4,0.5,1.7c0.4,0.2,0.9,0.2,1.2,0c0.4-0.2,0.8-0.1,1,0.3c0.1,0.1,0.1,0.2,0.1,0.4v4.3
	C21.2,20.5,20.5,21.2,19.5,21.2z M13.5,16.8c1.5,0,2.7,1.2,2.8,2.8c0,0.1,0,0.2,0,0.2h3.3c0.1,0,0.2-0.1,0.2-0.2v-3.3
	c-0.1,0-0.2,0-0.2,0c-1.5,0-2.8-1.2-2.8-2.8s1.2-2.8,2.8-2.8c0.1,0,0.2,0,0.2,0V7.5c0-0.1-0.1-0.2-0.2-0.2h-4.3
	c-0.4,0-0.8-0.3-0.7-0.8c0-0.1,0-0.3,0.1-0.4c0.3-0.6,0.1-1.4-0.5-1.7c-0.6-0.3-1.4-0.1-1.7,0.5c-0.2,0.4-0.2,0.9,0,1.2
	c0.2,0.4,0.1,0.8-0.3,1c-0.1,0.1-0.2,0.1-0.4,0.1H7.5c-0.1,0-0.2,0.1-0.2,0.2v4.3c0,0.4-0.3,0.8-0.8,0.7c-0.1,0-0.3,0-0.4-0.1
	c-0.6-0.3-1.4-0.1-1.7,0.5c-0.3,0.6-0.1,1.4,0.5,1.7c0.4,0.2,0.9,0.2,1.2,0c0.4-0.2,0.8-0.1,1,0.3c0.1,0.1,0.1,0.2,0.1,0.4v4.3
	c0,0.1,0.1,0.2,0.2,0.2h3.3c0-0.1,0-0.2,0-0.2C10.8,18,12,16.8,13.5,16.8z"/>
</svg>
