<?xml version="1.0" encoding="utf-8"?>
<!-- Generator: Adobe Illustrator 24.3.0, SVG Export Plug-In . SVG Version: 6.00 Build 0)  -->
<svg version="1.1" id="F5" fill="currentColor" xmlns="http://www.w3.org/2000/svg" xmlns:xlink="http://www.w3.org/1999/xlink" x="0px" y="0px"
	 viewBox="0 0 32 34.6" style="enable-background:new 0 0 32 34.6;" xml:space="preserve">
<style type="text/css">
	.st0{fill:none;}
</style>
<path class="st0" d="M28.8,7.3c-0.2,0.8-0.3,1.6-0.4,2.4c0,0,0,0,0,0c-2.3-0.3-5-0.5-8.1-0.6c0,0,0,0,0,0c-0.2,0.8-0.5,1.5-0.7,2.3
	c0,0,0,0,0,0c0,0,0,0,0,0c0,0,0,0,0,0c0.7,0,1.3,0.1,1.9,0.2c3.8,0.5,5.8,1.6,7.1,3c0,0,0.1,0.1,0.1,0.1c1.2,1.4,1.8,3.2,1.7,5
	c0,0.1,0,0.1,0,0.2c-0.1,2.1-1.1,4-2.8,5.2c-0.1,0.1-0.1,0.1-0.2,0.2c-1.4,1-3.1,1.7-4.9,1.9c-0.1,0-0.3,0.1-0.4,0.1
	c-2.1,0.1-4.2-0.1-6.1-0.8c-0.4-0.9-0.8-1.8-1.2-2.8c-0.2-0.2-0.1-0.5,0.1-0.7c0,0,0,0,0,0c0.5-0.4,0.9-0.9,1.4-1.3
	c0.2-0.1,0.3-0.3,0.4-0.2c0,0,0.1,0.1,0.1,0.1c0.7,1,1.2,1.9,1.8,2.8c0.6,1,1.7,1.6,2.8,1.8c0.2,0,0.3,0,0.5,0c0,0,0,0,0.1,0
	c0.2,0,0.4,0,0.6-0.1c1.8-0.1,3.2-1.4,3.5-3.2c0.2-2.9-2.8-5-10.4-5.6c1.5-4.4,2.9-8.7,4-12.1c0.1,0,0.2,0,0.2,0
	c0.7,0,1.5,0.1,2.2,0.1c0.1,0,0.3,0,0.4,0c0.7,0.1,1.3,0.1,2,0.2c0.1,0,0.2,0,0.3,0c0.4,0,0.7,0.1,1.1,0.2C26.5,6,27.3,6.1,28,6.2
	c0,0,0,0,0,0c-2.9-3.3-7.1-5.4-11.8-5.4c-8.6,0-15.5,7-15.5,15.5c0,3.3,1,6.3,2.7,8.8c0.6,0,1-0.2,1-0.4c0-0.4,0-0.8-0.1-1.2
	C4,20.2,3.9,17,4,13.8c0,0,0,0-0.1,0c0,0,0,0,0,0c-0.8,0-1.4,0.1-2.1,0.1c0-0.6,0.1-1.2,0.1-1.8C2.7,12.1,3.4,12,4.1,12
	c0-0.5,0.1-1,0.1-1.6c0.4-3.1,3.7-5.1,6.4-5.8c0.8-0.2,1.7-0.4,2.6-0.4c0.2,0,0.4,0,0.6,0c0.5,0,1,0.1,1.5,0.3
	c0.6,0.5,1.2,0.9,1.8,1.4c0.1,0.1,0.1,0.3,0,0.4c-0.3,0.4-0.5,0.7-0.8,1c-0.1,0.1-0.2,0.1-0.3,0.1c-0.1,0-0.2,0-0.3,0
	c-0.5-0.2-1-0.5-1.4-0.7c-0.8-0.5-1.8-0.7-2.8-0.7c0,0,0,0,0,0c0,0-0.1,0-0.1,0c-0.7,0.1-1.3,0.8-1.3,1.6C10,8.8,10,10.2,9.9,11.7
	c1.7-0.1,3.5-0.1,5.3-0.1v1.2c-0.6,0.3-1.1,0.5-1.7,0.8c-1.2,0-2.3,0-3.5,0.1c0,0,0,0,0,0c0,0-0.1,0-0.1,0c-0.1,3.5,0,7,0.2,10.3
	c0,0.4,0.1,0.9,0.2,1.3c0.2,0.4,1.1,0.7,3.2,0.8c0,0.4,0,0.7,0,1.1c-3.1-0.1-6.2-0.4-9.2-0.9c0,0,0,0,0,0c0,0,0,0,0,0c0,0,0,0,0,0
	c2.9,3.4,7.1,5.6,11.9,5.6c8.6,0,15.5-7,15.5-15.5C31.8,12.9,30.7,9.8,28.8,7.3z"/>
</svg>
