<?xml version="1.0" encoding="utf-8"?>
<!-- Generator: Adobe Illustrator 25.2.1, SVG Export Plug-In . SVG Version: 6.00 Build 0)  -->
<svg version="1.1" id="Fav" fill="currentColor" xmlns="http://www.w3.org/2000/svg" xmlns:xlink="http://www.w3.org/1999/xlink" x="0px" y="0px"
	 viewBox="0 0 24 24" style="enable-background:new 0 0 24 24;" xml:space="preserve">
<path id="Shape" d="M16.2,21.3c-0.4,0-0.7-0.1-1-0.3L15,20.9l-2.4-1.6c-0.6-0.4-1.5-0.5-2.1-0.1l-0.1,0.1L8,20.9
	c-0.3,0.2-0.7,0.4-1.1,0.4c-0.6,0-1.2-0.3-1.6-0.8c-0.4-0.5-0.5-1.1-0.4-1.7l0-0.1L5.8,16c0.2-0.7,0-1.6-0.6-2.1l-0.1-0.1L2.8,12
	c-0.9-0.7-1.1-1.9-0.4-2.8c0.3-0.4,0.8-0.7,1.4-0.8l0.2,0l2.9-0.1c0.8,0,1.5-0.5,1.8-1.2L8.7,7l0.9-2.7c0.4-1,1.5-1.6,2.5-1.2
	c0.5,0.2,0.9,0.6,1.2,1.1l0.1,0.2L14.4,7c0.3,0.7,0.9,1.3,1.7,1.3l0.2,0l2.9,0.1c1.1,0,2,0.9,2,2c0,0.6-0.3,1.1-0.7,1.5L20.3,12
	L18,13.8c-0.6,0.5-0.9,1.3-0.7,2l0,0.2l0.8,2.8c0.2,0.6,0.1,1.3-0.3,1.8C17.4,21,16.8,21.3,16.2,21.3z M11.5,17.4
	c0.7,0,1.4,0.2,2,0.6l2.4,1.6c0.1,0.1,0.2,0.1,0.3,0.1c0.2,0,0.3-0.1,0.4-0.2c0.1-0.1,0.1-0.3,0.1-0.4l-0.8-2.8
	c-0.4-1.4,0.1-2.9,1.2-3.8l2.3-1.7c0.2-0.2,0.3-0.5,0.1-0.7c-0.1-0.1-0.2-0.2-0.4-0.2l-2.9-0.1c-1.5,0-2.8-1-3.2-2.4L12,4.8
	c-0.1-0.3-0.4-0.4-0.6-0.3c-0.1,0.1-0.3,0.2-0.3,0.3l-0.9,2.7C9.6,8.9,8.3,9.9,6.9,9.9L4,9.9c-0.3,0-0.5,0.2-0.5,0.5
	c0,0.2,0.1,0.3,0.2,0.4L6,12.6c1.2,0.9,1.7,2.4,1.2,3.8l-0.8,2.8c0,0.1,0,0.3,0.1,0.4c0.1,0.1,0.2,0.2,0.4,0.2c0.1,0,0.2,0,0.3-0.1
	l2.4-1.6C10.1,17.6,10.8,17.4,11.5,17.4L11.5,17.4z"/>
</svg>
