<?xml version="1.0" encoding="utf-8"?>
<!-- Generator: Adobe Illustrator 26.4.0, SVG Export Plug-In . SVG Version: 6.00 Build 0)  -->
<svg version="1.1" id="Fingerprint" fill="currentColor" xmlns="http://www.w3.org/2000/svg" xmlns:xlink="http://www.w3.org/1999/xlink" x="0px" y="0px"
	 viewBox="0 0 24 24" style="enable-background:new 0 0 24 24;" xml:space="preserve">
<path id="fingerprint" d="M7.6,12c0,1.7-0.4,3.4-1.2,5c-0.1,0.2-0.3,0.4-0.6,0.4c-0.1,0-0.2,0-0.3-0.1c-0.3-0.2-0.5-0.6-0.3-0.9
	c0.7-1.4,1-2.9,1-4.4c0-1.8,0.8-3.5,2.2-4.6c0.3-0.2,0.7-0.2,0.9,0.1c0.2,0.3,0.2,0.7-0.1,0.9C8.3,9.3,7.6,10.6,7.6,12z M12.2,11.4
	c-0.4,0-0.7,0.3-0.7,0.7l0,0c0,2.6-0.6,5.1-1.9,7.3c-0.2,0.3-0.1,0.7,0.3,0.9c0.1,0.1,0.2,0.1,0.3,0.1c0.2,0,0.5-0.1,0.6-0.3
	c1.3-2.4,2.1-5.2,2-7.9C12.9,11.7,12.6,11.4,12.2,11.4L12.2,11.4z M12.2,8.7c-1.8,0-3.3,1.5-3.3,3.3c0,0.4,0.3,0.7,0.7,0.7
	s0.7-0.3,0.7-0.7c0-1.1,0.9-2,2-2c1.1,0,2,0.9,2,2c0,2.6-0.6,5.2-1.7,7.5c-0.2,0.3,0,0.7,0.3,0.9c0,0,0,0,0,0c0.1,0,0.2,0.1,0.3,0.1
	c0.3,0,0.5-0.1,0.6-0.4c1.2-2.5,1.8-5.3,1.8-8.1C15.5,10.2,14,8.7,12.2,8.7L12.2,8.7z M12.2,3.5c-4.7,0-8.5,3.8-8.5,8.5
	c0,0.8-0.1,1.6-0.4,2.4c-0.1,0.3,0,0.7,0.4,0.8c0,0,0,0,0,0c0.3,0.1,0.7-0.1,0.8-0.4C4.8,14,5,13,5,12c0-4,3.2-7.2,7.2-7.2
	S19.4,8,19.4,12c0,1.5-0.1,3-0.4,4.5c-0.1,0.4,0.2,0.7,0.5,0.8c0,0,0.1,0,0.1,0c0.3,0,0.6-0.2,0.6-0.5c0.3-1.6,0.5-3.1,0.5-4.7
	C20.7,7.3,16.9,3.5,12.2,3.5L12.2,3.5z M9.5,14c-0.4-0.1-0.7,0.2-0.8,0.5c-0.3,1.3-0.7,2.6-1.4,3.7c-0.2,0.3-0.1,0.7,0.2,0.9
	c0.1,0.1,0.2,0.1,0.3,0.1c0.2,0,0.5-0.1,0.6-0.3c0.7-1.3,1.3-2.7,1.6-4.1C10.1,14.4,9.8,14.1,9.5,14z M12.2,6.1c-0.2,0-0.5,0-0.7,0
	c-0.4,0-0.6,0.3-0.6,0.7s0.3,0.6,0.7,0.6c0,0,0,0,0.1,0c0.2,0,0.4,0,0.6,0c2.5,0,4.6,2.1,4.6,4.6l0,0c0,0.8-0.1,1.7-0.2,2.5
	c0,0.4,0.2,0.7,0.6,0.7c0,0,0,0,0,0h0.1c0.3,0,0.6-0.2,0.7-0.6c0.1-0.9,0.2-1.8,0.2-2.7C18.1,8.8,15.5,6.1,12.2,6.1z M17,16.6
	c-0.3-0.1-0.7,0.1-0.8,0.5c0,0,0,0,0,0c-0.1,0.5-0.3,0.9-0.4,1.4c-0.1,0.3,0.1,0.7,0.4,0.8c0.3,0.1,0.7-0.1,0.8-0.4
	c0.2-0.5,0.3-1,0.4-1.5C17.5,17.1,17.3,16.7,17,16.6z"/>
</svg>
