<?xml version="1.0" encoding="utf-8"?>
<!-- Generator: Adobe Illustrator 25.2.1, SVG Export Plug-In . SVG Version: 6.00 Build 0)  -->
<svg version="1.1" id="Flush" fill="currentColor" xmlns="http://www.w3.org/2000/svg" xmlns:xlink="http://www.w3.org/1999/xlink" x="0px" y="0px"
	 viewBox="0 0 24 24" style="enable-background:new 0 0 24 24;" xml:space="preserve">
<g id="Regular_1.5px_history">
	<g id="Group" transform="translate(2.75 2.25)">
		<path id="Union" d="M9.5,18c2.7,0,5.2-1.3,6.7-3.5l-2.2,0c-0.4,0-0.8-0.3-0.8-0.8S13.6,13,14,13l3.4,0c0,0,0.1,0,0.1,0H18
			c0.4,0,0.8,0.3,0.8,0.7c0,0,0,0,0,0v4c0,0.4-0.3,0.8-0.8,0.8s-0.8-0.3-0.8-0.8v-2.2c-1.8,2.5-4.7,3.9-7.8,3.9
			c-5.4,0-9.8-4.3-9.8-9.7S4,0,9.4,0c3.7,0,7.1,2.1,8.8,5.4c0.2,0.4,0,0.8-0.3,1c-0.4,0.2-0.8,0-1-0.3c-1.4-2.8-4.2-4.6-7.3-4.6
			C5,1.5,1.3,5.2,1.3,9.7S5,18,9.5,18z"/>
	</g>
</g>
</svg>
