<?xml version="1.0" encoding="utf-8"?>
<!-- Generator: Adobe Illustrator 25.2.1, SVG Export Plug-In . SVG Version: 6.00 Build 0)  -->
<svg version="1.1" id="Follow" fill="currentColor" xmlns="http://www.w3.org/2000/svg" xmlns:xlink="http://www.w3.org/1999/xlink" x="0px" y="0px"
	 viewBox="0 0 24 24" style="enable-background:new 0 0 24 24;" xml:space="preserve">
<g id="Group" transform="translate(0 0)">
	<path id="Combined_Shape" d="M12,21.8c-0.4,0-0.7-0.3-0.8-0.8v-1c-3.8-0.4-6.9-3.4-7.2-7.2H3c-0.4,0-0.8-0.3-0.8-0.8
		s0.3-0.8,0.8-0.8h1C4.4,7.4,7.4,4.4,11.2,4V3c0-0.4,0.3-0.8,0.8-0.8s0.8,0.3,0.8,0.8v1c3.8,0.4,6.9,3.4,7.2,7.2h1
		c0.4,0,0.8,0.3,0.8,0.8s-0.3,0.8-0.8,0.8h-1c-0.4,3.8-3.4,6.9-7.2,7.2v1C12.7,21.4,12.4,21.7,12,21.8z M12,5.5
		c-3.6,0-6.5,2.9-6.5,6.5s2.9,6.5,6.5,6.5s6.5-2.9,6.5-6.5C18.5,8.4,15.6,5.5,12,5.5z"/>
	<path id="Combined_Shape-2" d="M12,15c-1.7,0-3-1.3-3-3s1.3-3,3-3s3,1.3,3,3S13.7,15,12,15z M12,10.5c-0.8,0-1.5,0.7-1.5,1.5
		s0.7,1.5,1.5,1.5s1.5-0.7,1.5-1.5S12.8,10.5,12,10.5z"/>
</g>
</svg>
