<?xml version="1.0" encoding="utf-8"?>
<!-- Generator: Adobe Illustrator 25.2.1, SVG Export Plug-In . SVG Version: 6.00 Build 0)  -->
<svg version="1.1" id="Forest" fill="currentColor" xmlns="http://www.w3.org/2000/svg" xmlns:xlink="http://www.w3.org/1999/xlink" x="0px" y="0px"
	 viewBox="0 0 24 24" style="enable-background:new 0 0 24 24;" xml:space="preserve">
<path id="Combined_Shape" d="M17.5,20.8c-1.8,0-3.2-1.5-3.2-3.2v-1.8H9.8v1.8c0,1.8-1.5,3.2-3.2,3.2s-3.2-1.5-3.2-3.2
	s1.5-3.2,3.2-3.2h1.8V9.8H6.5c-1.8,0-3.2-1.5-3.2-3.2s1.5-3.2,3.2-3.2s3.2,1.5,3.2,3.2v1.8h4.5V6.5c0-1.8,1.5-3.2,3.2-3.2
	s3.2,1.5,3.2,3.2s-1.5,3.2-3.2,3.2h-1.8v4.5h1.8c1.8,0,3.2,1.5,3.2,3.2S19.3,20.8,17.5,20.8z M15.8,15.8v1.8c0,1,0.8,1.8,1.8,1.8
	s1.8-0.8,1.8-1.8c0-1-0.8-1.8-1.8-1.8H15.8z M6.5,15.8c-1,0-1.8,0.8-1.8,1.8c0,1,0.8,1.8,1.8,1.8s1.8-0.8,1.8-1.8v-1.8H6.5z
	 M9.8,9.8v4.5h4.5V9.8H9.8z M17.5,4.8c-1,0-1.7,0.8-1.8,1.8v1.8h1.8c1,0,1.8-0.8,1.8-1.8S18.5,4.8,17.5,4.8z M6.5,4.8
	c-1,0-1.8,0.8-1.8,1.8s0.8,1.8,1.8,1.8h1.8V6.5C8.2,5.5,7.5,4.8,6.5,4.8z"/>
</svg>
