<?xml version="1.0" encoding="utf-8"?>
<!-- Generator: Adobe Illustrator 26.5.0, SVG Export Plug-In . SVG Version: 6.00 Build 0)  -->
<svg version="1.1" id="GradingRules" fill="currentColor" xmlns="http://www.w3.org/2000/svg" xmlns:xlink="http://www.w3.org/1999/xlink" x="0px"
	 y="0px" viewBox="0 0 24 24" style="enable-background:new 0 0 24 24;" xml:space="preserve">
<g id="books" transform="translate(-3564 -1436)">
	<g id="books_00000069390246668751509580000001945790498227023806_" transform="translate(-3566.25 -1438.25)">
		<g id="book-text" transform="translate(-3228 -1436)">
			<path id="book-text-2" d="M10376.8,4312.5h-11.5c-1.9-0.2-3.5,1.1-3.8,3c0,0.3,0,0.5,0,0.8v12c-0.1,2,1.4,3.6,3.3,3.8
				c0.1,0,0.3,0,0.4,0h11.5c1.2,0,2.2-1,2.2-2.2v-15C10379,4313.5,10378,4312.5,10376.8,4312.5z M10365.2,4314h11.5
				c0.4,0,0.8,0.3,0.8,0.8v9c0,0.4-0.3,0.7-0.8,0.8h-11.5c-0.8,0-1.6,0.2-2.2,0.7v-8.9C10363,4314.7,10363.7,4314,10365.2,4314z
				 M10376.8,4330.5h-11.5c-1.2,0-2.2-1-2.2-2.2s1-2.2,2.2-2.2h11.5c0.3,0,0.5,0,0.8-0.1v3.9
				C10377.5,4330.2,10377.2,4330.5,10376.8,4330.5z M10366.5,4317.2c0-0.4,0.3-0.8,0.8-0.8h6c0.4,0,0.8,0.3,0.8,0.8
				s-0.3,0.8-0.8,0.8h-6C10366.8,4318,10366.5,4317.7,10366.5,4317.2z M10366.5,4320.2c0-0.4,0.3-0.8,0.8-0.8h4
				c0.4,0,0.8,0.3,0.8,0.8s-0.3,0.8-0.8,0.8h-4C10366.8,4321,10366.5,4320.7,10366.5,4320.2z"/>
		</g>
	</g>
</g>
</svg>
