<?xml version="1.0" encoding="utf-8"?>
<!-- Generator: Adobe Illustrator 24.3.0, SVG Export Plug-In . SVG Version: 6.00 Build 0)  -->
<svg version="1.1" id="GrantPermission" fill="currentColor" xmlns="http://www.w3.org/2000/svg" xmlns:xlink="http://www.w3.org/1999/xlink" x="0px" y="0px"
	 viewBox="0 0 32 34.6" style="enable-background:new 0 0 32 34.6;" xml:space="preserve">
<style type="text/css">
	.st0{fill:none;}
</style>
<g id="lock_1_" transform="translate(-0.657)">
	<path id="Tracé_421" class="st0" d="M26.1,18.3c-2.4,0-4.4,2-4.4,4.4V24c0,0.3,0.3,0.6,0.7,0.6c0.3,0,0.6-0.3,0.6-0.6v-1.3
		c0-1.7,1.4-3.2,3.2-3.2c1.7,0,3.2,1.4,3.2,3.2V24c0,0.3,0.3,0.6,0.7,0.6c0.3,0,0.6-0.3,0.6-0.6v-1.3C30.5,20.3,28.5,18.3,26.1,18.3
		L26.1,18.3z"/>
	<path id="Soustraction_62" class="st0" d="M31.1,32.2H21c-0.3,0-0.6-0.3-0.6-0.6V24c0-0.3,0.3-0.6,0.6-0.6h10.1
		c0.3,0,0.6,0.3,0.6,0.6v7.6C31.8,31.9,31.5,32.2,31.1,32.2z M26.1,25.9c-0.7,0-1.3,0.6-1.3,1.3c0,0.5,0.2,0.9,0.6,1.1V29
		c0,0.3,0.3,0.6,0.6,0.7s0.6-0.3,0.7-0.6c0,0,0,0,0-0.1v-0.8c0.6-0.3,0.8-1.1,0.5-1.7C27,26.1,26.5,25.9,26.1,25.9L26.1,25.9z"/>
	<path id="Tracé_423" class="st0" d="M19.1,31.5V24c0-0.8,0.5-1.5,1.3-1.8c0-0.5,0.2-0.9,0.3-1.3c-0.1-0.3-0.2-0.7-0.3-1
		c1-0.9,1.7-2.1,1.9-3.4c0-0.2,0-0.5,0.2-0.7c0.2,0,0.4-0.2,0.4-0.4c0.4-0.9,0.6-1.8,0.7-2.8c0-0.1,0-0.1,0-0.2
		c-0.1-0.4-0.3-0.7-0.6-0.9V8.2c-0.1-3.4-2.9-6.2-6.3-6.3c-3.4,0.1-6.2,2.9-6.3,6.3v3.3c-0.3,0.2-0.5,0.6-0.6,0.9c0,0.1,0,0.1,0,0.2
		c0.1,0.9,0.3,1.9,0.7,2.8c0.1,0.2,0.2,0.3,0.4,0.4c0.1,0,0.2,0.2,0.2,0.7c0.2,1.3,0.8,2.6,1.9,3.4c-0.1,0.8-0.7,3-2.1,3.6l-5.6,1.9
		c-1.4,0.5-2.5,1.7-2.9,3.1l-0.8,3c-0.1,0.3,0.1,0.7,0.5,0.8c0.1,0,0.1,0,0.2,0h17.1C19.2,32,19.1,31.8,19.1,31.5z"/>
	<path id="Tracé_424" class="st0" d="M27.4,27.1c0-0.7-0.6-1.3-1.3-1.3s-1.3,0.6-1.3,1.3c0,0.4,0.2,0.9,0.6,1.1V29
		c0,0.3,0.3,0.6,0.6,0.7c0.3,0,0.6-0.3,0.7-0.6c0,0,0,0,0-0.1v-0.8C27.1,28,27.3,27.6,27.4,27.1z"/>
</g>
</svg>
