<?xml version="1.0" encoding="utf-8"?>
<!-- Generator: Adobe Illustrator 25.2.1, SVG Export Plug-In . SVG Version: 6.00 Build 0)  -->
<svg version="1.1" id="Home" fill="currentColor" xmlns="http://www.w3.org/2000/svg" xmlns:xlink="http://www.w3.org/1999/xlink" x="0px" y="0px"
	 viewBox="0 0 24 24" style="enable-background:new 0 0 24 24;" xml:space="preserve">
<path id="Combined_Shape" d="M19,22H5c-1.7,0-3-1.3-3-3v-7.7c0-0.9,0.4-1.7,1-2.2l7-6.3c1.1-1,2.9-1,4,0l7,6.3c0.6,0.6,1,1.4,1,2.2
	V19C22,20.6,20.7,22,19,22z M11,12h2c1.7,0,3,1.3,3,3v5.5h3c0.8,0,1.5-0.7,1.5-1.5v-7.7c0-0.4-0.2-0.8-0.5-1.1l-7-6.3
	c-0.6-0.5-1.4-0.5-2,0l-7,6.3c-0.3,0.3-0.5,0.7-0.5,1.1V19c0,0.8,0.7,1.5,1.5,1.5h3V15C8,13.3,9.3,12,11,12C11,12,11,12,11,12z
	 M11,13.5c-0.8,0-1.5,0.7-1.5,1.5v5.5h5V15c0-0.8-0.7-1.5-1.5-1.5H11z"/>
</svg>
