<?xml version="1.0" encoding="utf-8"?>
<!-- Generator: Adobe Illustrator 25.2.1, SVG Export Plug-In . SVG Version: 6.00 Build 0)  -->
<svg version="1.1" id="IdentityProviders" fill="currentColor" xmlns="http://www.w3.org/2000/svg" xmlns:xlink="http://www.w3.org/1999/xlink" x="0px"
	 y="0px" viewBox="0 0 45.4 45.4" style="enable-background:new 0 0 45.4 45.4;" xml:space="preserve">
<style type="text/css">
	.st0{fill:none;}
</style>
<path id="Soustraction_54" class="st0" d="M38.8,38.3H6.6c-2.6,0-4.8-2.1-4.8-4.8V11.8c0-2.6,2.1-4.8,4.8-4.8h32.1
	c2.6,0,4.8,2.1,4.8,4.8v21.7C43.5,36.2,41.4,38.3,38.8,38.3z M27.5,28.8c-0.7,0-1.3,0.6-1.3,1.3c0,0.7,0.6,1.3,1.3,1.3c0,0,0,0,0,0
	H37c0.7,0,1.3-0.6,1.3-1.3c0-0.7-0.6-1.3-1.3-1.3H27.5z M10.9,22.5c-1.7,0-3.2,1.4-3.2,3.2v2.8c3.7,3.1,9,3.1,12.7,0v-2.8
	c0-1.7-1.4-3.2-3.2-3.2v0H10.9z M27.5,21.8c-0.7,0-1.3,0.5-1.3,1.3c0,0.7,0.5,1.3,1.3,1.3c0,0,0.1,0,0.1,0H37c0.7,0,1.3-0.5,1.3-1.3
	c0-0.7-0.5-1.3-1.3-1.3c0,0-0.1,0-0.1,0H27.5z M14.1,14.7c-2,0-3.6,1.6-3.6,3.6c0,2,1.6,3.6,3.6,3.6c2,0,3.6-1.6,3.6-3.6
	C17.7,16.3,16.1,14.7,14.1,14.7L14.1,14.7z M27.5,14.9c-0.7,0-1.3,0.6-1.3,1.3c0,0.7,0.6,1.3,1.3,1.3c0,0,0,0,0,0H37
	c0.7,0,1.3-0.6,1.3-1.3c0-0.7-0.6-1.3-1.3-1.3H27.5z"/>
</svg>
