<?xml version="1.0" encoding="utf-8"?>
<!-- Generator: Adobe Illustrator 25.2.1, SVG Export Plug-In . SVG Version: 6.00 Build 0)  -->
<svg version="1.1" id="Identity" fill="currentColor" xmlns="http://www.w3.org/2000/svg" xmlns:xlink="http://www.w3.org/1999/xlink" x="0px" y="0px"
	 viewBox="0 0 24 24" style="enable-background:new 0 0 24 24;" xml:space="preserve">
<path id="Combined_Shape" d="M19,21H5c-1.7,0-3-1.3-3-3V6c0-1.7,1.3-3,3-3h2.8c0.8,0,1.6,0.3,2.1,0.9L11,5h8c1.7,0,3,1.3,3,3v10
	C22,19.7,20.7,21,19,21z M5,4.5C4.2,4.5,3.5,5.2,3.5,6v12c0,0.8,0.7,1.5,1.5,1.5h14c0.8,0,1.5-0.7,1.5-1.5V8c0-0.8-0.7-1.5-1.5-1.5
	h-8c-0.4,0-0.8-0.2-1.1-0.4L8.8,4.9C8.5,4.7,8.2,4.5,7.8,4.5H5z"/>
</svg>
