<?xml version="1.0" encoding="utf-8"?>
<!-- Generator: Adobe Illustrator 25.2.1, SVG Export Plug-In . SVG Version: 6.00 Build 0)  -->
<svg version="1.1" id="Info" fill="currentColor" xmlns="http://www.w3.org/2000/svg" xmlns:xlink="http://www.w3.org/1999/xlink" x="0px" y="0px"
	 viewBox="0 0 24 24" style="enable-background:new 0 0 24 24;" xml:space="preserve">
<g id="Group" transform="translate(0 0)">
	<path id="Combined_Shape" d="M12,22C6.5,22,2,17.5,2,12S6.5,2,12,2s10,4.5,10,10C22,17.5,17.5,22,12,22z M12,3.5
		c-4.7,0-8.5,3.8-8.5,8.5s3.8,8.5,8.5,8.5s8.5-3.8,8.5-8.5C20.5,7.3,16.7,3.5,12,3.5z"/>
	<path id="Path_51_Stroke_" d="M12.8,11v5c0,0.4-0.3,0.8-0.8,0.8s-0.8-0.3-0.8-0.8v-5c0-0.4,0.3-0.8,0.8-0.8S12.8,10.6,12.8,11z"/>
	<path id="Ellipse_137" d="M12,9c-0.6,0-1-0.4-1-1s0.4-1,1-1c0.6,0,1,0.4,1,1S12.6,9,12,9z"/>
</g>
</svg>
