<?xml version="1.0" encoding="utf-8"?>
<!-- Generator: Adobe Illustrator 25.2.1, SVG Export Plug-In . SVG Version: 6.00 Build 0)  -->
<svg version="1.1" id="IntunePKCS" fill="currentColor" xmlns="http://www.w3.org/2000/svg" xmlns:xlink="http://www.w3.org/1999/xlink" x="0px" y="0px"
	 viewBox="0 0 32 34.6" style="enable-background:new 0 0 32 34.6;" xml:space="preserve">
<style type="text/css">
	.st0{fill:#020203;}
	.st1{fill:none;}
</style>
<path d="M27.1,7.5"/>
<g>
	<g>
		<g>
			<path class="st0" d="M352.6,3.6c-95.4,0-173,77.6-173,173c0,21.2,3.8,41.8,11.2,61.4L25.3,403.6c-2.4,2.4-3.7,5.6-3.7,8.9V503
				c0,7,5.6,12.6,12.6,12.6h74.6c3.3,0,6.5-1.3,8.9-3.7l25.1-25.1c2.4-2.4,3.7-5.6,3.7-8.9v-30.9h30.8c7,0,12.6-5.6,12.6-12.6v-12.4
				h12.4c7,0,12.6-5.6,12.6-12.6v-27.1h27.1c3.3,0,6.6-1.3,8.9-3.7l40.1-40.1c19.6,7.4,40.2,11.2,61.4,11.2c95.4,0,173-77.6,173-173
				C525.6,81.3,448,3.6,352.6,3.6z M352.6,324.5c-20.6,0-40.6-4.2-59.3-12.4c-4.8-2.1-10.3-1-13.9,2.5c0,0-0.1,0.1-0.1,0.1
				l-42.4,42.4h-34.5c-7,0-12.6,5.6-12.6,12.6v27.1h-12.4c-7,0-12.6,5.6-12.6,12.6v12.4H134c-7,0-12.6,5.6-12.6,12.6v38.3
				l-17.8,17.7H46.8v-17.8L201,318.5c4.4-4.4,4.4-11.6,0-16.1s-11.6-4.4-16.1,0L46.8,440.5v-22.8L214.5,250c0,0,0.1-0.1,0.1-0.1
				c3.5-3.6,4.7-9,2.5-13.9c-8.2-18.7-12.4-38.7-12.4-59.3c0-81.5,66.3-147.8,147.8-147.8s147.8,66.3,147.8,147.8
				C500.4,258.2,434.1,324.5,352.6,324.5z"/>
		</g>
	</g>
	<g>
		<g>
			<path class="st0" d="M405.3,76.8c-26,0-47.2,21.2-47.2,47.2s21.2,47.2,47.2,47.2s47.2-21.2,47.2-47.2S431.3,76.8,405.3,76.8z
				 M405.3,146c-12.1,0-22-9.9-22-22s9.9-22,22-22s22,9.9,22,22S417.4,146,405.3,146z"/>
		</g>
	</g>
	<g>
	</g>
	<g>
	</g>
	<g>
	</g>
	<g>
	</g>
	<g>
	</g>
	<g>
	</g>
	<g>
	</g>
	<g>
	</g>
	<g>
	</g>
	<g>
	</g>
	<g>
	</g>
	<g>
	</g>
	<g>
	</g>
	<g>
	</g>
	<g>
	</g>
</g>
<g>
	<path class="st1" d="M2.5,9.3c0-0.3,0.3-0.6,0.6-0.6h17.3l1.7,0c0-1.1-0.7-1.2-1.7-1.2H3.1c-1,0-1.8,0.8-1.8,1.8v12.5
		c0,1,0.8,1.8,1.8,1.8h6.2L8.8,26H6.2v1.2h11.2V26h-2.6l-0.5-2.4h6.2c1,0,1.8-0.8,1.8-1.8v-2.7H2.5V9.3z M10,26l0.5-2.4h2.4l0.5,2.4
		H10z M21,20.3v1.4c0,0.3-0.3,0.6-0.6,0.6H3.1c-0.3,0-0.6-0.3-0.6-0.6v-1.4H21z"/>
	<path class="st1" d="M26.7,9.8c-1.5,0-2.9,0.8-3.6,2.1l-8,0l-1.5,1.5c-0.2,0.2-0.2,0.4,0,0.5l1.5,1.5c0.1,0.1,0.2,0.1,0.3,0.1
		l0.7,0c0.1,0,0.2-0.1,0.3-0.1l0.3-0.4l0.6,0.5c0.1,0.1,0.3,0.1,0.4,0l0.6-0.4l0.3,0.4c0.1,0.1,0.2,0.1,0.3,0.2
		c0.1,0,0.2-0.1,0.3-0.1l0.5-0.5l0.4,0.5c0.1,0.1,0.2,0.1,0.3,0.1l2.6,0l0,0.1c0.7,1.3,2,2.2,3.5,2.3c2.2-0.1,4.1-1.9,4.1-4.1
		C30.7,11.7,28.9,9.9,26.7,9.8z M28.1,15.1c-0.6,0-1.1-0.5-1.1-1.1c0-0.6,0.5-1.1,1.1-1.1c0.6,0,1.2,0.5,1.1,1.1
		C29.3,14.6,28.8,15.1,28.1,15.1z"/>
	<path class="st1" d="M15.1,12C15.2,12,15,12,15.1,12L15.1,12z"/>
</g>
</svg>
