<?xml version="1.0" encoding="utf-8"?>
<!-- Generator: Adobe Illustrator 24.3.0, SVG Export Plug-In . SVG Version: 6.00 Build 0)  -->
<svg version="1.1" id="Intune" fill="currentColor" xmlns="http://www.w3.org/2000/svg" xmlns:xlink="http://www.w3.org/1999/xlink" x="0px" y="0px"
	 viewBox="0 0 32 34.6" style="enable-background:new 0 0 32 34.6;" xml:space="preserve">
<style type="text/css">
	.st0{fill:none;}
</style>
<path id="Soustraction_16" class="st0" d="M21.6,13.1h-1.2v-2.6h1.2V13.1z"/>
<circle id="Ellipse_19" class="st0" cx="11" cy="16" r="2.1"/>
<path id="Tracé_342" class="st0" d="M30.4,16.6H12.5v-1.2l18,0.1L30.4,16.6z"/>
<rect id="Rectangle_263" x="20.4" y="21.1" class="st0" width="7" height="1.2"/>
<path id="Rectangle_265" class="st0" d="M26.1,23.1l1.2-1.6c0.1-0.2,0.4-0.2,0.6-0.1l0,0c0.2,0.1,0.2,0.4,0.1,0.6l-1.2,1.6
	c-0.1,0.2-0.4,0.2-0.6,0.1l0,0C26,23.6,26,23.3,26.1,23.1z"/>
<path id="Rectangle_266" class="st0" d="M26.8,19.9l1.2,1.6c0.1,0.2,0.1,0.4-0.1,0.6l0,0c-0.2,0.1-0.4,0.1-0.6-0.1l-1.2-1.6
	C26,20.2,26,20,26.2,19.8l0,0C26.4,19.7,26.7,19.7,26.8,19.9z"/>
<path id="Soustraction_18" class="st0" d="M30.5,28.7h-5c-0.5,0-0.8-0.4-0.8-0.8v-6.8h0.8V27c0,0.5,0.4,0.8,0.8,0.8h3.3
	c0.5,0,0.8-0.4,0.8-0.8v-9.5c0-0.5-0.4-0.8-0.8-0.8h-3.3c-0.1,0-0.2,0-0.3,0.1h-1.3v-0.4c0-0.5,0.4-0.8,0.8-0.8h5
	c0.5,0,0.8,0.4,0.8,0.8v11.6C31.3,28.3,30.9,28.7,30.5,28.7z"/>
<g>
	<rect x="21.6" y="15.4" class="st0" width="0" height="1.2"/>
	<path class="st0" d="M21.6,21.1L21.6,21.1l-19.8,0v-9.8c0-0.3,0.3-0.6,0.6-0.6h17.3c0.3,0,1.8-0.1,1.8,0.3v2.2h0v-2.3
		c0-1-0.8-1.4-1.8-1.4H2.4c-1,0-1.8,0.8-1.8,1.8v12.5c0,1,0.8,1.8,1.8,1.8h6.2L8.1,28H5.5v1.2h11.2V28h-2.6l-0.5-2.4h6.2
		c1,0,1.8-0.8,1.8-1.8L21.6,21.1L21.6,21.1z M9.3,28l0.5-2.4h2.4l0.5,2.4H9.3z M20.3,23.8c0,0.3-0.3,0.6-0.6,0.6v0H2.4
		c-0.3,0-0.6-0.3-0.6-0.6v-1.4h18.5V23.8z"/>
</g>
</svg>
