<?xml version="1.0" encoding="utf-8"?>
<!-- Generator: Adobe Illustrator 26.5.0, SVG Export Plug-In . SVG Version: 6.00 Build 0)  -->
<svg version="1.1" id="Issuer" fill="currentColor" xmlns="http://www.w3.org/2000/svg" xmlns:xlink="http://www.w3.org/1999/xlink" x="0px" y="0px"
	 viewBox="0 0 24 24" style="enable-background:new 0 0 24 24;" xml:space="preserve">
<g>
	<path d="M20.4,18.4h-1.2c0.1-1.1,0.4-2.1,0.9-3c0.3-0.4,0.4-0.9,0.4-1.4c0-0.8-0.3-1.5-0.9-2c-0.5-0.5-1.3-0.8-2-0.8h0
		c-1.6,0-2.8,1.3-2.8,2.9c0,0.5,0.1,0.9,0.4,1.3c0.5,0.9,0.8,2,0.9,3.1h-1.3c-1,0-1.9,0.8-1.9,1.9v1c0,0.2,0.1,0.4,0.2,0.5
		c0.3,0.2,0.6,0.3,0.9,0.3c0.1,0,0.1,0,0.1,0h7h0.1c0.7,0,1.2-0.4,1.2-0.9v-0.8C22.3,19.2,21.5,18.4,20.4,18.4z M18.8,12.7
		c0.3,0.3,0.5,0.7,0.5,1.2c0,0.3-0.1,0.6-0.2,0.8c-0.6,1.1-1,2.3-1.1,3.6h-0.7c-0.1-1.3-0.5-2.5-1.1-3.6C16,14.5,16,14.2,16,13.9
		c0-0.9,0.7-1.7,1.6-1.7h0C18.1,12.3,18.5,12.4,18.8,12.7z M14.1,20.2c0-0.4,0.3-0.7,0.7-0.7h5.7c0.4,0,0.7,0.3,0.7,0.7v0.6h-7V20.2
		z"/>
	<path d="M6.4,8.1H14c0,0,0.1,0,0.1,0c0.4,0,0.7-0.4,0.7-0.8c0-0.4-0.4-0.7-0.8-0.7H6.4c0,0-0.1,0-0.1,0C5.9,6.7,5.6,7,5.6,7.4
		C5.7,7.9,6,8.2,6.4,8.1z"/>
	<path d="M11.1,14.4H6.4c-0.4,0-0.8,0.3-0.8,0.8c0,0.4,0.3,0.8,0.8,0.8h4.7c0.4,0,0.8-0.3,0.8-0.8h0C11.8,14.7,11.5,14.4,11.1,14.4z
		"/>
	<path d="M6.4,11.9h7.7c0.4,0,0.8-0.3,0.8-0.8c0-0.4-0.3-0.8-0.8-0.8H6.4c-0.4,0-0.8,0.3-0.8,0.8C5.6,11.6,6,11.9,6.4,11.9z"/>
	<path d="M10.5,20h-6c-0.7,0-1.2-0.6-1.2-1.2v-14c0-0.7,0.6-1.2,1.2-1.2h12c0.7,0,1.2,0.6,1.2,1.2V9c0,0.4,0.3,0.8,0.8,0.8
		s0.8-0.3,0.8-0.8V4.8C19.2,3.3,18,2,16.5,2h-12C2.9,2,1.7,3.3,1.7,4.8v14c0,1.5,1.2,2.8,2.8,2.8h6c0.4,0,0.8-0.3,0.8-0.8
		S10.9,20,10.5,20z"/>
</g>
</svg>
