<?xml version="1.0" encoding="utf-8"?>
<!-- Generator: Adobe Illustrator 24.3.0, SVG Export Plug-In . SVG Version: 6.00 Build 0)  -->
<svg version="1.1" id="JAMF" fill="currentColor" xmlns="http://www.w3.org/2000/svg" xmlns:xlink="http://www.w3.org/1999/xlink" x="0px" y="0px"
	 viewBox="0 0 32 34.6" style="enable-background:new 0 0 32 34.6;" xml:space="preserve">
<style type="text/css">
	.st0{fill:none;}
</style>
<g id="jamf-vector-logo" transform="translate(-285.9 -280.2)">
	<path id="Tracé_278" class="st0" d="M310.8,287.3c-4,0-6.4,1.7-7.5,5.3l-2.8,8.7c-1,2.9-2.7,4-5.7,4h-6.9c-0.9,0-1.6,0.7-1.6,1.6
		v4.5c0,0.8,0.7,1.5,1.5,1.5l0,0H316c0.9,0,1.6-0.7,1.6-1.6v-22.4c0-0.8-0.6-1.5-1.5-1.5H316L310.8,287.3z M287.9,282.2
		c-0.9,0-1.6,0.8-1.7,1.7v11.9c0,0.9,0.7,1.7,1.6,1.7c0,0,0,0,0.1,0h6c2.7,0,6.5-0.6,7.5-5.4c0,0,1-4.9,1.6-7.7
		c0.2-0.9-0.4-1.8-1.3-2c-0.1,0-0.3,0-0.4,0L287.9,282.2z"/>
</g>
</svg>
