<?xml version="1.0" encoding="utf-8"?>
<!-- Generator: Adobe Illustrator 25.2.1, SVG Export Plug-In . SVG Version: 6.00 Build 0)  -->
<svg version="1.1" id="Label" fill="currentColor" xmlns="http://www.w3.org/2000/svg" xmlns:xlink="http://www.w3.org/1999/xlink" x="0px" y="0px"
	 viewBox="0 0 24 24" style="enable-background:new 0 0 24 24;" xml:space="preserve">
<g id="Group" transform="translate(-0.001 0)">
	<path id="Combined_Shape" d="M11.1,21.6c-0.8,0-1.6-0.3-2.1-0.9L3.3,15c-1.2-1.2-1.2-3.1,0-4.2c0,0,0,0,0,0l7.5-7.5
		c0.6-0.6,1.3-0.9,2.1-0.9c0.1,0,0.2,0,0.2,0l5.3,0.4c1.5,0.1,2.7,1.3,2.8,2.8l0.4,5.3c0.1,0.9-0.2,1.7-0.9,2.4l-7.5,7.5
		C12.6,21.3,11.9,21.6,11.1,21.6z M12.9,3.9c-0.4,0-0.8,0.2-1.1,0.4l-7.5,7.5c-0.6,0.6-0.6,1.5,0,2.1l5.7,5.7c0.6,0.6,1.5,0.6,2.1,0
		l7.5-7.5c0.3-0.3,0.5-0.7,0.4-1.2l-0.4-5.3C19.6,5,19,4.4,18.3,4.3l-5.3-0.4C13,3.9,13,3.9,12.9,3.9z"/>
	<path id="Ellipse_140" d="M14.6,9.4c0.6,0.6,1.5,0.6,2.1,0c0.6-0.6,0.6-1.5,0-2.1c-0.6-0.6-1.5-0.6-2.1,0c0,0,0,0,0,0
		C14,7.9,14,8.8,14.6,9.4z"/>
	<path id="Vector_566_Stroke_" d="M10.5,16.3c0.3,0.3,0.8,0.3,1.1,0c0.3-0.3,0.3-0.8,0-1.1l0,0l-2.8-2.8c-0.3-0.3-0.8-0.3-1.1,0
		c-0.3,0.3-0.3,0.7,0,1L10.5,16.3z"/>
</g>
</svg>
