<?xml version="1.0" encoding="utf-8"?>
<!-- Generator: Adobe Illustrator 25.2.1, SVG Export Plug-In . SVG Version: 6.00 Build 0)  -->
<svg version="1.1" id="LicencingInformation" fill="currentColor" xmlns="http://www.w3.org/2000/svg" xmlns:xlink="http://www.w3.org/1999/xlink" x="0px" y="0px"
	 viewBox="0 0 24 24" style="enable-background:new 0 0 24 24;" xml:space="preserve">
<g id="Group" transform="translate(2 2)">
	<path id="Combined_Shape" d="M10,20C4.5,20,0,15.5,0,10S4.5,0,10,0s10,4.5,10,10C20,15.5,15.5,20,10,20z M10,1.5
		c-4.7,0-8.5,3.8-8.5,8.5s3.8,8.5,8.5,8.5s8.5-3.8,8.5-8.5C18.5,5.3,14.7,1.5,10,1.5z"/>
	<path id="Ellipse_190" d="M10,17c-0.6,0-1-0.4-1-1c0-0.6,0.4-1,1-1c0.6,0,1,0.4,1,1C11,16.6,10.6,17,10,17z"/>
	<path id="Ellipse_191_Stroke_" d="M7.9,7.2C7.7,7.6,7.3,7.9,6.9,7.7C6.5,7.6,6.3,7.2,6.5,6.8c0,0,0,0,0,0c0.7-2,2.8-3,4.8-2.3
		s3,2.8,2.3,4.8c-0.4,1.2-1.5,2.2-2.8,2.4V13c0,0.4-0.3,0.8-0.8,0.8S9.2,13.4,9.2,13v-2c0-0.4,0.3-0.8,0.8-0.8c1.2,0,2.2-1,2.2-2.3
		c0-1.2-1-2.2-2.3-2.2C9,5.8,8.2,6.4,7.9,7.2z"/>
</g>
</svg>
