<?xml version="1.0" encoding="utf-8"?>
<!-- Generator: Adobe Illustrator 25.2.1, SVG Export Plug-In . SVG Version: 6.00 Build 0)  -->
<svg version="1.1" id="LifecyclePermission" fill="currentColor" xmlns="http://www.w3.org/2000/svg" xmlns:xlink="http://www.w3.org/1999/xlink" x="0px" y="0px"
	 viewBox="0 0 24 24" style="enable-background:new 0 0 24 24;" xml:space="preserve">
<path id="Union" d="M15,3c-0.3,0.3-0.3,0.8,0,1.1c0,0,0,0,0,0l1.2,1.2H10c-3.7,0-6.7,3-6.7,6.7v1c0,0.4,0.3,0.8,0.8,0.8
	s0.8-0.3,0.8-0.8v-1c0-2.9,2.4-5.2,5.2-5.2h6.2L15,8c-0.3,0.3-0.3,0.8,0,1.1c0.3,0.3,0.7,0.3,1,0l2.1-2.1c0.5-0.5,0.5-1.3,0-1.8
	c0,0,0,0,0,0L16,3C15.7,2.7,15.3,2.7,15,3z"/>
<path id="Union-2" d="M20.7,12v-1c0-0.4-0.3-0.8-0.8-0.8s-0.8,0.3-0.8,0.8v1c0,2.9-2.4,5.2-5.2,5.2H7.8L9,16c0.3-0.3,0.3-0.8,0-1.1
	c-0.3-0.3-0.8-0.3-1,0l-2.1,2.1c-0.5,0.5-0.5,1.3,0,1.8c0,0,0,0,0,0L8,21c0.3,0.3,0.8,0.3,1.1,0c0.3-0.3,0.3-0.8,0-1.1l-1.2-1.2H14
	C17.7,18.8,20.7,15.7,20.7,12z"/>
</svg>
