<?xml version="1.0" encoding="utf-8"?>
<!-- Generator: Adobe Illustrator 26.4.0, SVG Export Plug-In . SVG Version: 6.00 Build 0)  -->
<svg version="1.1" id="Lock" fill="currentColor" xmlns="http://www.w3.org/2000/svg" xmlns:xlink="http://www.w3.org/1999/xlink" x="0px" y="0px"
	 viewBox="0 0 24 24" style="enable-background:new 0 0 24 24;" xml:space="preserve">
<g id="Regular_1.5px_lock">
	<g id="Group" transform="translate(4 2.25)">
		<path id="Combined_Shape" d="M13,19.8H3c-1.7,0-3-1.3-3-3v-8c0-1.7,1.3-3,3-3h0.2v-1C3.2,2.1,5.4,0,8,0s4.8,2.1,4.8,4.8v1H13
			c1.7,0,3,1.3,3,3v8C16,18.4,14.7,19.8,13,19.8z M3,7.2c-0.8,0-1.5,0.7-1.5,1.5v8c0,0.8,0.7,1.5,1.5,1.5h10c0.8,0,1.5-0.7,1.5-1.5
			v-8c0-0.8-0.7-1.5-1.5-1.5C13,7.2,3,7.2,3,7.2z M8,1.5C6.2,1.5,4.8,3,4.8,4.8v1h6.5v-1C11.2,3,9.8,1.5,8,1.5z"/>
	</g>
</g>
</svg>
