<?xml version="1.0" encoding="utf-8"?>
<!-- Generator: Adobe Illustrator 25.2.1, SVG Export Plug-In . SVG Version: 6.00 Build 0)  -->
<svg version="1.1" id="Mail" fill="currentColor" xmlns="http://www.w3.org/2000/svg" xmlns:xlink="http://www.w3.org/1999/xlink" x="0px" y="0px"
	 viewBox="0 0 24 24" style="enable-background:new 0 0 24 24;" xml:space="preserve">
<path id="Shape" d="M19,20H5c-1.7,0-3-1.3-3-3V7c0-1.7,1.3-3,3-3h14c1.7,0,3,1.3,3,3v10C22,18.7,20.7,20,19,20z M3.5,8.2V17
	c0,0.8,0.7,1.5,1.5,1.5h14c0.8,0,1.5-0.7,1.5-1.5V8.2l-7,4.7c-0.9,0.6-2.1,0.6-3.1,0L3.5,8.2z M5,5.5c-0.6,0-1.1,0.3-1.4,0.9
	L3.6,6.5l7.7,5.1c0.4,0.2,0.9,0.3,1.3,0.1l0.1-0.1l7.7-5.1c-0.2-0.5-0.7-0.9-1.3-1l-0.1,0H5z"/>
</svg>
