<?xml version="1.0" encoding="utf-8"?>
<!-- Generator: Adobe Illustrator 24.3.0, SVG Export Plug-In . SVG Version: 6.00 Build 0)  -->
<svg version="1.1" id="ManageRequest" fill="currentColor" xmlns="http://www.w3.org/2000/svg" xmlns:xlink="http://www.w3.org/1999/xlink" x="0px" y="0px"
	 viewBox="0 0 32 34.6" style="enable-background:new 0 0 32 34.6;" xml:space="preserve">
<style type="text/css">
	.st0{fill:none;}
</style>
<path id="Soustraction_13" class="st0" d="M1.4,30.8c-0.2,0-0.4-0.1-0.6-0.3c-0.3-0.4-0.5-0.9-0.5-1.4V16.3c0-0.1,0-0.2,0.1-0.4V8.4
	c0-2.5,2.1-4.6,4.6-4.6h22c2.5,0,4.6,2.1,4.6,4.6v13.1c0,2.5-2.1,4.6-4.6,4.6H8.2l-6.5,4.6C1.7,30.8,1.5,30.8,1.4,30.8z M13.5,19.8
	L13.5,19.8c0.3,0.1,0.6,0.3,0.9,0.4l0.3,1.8c0,0.1,0,0.2,0.1,0.2c0.1,0.1,0.1,0.1,0.2,0.1h2.2c0.2,0,0.3-0.1,0.3-0.3
	c0.1-0.6,0.2-1.2,0.3-1.8c0.3-0.1,0.6-0.2,0.9-0.4l1.3,1c0.1,0.1,0.2,0.1,0.2,0.1c0.1,0,0.4-0.2,0.9-0.7c0.3-0.3,0.7-0.7,1-1
	c0.1-0.1,0.1-0.1,0.1-0.2c0-0.1,0-0.2-0.1-0.2c-0.4-0.5-0.8-1-1-1.3c0.1-0.3,0.3-0.6,0.4-0.9l1.8-0.3c0.1,0,0.1-0.1,0.2-0.1
	c0.1-0.1,0.1-0.1,0.1-0.2v-2.1c0-0.1,0-0.2-0.1-0.2c0-0.1-0.1-0.1-0.2-0.1l-1.8-0.3c-0.1-0.3-0.2-0.6-0.4-0.9
	c0.1-0.2,0.3-0.4,0.5-0.7c0.2-0.3,0.4-0.5,0.5-0.6c0-0.1,0.1-0.1,0.1-0.2c0-0.1,0-0.2-0.1-0.2c-0.5-0.6-1-1.1-1.6-1.6
	c-0.1-0.1-0.2-0.1-0.2-0.1h0c-0.1,0-0.2,0-0.2,0.1l-1.4,1c-0.3-0.1-0.6-0.3-0.9-0.4l-0.3-1.8c0-0.1,0-0.2-0.1-0.2
	c-0.1-0.1-0.1-0.1-0.2-0.1H15c-0.2,0-0.3,0.1-0.3,0.3c-0.1,0.6-0.2,1.2-0.3,1.8c-0.3,0.1-0.6,0.2-0.9,0.4l-1.3-1
	c-0.1-0.1-0.2-0.1-0.2-0.1c-0.1,0-0.4,0.2-0.9,0.7c-0.3,0.3-0.7,0.7-0.9,1c0,0.1-0.1,0.1-0.1,0.2c0,0.1,0,0.2,0.1,0.2
	c0.5,0.6,0.8,1,1,1.3c-0.2,0.3-0.3,0.6-0.4,0.9l-1.8,0.3c-0.1,0-0.1,0.1-0.2,0.1c0,0.1-0.1,0.1-0.1,0.2v2.1c0,0.1,0,0.2,0.1,0.2
	c0.1,0.1,0.1,0.1,0.2,0.1l1.8,0.3c0.1,0.3,0.2,0.7,0.4,1c-0.1,0.1-0.2,0.2-0.3,0.4L10.7,18l-0.1,0.1c-0.3,0.3-0.4,0.5-0.5,0.6
	c0,0.1-0.1,0.1-0.1,0.2c0,0.1,0,0.2,0.1,0.2c0.5,0.6,1,1.1,1.6,1.6c0.1,0.1,0.1,0.1,0.2,0.1h0c0.1,0,0.2,0,0.2-0.1L13.5,19.8
	L13.5,19.8z M16.1,17.3L16.1,17.3c-1.4,0-2.5-1.1-2.5-2.5c0-1.4,1.1-2.5,2.5-2.5c1.4,0,2.5,1.1,2.5,2.5c0,0,0,0,0,0
	C18.5,16.2,17.4,17.3,16.1,17.3L16.1,17.3z"/>
</svg>
