<?xml version="1.0" encoding="utf-8"?>
<!-- Generator: Adobe Illustrator 26.5.0, SVG Export Plug-In . SVG Version: 6.00 Build 0)  -->
<svg version="1.1" id="MDM" fill="currentColor" xmlns="http://www.w3.org/2000/svg" xmlns:xlink="http://www.w3.org/1999/xlink" x="0px" y="0px"
	 viewBox="0 0 24 24" style="enable-background:new 0 0 24 24;" xml:space="preserve">
<path id="Combined_Shape" d="M16,22H8c-1.7,0-3-1.3-3-3V5c0-1.7,1.3-3,3-3h8c1.7,0,3,1.3,3,3v14C19,20.7,17.7,22,16,22z M8,3.5
	C7.2,3.5,6.5,4.2,6.5,5v14c0,0.8,0.7,1.5,1.5,1.5h8c0.8,0,1.5-0.7,1.5-1.5V5c0-0.8-0.7-1.5-1.5-1.5h-0.8c0,0.7-0.6,1.2-1.2,1.2h-4
	c-0.7,0-1.2-0.6-1.2-1.2H8z"/>
</svg>
