<?xml version="1.0" encoding="utf-8"?>
<!-- Generator: Adobe Illustrator 25.2.1, SVG Export Plug-In . SVG Version: 6.00 Build 0)  -->
<svg version="1.1" id="Members" fill="currentColor" xmlns="http://www.w3.org/2000/svg" xmlns:xlink="http://www.w3.org/1999/xlink" x="0px" y="0px"
	 viewBox="0 0 24 24" style="enable-background:new 0 0 24 24;" xml:space="preserve">
<g id="Group" transform="translate(3 6)">
	<path id="Vector_567_Stroke_" d="M5.1,0.2h12c0.4,0,0.8,0.3,0.8,0.8s-0.3,0.8-0.8,0.8h-12C4.7,1.8,4.4,1.4,4.4,1S4.7,0.2,5.1,0.2z"
		/>
	<path id="Vector_568_Stroke_" d="M5.1,5.2h12c0.4,0,0.8,0.3,0.8,0.8s-0.3,0.8-0.8,0.8h-12C4.7,6.8,4.4,6.4,4.4,6S4.7,5.2,5.1,5.2z"
		/>
	<path id="Vector_569_Stroke_" d="M5.1,10.2h12c0.4,0,0.8,0.3,0.8,0.8s-0.3,0.8-0.8,0.8h-12c-0.4,0-0.8-0.3-0.8-0.8
		S4.7,10.2,5.1,10.2z"/>
	<path id="Ellipse_180" d="M1.1,2c-0.6,0-1-0.4-1-1s0.4-1,1-1s1,0.4,1,1S1.7,2,1.1,2z"/>
	<path id="Ellipse_181" d="M1.1,7c-0.6,0-1-0.4-1-1s0.4-1,1-1s1,0.4,1,1S1.7,7,1.1,7z"/>
	<path id="Ellipse_182" d="M1.1,12c-0.6,0-1-0.4-1-1c0-0.6,0.4-1,1-1s1,0.4,1,1C2.1,11.6,1.7,12,1.1,12z"/>
</g>
</svg>
