<?xml version="1.0" encoding="utf-8"?>
<!-- Generator: Adobe Illustrator 25.2.1, SVG Export Plug-In . SVG Version: 6.00 Build 0)  -->
<svg version="1.1" id="Messaging" fill="currentColor" xmlns="http://www.w3.org/2000/svg" xmlns:xlink="http://www.w3.org/1999/xlink" x="0px" y="0px"
	 viewBox="0 0 24 24" style="enable-background:new 0 0 24 24;" xml:space="preserve">
<g id="Group" transform="translate(0 0)">
	<path id="Subtract" d="M16.8,5.5l2.9-1.9c0.2-0.2,0.5-0.1,0.7,0.1c0.1,0.1,0.1,0.2,0.1,0.3v9.3c0,0.8-0.7,1.5-1.5,1.5h-1v1.5h1
		c1.7,0,3-1.3,3-3V3.9c0-1.1-0.9-2-2-2c-0.4,0-0.8,0.1-1.1,0.3L16,4.2H9c-1.7,0-3,1.3-3,3v1h1.5v-1c0-0.8,0.7-1.5,1.5-1.5h7
		C16.3,5.7,16.6,5.6,16.8,5.5z"/>
	<path id="Combined_Shape" d="M4,22.1c-1.1,0-2-0.9-2-2v-8.8c0-1.7,1.3-3,3-3h10c1.7,0,3,1.3,3,3v6c0,1.7-1.3,3-3,3H7l-1.8,1.4
		C4.9,21.9,4.5,22.1,4,22.1z M5,9.7c-0.8,0-1.5,0.7-1.5,1.5V20c0,0.3,0.2,0.5,0.5,0.5c0.1,0,0.2,0,0.3-0.1L6.1,19
		c0.3-0.2,0.6-0.3,0.9-0.3h8c0.8,0,1.5-0.7,1.5-1.5v-6c0-0.8-0.7-1.5-1.5-1.5H5z"/>
	<path id="Vector_409_Stroke_" d="M7,13.5h6c0.4,0,0.8,0.3,0.8,0.8c0,0.4-0.3,0.8-0.8,0.8H7c-0.4,0-0.8-0.3-0.8-0.8
		C6.2,13.8,6.6,13.5,7,13.5z"/>
</g>
</svg>
