<?xml version="1.0" encoding="utf-8"?>
<!-- Generator: Adobe Illustrator 25.2.1, SVG Export Plug-In . SVG Version: 6.00 Build 0)  -->
<svg version="1.1" id="Migrate" fill="currentColor" xmlns="http://www.w3.org/2000/svg" xmlns:xlink="http://www.w3.org/1999/xlink" x="0px" y="0px"
	 viewBox="0 0 24 24" style="enable-background:new 0 0 24 24;" xml:space="preserve">
<g id="Regular_1.5px_arrow_up_down" transform="translate(0 24) rotate(-90)">
	<g id="Group" transform="translate(2.25 4.164)">
		<path id="Union" d="M0.2,4.9c-0.3-0.3-0.3-0.8,0-1.1c0,0,0,0,0,0l3.3-3.3c0.7-0.7,1.8-0.7,2.5,0c0,0,0,0,0,0l3.3,3.3
			c0.3,0.3,0.3,0.8,0,1.1c-0.3,0.3-0.8,0.3-1,0L5.5,2.1v12.7c0,0.4-0.3,0.8-0.8,0.8S4,15.3,4,14.8V2.1L1.3,4.9
			C1,5.2,0.5,5.2,0.2,4.9z"/>
		<path id="Union-2" d="M14.8,0.1c-0.4,0-0.8,0.3-0.8,0.8v12.7l-2.7-2.7c-0.3-0.3-0.8-0.3-1.1,0c-0.3,0.3-0.3,0.7,0,1l3.3,3.3
			c0.7,0.7,1.8,0.7,2.5,0c0,0,0,0,0,0l3.3-3.3c0.3-0.3,0.3-0.8,0-1.1c-0.3-0.3-0.7-0.3-1,0l-2.7,2.7V0.8C15.5,0.4,15.2,0.1,14.8,0.1
			z"/>
	</g>
</g>
</svg>
