<?xml version="1.0" encoding="utf-8"?>
<!-- Generator: Adobe Illustrator 24.3.0, SVG Export Plug-In . SVG Version: 6.00 Build 0)  -->
<svg version="1.1" id="MobileConfigSigner" fill="currentColor" xmlns="http://www.w3.org/2000/svg" xmlns:xlink="http://www.w3.org/1999/xlink" x="0px" y="0px"
	 viewBox="0 0 32 34.6" style="enable-background:new 0 0 32 34.6;" xml:space="preserve">
<style type="text/css">
	.st0{fill:none;}
</style>
<g id="cell-phone" transform="translate(-5.951)">
	<path id="Tracé_320" class="st0" d="M28.5,1.8h-13c-1.2,0-2.3,1-2.3,2.3c0,0,0,0,0,0v26.5c0,1.2,1,2.3,2.3,2.3c0,0,0,0,0,0h13
		c1.2,0,2.3-1,2.3-2.3V4.1C30.7,2.8,29.7,1.8,28.5,1.8z M19.1,3.3h5.6c0.2,0,0.7,0.1,0.7,0.4s-0.6,0.4-0.7,0.4h-5.6
		c-0.2,0-0.7-0.1-0.7-0.4S18.9,3.3,19.1,3.3z M29,29.3H14.8l0.1-24.4H29L29,29.3L29,29.3z"/>
</g>
</svg>
