<?xml version="1.0" encoding="utf-8"?>
<!-- Generator: Adobe Illustrator 25.2.1, SVG Export Plug-In . SVG Version: 6.00 Build 0)  -->
<svg version="1.1" id="Module" fill="currentColor" xmlns="http://www.w3.org/2000/svg" xmlns:xlink="http://www.w3.org/1999/xlink" x="0px" y="0px"
	 viewBox="0 0 24 24" style="enable-background:new 0 0 24 24;" xml:space="preserve">
<g id="Group" transform="translate(0 0)">
	<path id="Combined_Shape" d="M12,21.8c-5.5,0-10-4.5-10-10s4.5-10,10-10s10,4.5,10,10C22,17.3,17.5,21.8,12,21.8z M12,3.3
		c-4.7,0-8.5,3.8-8.5,8.5s3.8,8.5,8.5,8.5s8.5-3.8,8.5-8.5C20.5,7.1,16.7,3.3,12,3.3z"/>
</g>
<path id="Tracé_115" d="M12.9,6.8c1,0,1.9,0.3,2.6,1c0.7,0.7,1.1,1.7,1,2.6c0,1-0.3,1.9-1,2.6c-0.7,0.7-1.6,1.1-2.6,1h-2.1v3.2H9.1
	V6.8H12.9z M12.8,12.6c0.5,0,1.1-0.2,1.4-0.6c0.4-0.4,0.6-1,0.6-1.5c0-0.6-0.2-1.1-0.6-1.5c-0.4-0.4-0.9-0.6-1.4-0.6h-2v4.3H12.8z"
	/>
</svg>
