<?xml version="1.0" encoding="utf-8"?>
<!-- Generator: Adobe Illustrator 25.2.1, SVG Export Plug-In . SVG Version: 6.00 Build 0)  -->
<svg version="1.1" id="Notification" fill="currentColor" xmlns="http://www.w3.org/2000/svg" xmlns:xlink="http://www.w3.org/1999/xlink" x="0px" y="0px"
	 viewBox="0 0 24 24" style="enable-background:new 0 0 24 24;" xml:space="preserve">
<path id="Shape" d="M12,22.1c-2.1,0-3.9-1.7-4-3.8v-0.2H3.4c-0.8,0-1.4-0.6-1.4-1.4c0-0.3,0.1-0.7,0.3-0.9l0.1-0.1l1-1
	c0.3-0.3,0.6-0.8,0.6-1.3l0-0.2l0-3.2C4,5.7,7.5,2,11.9,1.9s8,3.4,8.1,7.8V10v3.2c0,0.5,0.2,0.9,0.5,1.3l0.1,0.1l1,1
	c0.3,0.3,0.4,0.6,0.4,1c0,0.7-0.6,1.3-1.3,1.4l-0.1,0H16C16,20.3,14.2,22.1,12,22.1z M9.5,18.1c0,1.4,1.1,2.5,2.5,2.5
	s2.5-1.1,2.5-2.5H9.5z M12,3.6c-3.5,0-6.4,2.8-6.5,6.3V10l0,3.2c0,0.9-0.3,1.7-0.9,2.4l-0.2,0.2l-0.9,0.8h16.7l-0.9-0.9
	c-0.6-0.6-1-1.4-1-2.3l0-0.2V10C18.5,6.5,15.6,3.6,12,3.6z"/>
</svg>
