<?xml version="1.0" encoding="utf-8"?>
<!-- Generator: Adobe Illustrator 26.5.0, SVG Export Plug-In . SVG Version: 6.00 Build 0)  -->
<svg version="1.1" id="Ownership" fill="currentColor" xmlns="http://www.w3.org/2000/svg" xmlns:xlink="http://www.w3.org/1999/xlink" x="0px" y="0px"
	 viewBox="0 0 24 24" style="enable-background:new 0 0 24 24;" xml:space="preserve">
<g id="user-settings" transform="translate(-1492 -1436)">
	<path id="user-settings-2" d="M1502,1446.8c2.3,0,4.2-1.9,4.2-4.2s-1.9-4.2-4.2-4.2s-4.2,1.9-4.2,4.2
		C1497.8,1444.8,1499.7,1446.7,1502,1446.8z M1502,1439.8c1.5,0,2.8,1.2,2.8,2.8s-1.2,2.8-2.8,2.8s-2.8-1.2-2.8-2.8
		C1499.3,1441,1500.5,1439.8,1502,1439.8z M1504.9,1449.8c-0.3,0-0.6-0.1-0.9-0.1h-4c-2.2-0.2-4.1,1.5-4.3,3.6c0,0.2,0,0.4,0,0.6
		c0,1.6,0.7,2.2,2.2,2.2h5c0.4,0,0.8,0.3,0.8,0.8s-0.3,0.8-0.8,0.8h-5c-2.4,0-3.8-1.3-3.8-3.7c0-2.7,1.5-5.8,5.8-5.8h4
		c0.4,0,0.7,0,1.1,0.1c0.4,0.1,0.7,0.4,0.6,0.9c0,0,0,0,0,0C1505.7,1449.6,1505.3,1449.9,1504.9,1449.8z M1514.2,1453.5l0.1-0.1
		c0.4-0.2,0.5-0.7,0.3-1c0,0,0,0,0,0l-0.9-1.5c-0.2-0.3-0.7-0.5-1-0.3l-0.1,0.1c-0.2,0.1-0.4,0.1-0.6,0c-0.2-0.1-0.3-0.3-0.3-0.5
		c0-0.5-0.4-0.9-0.9-0.9c0,0,0,0,0,0h-1.5c-0.5,0-0.9,0.4-0.9,0.9l0,0c0,0.2-0.1,0.4-0.3,0.5c-0.2,0.1-0.4,0.1-0.6,0
		c-0.4-0.2-1-0.1-1.2,0.3l-0.8,1.3c-0.3,0.4-0.1,1,0.3,1.2c0,0,0,0,0,0l0,0c0.3,0.2,0.4,0.5,0.2,0.8c-0.1,0.1-0.1,0.2-0.2,0.2
		c-0.2,0.1-0.4,0.3-0.4,0.6c-0.1,0.2,0,0.5,0.1,0.7l0.8,1.3c0.3,0.4,0.8,0.6,1.2,0.3c0.2-0.1,0.4-0.1,0.6,0c0.2,0.1,0.3,0.3,0.3,0.5
		c0,0.5,0.4,0.9,0.9,0.9l0,0h1.5c0.5,0,0.9-0.4,0.9-0.9l0,0c0-0.2,0.1-0.4,0.3-0.5c0.2-0.1,0.4-0.1,0.6,0c0.4,0.2,1,0.1,1.2-0.3
		l0.8-1.3c0.2-0.4,0.1-1-0.3-1.2c0,0,0,0,0,0l0,0c-0.3-0.2-0.4-0.5-0.2-0.8C1514.1,1453.6,1514.1,1453.5,1514.2,1453.5
		L1514.2,1453.5z M1513,1455.4l-0.2,0.4c-0.5-0.1-1.1,0-1.6,0.2c-0.5,0.3-0.8,0.7-1,1.2h-0.5c-0.2-0.5-0.5-0.9-1-1.2
		c-0.5-0.3-1-0.3-1.6-0.2l-0.2-0.4c0.8-0.8,0.8-2.1,0-2.9l0.2-0.4c0.5,0.1,1.1,0.1,1.6-0.2c0.5-0.3,0.8-0.7,1-1.2h0.5
		c0.2,0.5,0.5,0.9,1,1.2c0.5,0.3,1,0.3,1.6,0.2l0.2,0.4C1512.2,1453.4,1512.2,1454.6,1513,1455.4L1513,1455.4z M1511,1454
		c0,0.6-0.4,1-1,1c-0.6,0-1-0.4-1-1c0-0.5,0.4-1,1-1h0C1510.6,1453,1511,1453.4,1511,1454z"/>
</g>
</svg>
