<?xml version="1.0" encoding="utf-8"?>
<!-- Generator: Adobe Illustrator 25.2.1, SVG Export Plug-In . SVG Version: 6.00 Build 0)  -->
<svg version="1.1" id="Permission" fill="currentColor" xmlns="http://www.w3.org/2000/svg" xmlns:xlink="http://www.w3.org/1999/xlink" x="0px" y="0px"
	 viewBox="0 0 24 24" style="enable-background:new 0 0 24 24;" xml:space="preserve">
<path id="Soustraction_1" d="M17,21.9H7c-1.7,0-3-1.3-3-3v-8c0-1.7,1.3-3,3-3h8.2v-1c0-1.8-1.5-3.2-3.2-3.2c-1.4,0-2.7,0.9-3.1,2.2
	H7.4C7.8,3.7,9.8,2.1,12,2.1c2.6,0,4.7,2.1,4.8,4.8v1H17c1.7,0,3,1.3,3,3v8C20,20.5,18.7,21.9,17,21.9z M7,9.4
	c-0.8,0-1.5,0.7-1.5,1.5v8c0,0.8,0.7,1.5,1.5,1.5h10c0.8,0,1.5-0.7,1.5-1.5v-8c0-0.8-0.7-1.5-1.5-1.5H7z"/>
</svg>
