<?xml version="1.0" encoding="utf-8"?>
<!-- Generator: Adobe Illustrator 25.2.1, SVG Export Plug-In . SVG Version: 6.00 Build 0)  -->
<svg version="1.1" id="Profile" fill="currentColor" xmlns="http://www.w3.org/2000/svg" xmlns:xlink="http://www.w3.org/1999/xlink" x="0px" y="0px"
	 viewBox="0 0 24 24" style="enable-background:new 0 0 24 24;" xml:space="preserve">
<g id="Group" transform="translate(0 0)">
	<path id="Combined_Shape" d="M18,22H6c-1.7,0-3-1.3-3-3V5c0-1.7,1.3-3,3-3h9.8c0.3,0,0.5,0,0.7,0.1c0,0,0.1,0,0.1,0
		c0.5,0.1,0.9,0.4,1.2,0.7l2.2,2.2c0.4,0.4,0.7,0.9,0.8,1.4v0C21,6.8,21,7,21,7.2V19C21,20.7,19.7,22,18,22z M6,3.5
		C5.2,3.5,4.5,4.2,4.5,5v14c0,0.8,0.7,1.5,1.5,1.5h12c0.8,0,1.5-0.7,1.5-1.5V8H18c-1.7,0-3-1.3-3-3V3.5H6z M16.5,3.7V5
		c0,0.8,0.7,1.5,1.5,1.5h1.3c-0.1-0.1-0.1-0.2-0.2-0.3l-2.2-2.2C16.7,3.9,16.6,3.8,16.5,3.7L16.5,3.7z"/>
	<path id="Vector_492_Stroke_" d="M8,10.2h8c0.4,0,0.8,0.3,0.8,0.8s-0.3,0.8-0.8,0.8H8c-0.4,0-0.8-0.3-0.8-0.8S7.6,10.2,8,10.2z"/>
	<path id="Vector_493_Stroke_" d="M8,14.2h4c0.4,0,0.8,0.3,0.8,0.8s-0.3,0.8-0.8,0.8H8c-0.4,0-0.8-0.3-0.8-0.8S7.6,14.2,8,14.2z"/>
</g>
</svg>
