<?xml version="1.0" encoding="utf-8"?>
<!-- Generator: Adobe Illustrator 25.2.1, SVG Export Plug-In . SVG Version: 6.00 Build 0)  -->
<svg version="1.1" id="Proxy" fill="currentColor" xmlns="http://www.w3.org/2000/svg" xmlns:xlink="http://www.w3.org/1999/xlink" x="0px" y="0px"
	 viewBox="0 0 24 24" style="enable-background:new 0 0 24 24;" xml:space="preserve">
<path id="Combined_Shape" d="M12,21.8c-5.4,0-9.8-4.4-9.8-9.8S6.6,2.2,12,2.2s9.8,4.4,9.8,9.8C21.7,17.4,17.4,21.7,12,21.8z
	 M9.1,15.8c0.2,0.8,0.4,1.6,0.7,2.3c0.3,0.6,0.6,1.2,1.1,1.7c0.3,0.3,0.6,0.5,1,0.5c0.4,0,0.8-0.2,1-0.5c0.5-0.5,0.8-1.1,1.1-1.7
	c0.3-0.7,0.6-1.5,0.7-2.3H9.1z M16.4,15.8c-0.2,1-0.5,2-0.9,2.9c-0.2,0.4-0.3,0.7-0.5,1c1.9-0.7,3.4-2.1,4.4-3.9H16.4z M4.7,15.8
	L4.7,15.8C5.6,17.6,7.1,19,9,19.7c-0.2-0.3-0.4-0.7-0.5-1c-0.4-0.9-0.7-1.9-0.9-2.9H4.7z M16.6,9.8c0.1,0.7,0.1,1.5,0.1,2.2
	c0,0.8,0,1.5-0.1,2.2h3.3c0.4-1.5,0.4-3,0-4.5H16.6L16.6,9.8z M8.9,9.8c-0.2,1.5-0.2,3,0,4.5h6.2c0.1-0.7,0.1-1.5,0.1-2.2
	c0-0.8,0-1.5-0.1-2.2H8.9L8.9,9.8z M4.1,9.8c-0.4,1.5-0.4,3,0,4.5h3.3c-0.2-1.5-0.2-3,0-4.5H4.1L4.1,9.8z M15,4.3
	c0.2,0.3,0.4,0.7,0.5,1c0.4,0.9,0.7,1.9,0.9,2.9h2.9C18.4,6.4,16.9,5,15,4.3z M12,3.8c-0.4,0-0.8,0.2-1,0.5
	c-0.5,0.5-0.8,1.1-1.1,1.7C9.5,6.7,9.3,7.5,9.1,8.2h5.7c-0.2-0.8-0.4-1.6-0.7-2.3c-0.3-0.6-0.6-1.2-1.1-1.7C12.8,4,12.4,3.8,12,3.8z
	 M9,4.3C7.1,5,5.6,6.4,4.7,8.2h2.9c0.2-1,0.5-2,0.9-2.9C8.6,5,8.8,4.6,9,4.3L9,4.3z"/>
</svg>
