<?xml version="1.0" encoding="utf-8"?>
<!-- Generator: Adobe Illustrator 25.2.1, SVG Export Plug-In . SVG Version: 6.00 Build 0)  -->
<svg version="1.1" id="Queue" fill="currentColor" xmlns="http://www.w3.org/2000/svg" xmlns:xlink="http://www.w3.org/1999/xlink" x="0px" y="0px"
	 viewBox="0 0 24 24" style="enable-background:new 0 0 24 24;" xml:space="preserve">
<g id="Regular_1.5px_justify" transform="translate(0 24) rotate(-90)">
	<g id="Group" transform="translate(3.25 5.25)">
		<path id="Vector_605_Stroke_" d="M0.8,0h16c0.4,0,0.8,0.3,0.8,0.8s-0.3,0.8-0.8,0.8h-16C0.3,1.5,0,1.2,0,0.8S0.3,0,0.8,0z"/>
		<path id="Vector_606_Stroke_" d="M0.8,4h16c0.4,0,0.8,0.3,0.8,0.8s-0.3,0.8-0.8,0.8h-16C0.3,5.5,0,5.2,0,4.8S0.3,4,0.8,4z"/>
		<path id="Vector_607_Stroke_" d="M0.8,8h16c0.4,0,0.8,0.3,0.8,0.8s-0.3,0.8-0.8,0.8h-16C0.3,9.5,0,9.2,0,8.8S0.3,8,0.8,8z"/>
		<path id="Vector_608_Stroke_" d="M0.8,12h16c0.4,0,0.8,0.3,0.8,0.8s-0.3,0.8-0.8,0.8h-16c-0.4,0-0.8-0.3-0.8-0.8S0.3,12,0.8,12z"
			/>
	</g>
</g>
</svg>
