<?xml version="1.0" encoding="utf-8"?>
<!-- Generator: Adobe Illustrator 24.3.0, SVG Export Plug-In . SVG Version: 6.00 Build 0)  -->
<svg version="1.1" id="Recovery" fill="currentColor" xmlns="http://www.w3.org/2000/svg" xmlns:xlink="http://www.w3.org/1999/xlink" x="0px" y="0px"
	 viewBox="0 0 32 34.6" style="enable-background:new 0 0 32 34.6;" xml:space="preserve">
<style type="text/css">
	.st0{fill:none;}
</style>
<path class="st0" d="M15.8,1.8L15.8,1.8c-0.1,0-0.1,0-0.1,0c-4,0-7.9,1.6-10.8,4.4L1.7,3C1.5,2.8,1.1,2.8,0.9,3
	C0.8,3.1,0.8,3.2,0.8,3.3v10.5c0,0.3,0.2,0.5,0.5,0.5h10.4c0.3,0,0.5-0.2,0.5-0.5c0-0.2-0.1-0.4-0.3-0.5l-3.1-3.2
	c3.9-3.8,10.2-3.7,14,0.3s3.7,10.2-0.3,14c-1.9,1.8-4.4,2.8-6.9,2.8l0,5.6h0.1c8.6,0,15.5-6.9,15.6-15.4C31.3,8.8,24.3,1.8,15.8,1.8
	z"/>
</svg>
