<?xml version="1.0" encoding="utf-8"?>
<!-- Generator: Adobe Illustrator 25.2.1, SVG Export Plug-In . SVG Version: 6.00 Build 0)  -->
<svg version="1.1" id="Recover" fill="currentColor" xmlns="http://www.w3.org/2000/svg" xmlns:xlink="http://www.w3.org/1999/xlink" x="0px" y="0px"
	 viewBox="0 0 24 24" style="enable-background:new 0 0 24 24;" xml:space="preserve">
<path id="Union" d="M10.7,9.5c-2.4,0.6-4.4,2.4-5.2,4.8l1.9-0.5c0.4-0.1,0.8,0.1,0.9,0.5c0.1,0.4-0.1,0.8-0.5,0.9l0,0l-3.2,0.9
	c0,0-0.1,0-0.1,0l-0.4,0.1c-0.4,0.1-0.8-0.1-0.9-0.5c0,0,0,0,0,0l-1-3.7c-0.1-0.4,0.1-0.8,0.5-0.9s0.8,0.1,0.9,0.5l0,0l0.5,1.9
	c1.1-2.7,3.4-4.7,6.2-5.4c5-1.3,10.1,1.6,11.4,6.6c0.1,0.4-0.1,0.8-0.5,0.9c-0.4,0.1-0.8-0.1-0.9-0.5l0,0
	C19.2,10.9,14.9,8.4,10.7,9.5z"/>
</svg>
