<?xml version="1.0" encoding="utf-8"?>
<!-- Generator: Adobe Illustrator 26.5.0, SVG Export Plug-In . SVG Version: 6.00 Build 0)  -->
<svg version="1.1" id="Enroll" fill="currentColor" xmlns="http://www.w3.org/2000/svg" xmlns:xlink="http://www.w3.org/1999/xlink" x="0px" y="0px"
	 viewBox="0 0 24 24" style="enable-background:new 0 0 24 24;" xml:space="preserve">
<g id="Group" transform="translate(4.793 4.207)">
	<path id="Vector_474_Stroke_" d="M6.9,13.8L12.7,8c0.1-0.1,0.1-0.3,0-0.4c0,0,0,0,0,0L6.9,1.8C6.6,1.5,6.7,1,7,0.8
		c0.3-0.3,0.7-0.3,1,0l5.8,5.8c0.7,0.7,0.7,1.8,0,2.5c0,0,0,0,0,0L8,14.8c-0.3,0.3-0.8,0.3-1.1,0C6.7,14.5,6.7,14.1,6.9,13.8z"/>
	<path id="Vector_475_Stroke_" d="M0.7,13.8L6.5,8c0.1-0.1,0.1-0.3,0-0.4c0,0,0,0,0,0L0.7,1.8C0.4,1.5,0.4,1,0.7,0.8
		c0.3-0.3,0.7-0.3,1,0l5.8,5.8c0.7,0.7,0.7,1.8,0,2.5c0,0,0,0,0,0l-5.8,5.8c-0.3,0.3-0.8,0.3-1.1,0C0.4,14.5,0.4,14.1,0.7,13.8z"/>
</g>
</svg>
