<?xml version="1.0" encoding="UTF-8"?>
<svg id="Refresh" fill="currentColor" xmlns="http://www.w3.org/2000/svg" viewBox="0 0 19.5 19.5">
  <g id="Group">
    <path id="Union" d="M9.75,1.5c2.67,0,5.16,1.3,6.68,3.49h-2.18c-.41,0-.75,.33-.75,.74s.34,.75,.75,.75h3.55s.45,.01,.45,.01c.41,0,.75-.34,.75-.75V1.75c0-.41-.34-.75-.75-.75s-.75,.34-.75,.75V3.91C15.69,1.45,12.81,0,9.75,0,4.37,0,0,4.37,0,9.75c0,.41,.34,.75,.75,.75s.75-.34,.75-.75C1.5,5.19,5.19,1.5,9.75,1.5Z"/>
    <path id="Union-2" d="M9.75,18c-2.67,0-5.16-1.3-6.68-3.49h2.18c.41,0,.75-.33,.75-.74s-.34-.75-.75-.75H1.7s-.45-.01-.45-.01c-.41,0-.75,.33-.75,.75,0,0,0,0,0,0v4c0,.41,.34,.75,.75,.75s.75-.34,.75-.75v-2.16c1.81,2.46,4.69,3.92,7.75,3.91,5.38,0,9.75-4.37,9.75-9.75,0-.41-.34-.75-.75-.75s-.75,.34-.75,.75c0,4.56-3.69,8.25-8.25,8.25Z"/>
  </g>
</svg>
