<?xml version="1.0" encoding="utf-8"?>
<!-- Generator: Adobe Illustrator 25.2.1, SVG Export Plug-In . SVG Version: 6.00 Build 0)  -->
<svg version="1.1" id="Reject" fill="currentColor" xmlns="http://www.w3.org/2000/svg" xmlns:xlink="http://www.w3.org/1999/xlink" x="0px"
	 y="0px" viewBox="0 0 45.4 45.4" style="enable-background:new 0 0 45.4 45.4;" xml:space="preserve">
<style type="text/css">
	.st0{fill:none;}
</style>
<path id="Soustraction_66" class="st0" d="M3.6,40.4c-0.3,0-0.5-0.1-0.7-0.3c-0.4-0.5-0.6-1.2-0.6-1.8V21.4c0-0.2,0-0.3,0.1-0.5V11
	c0-3.3,2.7-6,6-6h28.8c3.3,0,6,2.7,6,6v17.2c0,3.3-2.7,6-6,6H12.5l-8.5,6C3.9,40.3,3.8,40.4,3.6,40.4z M22.7,8.6
	c-6,0-10.8,4.8-10.8,10.8s4.8,10.8,10.8,10.8s10.8-4.8,10.8-10.8C33.5,13.5,28.7,8.6,22.7,8.6L22.7,8.6z M22.7,26.7
	c-4,0-7.2-3.2-7.2-7.2c0-1.1,0.2-2.1,0.7-3.1l9.6,9.6C24.9,26.4,23.8,26.7,22.7,26.7L22.7,26.7z M29.2,22.6L29.2,22.6L19.6,13
	c1-0.5,2-0.7,3.1-0.7c4,0,7.2,3.2,7.2,7.2C29.9,20.5,29.7,21.6,29.2,22.6L29.2,22.6z"/>
</svg>
