<?xml version="1.0" encoding="utf-8"?>
<!-- Generator: Adobe Illustrator 25.2.1, SVG Export Plug-In . SVG Version: 6.00 Build 0)  -->
<svg version="1.1" id="Renew" fill="currentColor" xmlns="http://www.w3.org/2000/svg" xmlns:xlink="http://www.w3.org/1999/xlink" x="0px" y="0px"
	 viewBox="0 0 24 24" style="enable-background:new 0 0 24 24;" xml:space="preserve">
<path id="Union" d="M12.3,3.8c2.7,0,5.2,1.3,6.7,3.5l-2.2,0C16.4,7.2,16,7.6,16,8c0,0.4,0.3,0.8,0.8,0.8l3.4,0c0,0,0.1,0,0.1,0h0.5
	c0.4,0,0.7-0.3,0.7-0.8V4c0-0.4-0.3-0.8-0.8-0.8S20,3.6,20,4v2.2c-1.8-2.5-4.7-3.9-7.8-3.9c-5.4,0-9.8,4.3-9.8,9.7s4.3,9.8,9.7,9.8
	c3.7,0,7.1-2.1,8.8-5.4c0.2-0.4,0-0.8-0.3-1c-0.4-0.2-0.8,0-1,0.3c-1.4,2.8-4.2,4.6-7.3,4.6C7.7,20.3,4,16.6,4,12S7.7,3.8,12.3,3.8z
	"/>
</svg>
