<?xml version="1.0" encoding="utf-8"?>
<!-- Generator: Adobe Illustrator 25.2.1, SVG Export Plug-In . SVG Version: 6.00 Build 0)  -->
<svg version="1.1" id="Report" fill="currentColor" xmlns="http://www.w3.org/2000/svg" xmlns:xlink="http://www.w3.org/1999/xlink" x="0px" y="0px"
	 viewBox="0 0 24 24" style="enable-background:new 0 0 24 24;" xml:space="preserve">
<g id="Group" transform="translate(3 1)">
	<path id="Shape" d="M15,21H3c-1.7,0-3-1.3-3-3V5c0-1.7,1.3-3,3-3h4c0-1.1,0.9-2,2-2s2,0.9,2,2h4c1.7,0,3,1.3,3,3v13
		C18,19.7,16.7,21,15,21z M3,3.5C2.2,3.5,1.5,4.2,1.5,5v13c0,0.8,0.7,1.5,1.5,1.5h12c0.8,0,1.5-0.7,1.5-1.5V5c0-0.8-0.7-1.5-1.5-1.5
		h-2V5c0,0.6-0.4,1-1,1H6C5.4,6,5,5.6,5,5V3.5H3z M6.5,3.5v1h5v-1H11c-0.8,0-1.5-0.7-1.5-1.5c0-0.3-0.2-0.5-0.5-0.5S8.5,1.7,8.5,2
		c0,0.8-0.6,1.4-1.4,1.5L7,3.5H6.5z"/>
	<path id="Vector_391_Stroke_" d="M5,9.2h8c0.4,0,0.8,0.3,0.8,0.8s-0.3,0.8-0.8,0.8H5c-0.4,0-0.8-0.3-0.8-0.8S4.6,9.2,5,9.2z"/>
	<path id="Vector_392_Stroke_" d="M5,13.2h4c0.4,0,0.8,0.3,0.8,0.8S9.4,14.8,9,14.8H5c-0.4,0-0.8-0.3-0.8-0.8S4.6,13.2,5,13.2z"/>
</g>
</svg>
