<?xml version="1.0" encoding="utf-8"?>
<!-- Generator: Adobe Illustrator 25.2.1, SVG Export Plug-In . SVG Version: 6.00 Build 0)  -->
<svg version="1.1" id="Request" fill="currentColor" xmlns="http://www.w3.org/2000/svg" xmlns:xlink="http://www.w3.org/1999/xlink" x="0px" y="0px"
	 viewBox="0 0 24 24" style="enable-background:new 0 0 24 24;" xml:space="preserve">
<g id="Group" transform="translate(0 0)">
	<path id="Combined_Shape" d="M4,21.4c-0.5,0-1-0.2-1.4-0.6C2.2,20.4,2,19.9,2,19.4V5.6c0-1.7,1.3-3,3-3h14c1.7,0,3,1.3,3,3v10
		c0,1.7-1.3,3-3,3H8l-2.7,2.3C4.9,21.2,4.5,21.4,4,21.4z M5,4.1c-0.8,0-1.5,0.7-1.5,1.5v13.7c0,0.3,0.2,0.5,0.5,0.5
		c0.1,0,0.2,0,0.3-0.1L7,17.5c0.3-0.2,0.6-0.3,1-0.3h11c0.8,0,1.5-0.7,1.5-1.5v-10c0-0.8-0.7-1.5-1.5-1.5H5z"/>
</g>
</svg>
