<?xml version="1.0" encoding="utf-8"?>
<!-- Generator: Adobe Illustrator 26.5.0, SVG Export Plug-In . SVG Version: 6.00 Build 0)  -->
<svg version="1.1" id="SCEP" fill="currentColor" xmlns="http://www.w3.org/2000/svg" xmlns:xlink="http://www.w3.org/1999/xlink" x="0px" y="0px"
	 viewBox="0 0 24 24" style="enable-background:new 0 0 24 24;" xml:space="preserve">
<g id="bookmark">
	<g id="Group" transform="translate(4 2)">
		<path id="Shape" d="M13,19c-0.6,0-1.2-0.2-1.7-0.5l-0.1-0.1L8,16l-3.2,2.4C4.3,18.8,3.7,19,3,19c-1.6,0-2.9-1.2-3-2.8V16V3
			c0-1.6,1.2-2.9,2.8-3L3,0h10c1.6,0,2.9,1.2,3,2.8V3v13c0,0.8-0.3,1.6-0.9,2.2C14.5,18.7,13.8,19,13,19z M8,14.5
			c0.3,0,0.6,0.1,0.9,0.3l3.2,2.4c0.3,0.2,0.6,0.3,0.9,0.3c0.4,0,0.8-0.2,1-0.4c0.3-0.3,0.5-0.7,0.5-1.1V3c0-0.8-0.7-1.5-1.5-1.5H3
			C2.2,1.5,1.5,2.2,1.5,3v13c0,0.8,0.7,1.5,1.5,1.5c0.3,0,0.6-0.1,0.9-0.3l3.2-2.4C7.4,14.6,7.7,14.5,8,14.5z"/>
	</g>
</g>
<path id="Tracé_2" d="M12.1,14.2c-0.5,0-1.1-0.1-1.6-0.3C10,13.7,9.7,13.4,9.4,13c-0.3-0.4-0.4-0.9-0.4-1.3h1.8
	c0,0.3,0.1,0.6,0.4,0.8c0.3,0.2,0.6,0.3,0.9,0.3c0.3,0,0.7-0.1,0.9-0.3c0.2-0.2,0.3-0.5,0.3-0.7c0-0.2-0.1-0.4-0.2-0.6
	c-0.2-0.2-0.4-0.3-0.6-0.4c-0.3-0.1-0.6-0.2-0.9-0.3c-0.5-0.1-0.9-0.3-1.3-0.5C9.9,9.9,9.6,9.6,9.3,9.3C9.1,8.9,8.9,8.5,9,8
	c0-0.5,0.1-0.9,0.4-1.3c0.3-0.4,0.6-0.7,1.1-0.9c0.5-0.2,1-0.3,1.5-0.3c0.8,0,1.5,0.2,2.1,0.6C14.6,6.6,14.9,7.3,15,8h-1.9
	c0-0.3-0.1-0.5-0.4-0.7C12.5,7.1,12.1,7,11.8,7c-0.3,0-0.6,0.1-0.8,0.3c-0.2,0.2-0.3,0.5-0.3,0.7c0,0.2,0.1,0.4,0.2,0.6
	c0.2,0.2,0.3,0.3,0.6,0.4C11.7,9,12,9.1,12.4,9.2c0.5,0.1,0.9,0.3,1.3,0.5c0.4,0.2,0.7,0.4,0.9,0.7c0.3,0.4,0.4,0.8,0.4,1.3
	c0,0.4-0.1,0.9-0.4,1.3c-0.2,0.4-0.6,0.7-1,0.9C13.2,14.1,12.6,14.2,12.1,14.2z"/>
</svg>
