<?xml version="1.0" encoding="utf-8"?>
<!-- Generator: Adobe Illustrator 25.2.1, SVG Export Plug-In . SVG Version: 6.00 Build 0)  -->
<svg version="1.1" id="RequestDashboard" fill="currentColor" xmlns="http://www.w3.org/2000/svg" xmlns:xlink="http://www.w3.org/1999/xlink" x="0px" y="0px"
	 viewBox="0 0 24 24" style="enable-background:new 0 0 24 24;" xml:space="preserve">
<path id="Vector_606_Stroke_" d="M3.8,3v16c0,0.7,0.6,1.2,1.2,1.2h16c0.4,0,0.8,0.3,0.8,0.8s-0.3,0.8-0.8,0.8H5
	c-1.5,0-2.8-1.2-2.8-2.8V3c0-0.4,0.3-0.8,0.8-0.8S3.8,2.6,3.8,3z"/>
<path id="Vector_642_Stroke_" d="M7.8,9v8c0,0.4-0.3,0.8-0.8,0.8S6.2,17.4,6.2,17V9c0-0.4,0.3-0.8,0.8-0.8S7.8,8.6,7.8,9z"/>
<path id="Vector_643_Stroke_" d="M11.8,15v2c0,0.4-0.3,0.8-0.8,0.8s-0.8-0.3-0.8-0.8v-2c0-0.4,0.3-0.8,0.8-0.8S11.8,14.6,11.8,15z"
	/>
<path id="Vector_644_Stroke_" d="M15.8,5v12c0,0.4-0.3,0.8-0.8,0.8s-0.8-0.3-0.8-0.8V5c0-0.4,0.3-0.8,0.8-0.8S15.8,4.6,15.8,5z"/>
<path id="Vector_645_Stroke_" d="M19.8,11v6c0,0.4-0.3,0.8-0.8,0.8s-0.8-0.3-0.8-0.8v-6c0-0.4,0.3-0.8,0.8-0.8S19.8,10.6,19.8,11z"
	/>
</svg>
