<?xml version="1.0" encoding="utf-8"?>
<!-- Generator: Adobe Illustrator 25.2.1, SVG Export Plug-In . SVG Version: 6.00 Build 0)  -->
<svg version="1.1" id="ReviewApprove" fill="currentColor" xmlns="http://www.w3.org/2000/svg" xmlns:xlink="http://www.w3.org/1999/xlink" x="0px"
	 y="0px" viewBox="0 0 57 45.4" style="enable-background:new 0 0 57 45.4;" xml:space="preserve">
<style type="text/css">
	.st0{fill:none;}
</style>
<path id="Soustraction_62" class="st0" d="M2.8,39c-0.3,0-0.5-0.1-0.7-0.3c-0.4-0.5-0.6-1.1-0.6-1.8V20.1c0-0.2,0-0.3,0.1-0.5V9.8
	c0-3.3,2.7-6,6-6h28.8c3.3,0,6,2.7,6,6V24H42c-2.9,0-5.6,0.9-8,2.4c-2.6,1.6-4.8,3.7-6.7,6.2c-0.1,0.2-0.2,0.3-0.1,0.4H11.8l-8.4,6
	C3.2,39,3,39,2.8,39z M11.3,16.4c-1,0-1.8,0.8-1.8,1.8c0,0.5,0.2,1,0.6,1.4l7,6c0,0,0,0,0.1,0.1c0.3,0.4,0.8,0.6,1.4,0.6h0.1
	c0.5,0,1-0.2,1.3-0.6c0,0,0,0,0.1-0.1l16-13.9c0.7-0.7,0.8-1.8,0.2-2.5c-0.7-0.8-1.8-0.8-2.5-0.2L18.5,22.1l-6-5.2
	C12.1,16.5,11.7,16.4,11.3,16.4L11.3,16.4z"/>
<g id="eye" transform="translate(23.111 -81.227)">
	<path id="Tracé_382" class="st0" d="M19.3,107.2c-5,0-9.6,2.7-13,7.2c-0.3,0.4-0.3,0.9,0,1.2c3.4,4.5,7.9,7.2,13,7.2
		s9.6-2.7,13-7.2c0.3-0.4,0.3-0.9,0-1.2C28.8,109.9,24.3,107.2,19.3,107.2z M19.6,120.5c-3,0.2-5.7-2.1-5.9-5.2
		c-0.2-3,2.1-5.7,5.2-5.9s5.7,2.1,5.9,5.2c0,0.2,0,0.5,0,0.7C24.6,118.2,22.4,120.4,19.6,120.5z M19.4,118c-1.6,0.1-3.1-1.1-3.2-2.8
		s1.1-3.1,2.8-3.2c1.6-0.1,3.1,1.1,3.2,2.8c0,0.1,0,0.3,0,0.4C22.1,116.7,20.9,117.9,19.4,118z"/>
</g>
</svg>
