<?xml version="1.0" encoding="utf-8"?>
<!-- Generator: Adobe Illustrator 25.2.1, SVG Export Plug-In . SVG Version: 6.00 Build 0)  -->
<svg version="1.1" id="ReviewDeny" fill="currentColor" xmlns="http://www.w3.org/2000/svg" xmlns:xlink="http://www.w3.org/1999/xlink" x="0px"
	 y="0px" viewBox="0 0 57 45.4" style="enable-background:new 0 0 57 45.4;" xml:space="preserve">
<style type="text/css">
	.st0{fill:none;}
</style>
<path id="Soustraction_66" class="st0" d="M3,38.9c-0.3,0-0.5-0.1-0.7-0.3c-0.4-0.5-0.6-1.1-0.6-1.8V20.1c0-0.2,0-0.3,0.1-0.5V9.8
	c0-3.3,2.7-6,6-6h28.6c3.3,0,6,2.7,6,6V24h-0.3c-2.8,0-5.6,0.9-8,2.4c-2.6,1.6-4.8,3.7-6.6,6.1c-0.1,0.2-0.2,0.3-0.1,0.4H11.9
	l-8.4,5.9C3.4,38.9,3.2,38.9,3,38.9z M22,7.5c-5.9,0-10.7,4.8-10.7,10.7S16.1,28.9,22,28.9s10.7-4.8,10.7-10.7S27.9,7.5,22,7.5
	L22,7.5z M22,25.3c-3.9,0-7.1-3.2-7.1-7.1c0-1.1,0.2-2.1,0.7-3.1l9.5,9.5C24.1,25.1,23,25.3,22,25.3L22,25.3z M28.4,21.3L28.4,21.3
	l-9.5-9.5c1-0.5,2-0.7,3.1-0.7c3.9,0,7.1,3.2,7.1,7.1C29.1,19.3,28.9,20.3,28.4,21.3L28.4,21.3z"/>
<g id="eye" transform="translate(23.109 -81.228)">
	<path id="Tracé_382" class="st0" d="M19.2,107.2c-5,0-9.5,2.7-12.9,7.2c-0.3,0.4-0.3,0.9,0,1.2c3.3,4.4,7.9,7.2,12.9,7.2
		s9.5-2.7,12.9-7.2c0.3-0.4,0.3-0.9,0-1.2C28.7,109.9,24.2,107.2,19.2,107.2z M19.5,120.4c-3,0.2-5.6-2.1-5.8-5.1s2.1-5.6,5.1-5.8
		c3-0.2,5.6,2.1,5.8,5.1c0,0.2,0,0.5,0,0.7C24.5,118.1,22.3,120.3,19.5,120.4z M19.4,117.9c-1.6,0.1-3-1.1-3.1-2.8
		c-0.1-1.6,1.1-3,2.8-3.1c1.6-0.1,3,1.1,3.1,2.8c0,0.1,0,0.3,0,0.4C22,116.6,20.8,117.8,19.4,117.9z"/>
</g>
</svg>
