<?xml version="1.0" encoding="utf-8"?>
<!-- Generator: Adobe Illustrator 25.2.1, SVG Export Plug-In . SVG Version: 6.00 Build 0)  -->
<svg version="1.1" id="ReviewRevoke" fill="currentColor" xmlns="http://www.w3.org/2000/svg" xmlns:xlink="http://www.w3.org/1999/xlink" x="0px"
	 y="0px" viewBox="0 0 46.6 34.6" style="enable-background:new 0 0 46.6 34.6;" xml:space="preserve">
<style type="text/css">
	.st0{fill:none;}
</style>
<path id="Soustraction_76" class="st0" d="M13.4,32.3c-0.5,0-0.9-0.4-0.9-0.9v-5.7c0.9,1,2.2,1.6,3.5,1.6c1.4,0,2.7-0.6,3.6-1.6v5.8
	c0,0.5-0.4,0.9-0.9,0.9c-0.2,0-0.3-0.1-0.5-0.1L16,30.7l-2.2,1.4C13.7,32.2,13.6,32.3,13.4,32.3z M16,25.5c-1.6,0-2.9-1.3-2.9-2.9
	c0-1.6,1.3-2.9,2.9-2.9c1.6,0,2.9,1.3,2.9,2.9C18.9,24.2,17.6,25.5,16,25.5L16,25.5z M12.1,25.1l-7,0l10.1-8.7h1.3l7.7,6.7
	c-0.4,0.5-0.8,1-1.2,1.5c-0.1,0.2-0.2,0.4-0.2,0.6h-0.5v0h-2.3c1.4-2.2,0.8-5.1-1.4-6.5c-2.2-1.4-5.1-0.8-6.5,1.4
	C11.1,21.6,11.1,23.6,12.1,25.1L12.1,25.1L12.1,25.1z M3.6,25L3.6,25L3.6,25l-3,0l13.5-11.8L1.6,2.3h3L15.6,12l11.1-9.7h3l-12.6,11
	l9.1,7.9l0,0l0,0h0v0c-0.7,0.5-1.3,1.1-1.9,1.8c0.3-0.3,0.6-0.6,0.9-0.9l-0.3,0.3l-9.1-7.9L3.6,25L3.6,25L3.6,25z M1,23.5L1,23.5
	V3.1c0,0,0,0,0-0.1l9.4,8.1H7.2c-0.5,0-0.9,0.4-0.9,0.9c0,0.5,0.4,0.9,0.9,0.9l0,0h5.2l0.4,0.4l-1.6,1.4h-4c-0.5,0-0.9,0.4-0.9,0.9
	c0,0.5,0.4,0.9,0.9,0.9h2L1,23.5L1,23.5z M26.2,21.2L26.2,21.2c0.2-0.2,0.5-0.4,0.8-0.6l-4.8-4.1h2.5c0.5,0,0.9-0.4,0.9-0.9
	c0-0.5-0.4-0.9-0.9-0.9h-4.5l-1.6-1.4l0.5-0.4h5.6c0.5,0,0.9-0.4,0.9-0.9c0-0.5-0.4-0.9-0.9-0.9h-3.6l9.7-8.4C31,2.8,31,3,31,3.1
	v15.6c-1.4,0.4-2.7,1-3.9,1.8l0,0C26.8,20.8,26.5,21,26.2,21.2L26.2,21.2z M15.7,10.7L15.7,10.7L12,7.5c0.1,0.1,0.3,0.1,0.5,0.1h6.8
	L15.7,10.7L15.7,10.7z M11.8,7.3L6,2.3h19.4l-5,4.4c0-0.5-0.4-0.8-0.9-0.8h-7c-0.5,0-0.9,0.4-0.9,0.9v0C11.6,6.9,11.6,7.1,11.8,7.3
	L11.8,7.3z"/>
<g id="eye_1_" transform="translate(24.357 -82.006)">
	<path id="Tracé_382_1_" class="st0" d="M10.8,101.6c-4.1,0-7.8,2.2-10.6,5.9c-0.2,0.3-0.2,0.7,0,1c2.7,3.6,6.4,5.9,10.6,5.9
		s7.8-2.2,10.6-5.9c0.2-0.3,0.2-0.7,0-1C18.6,103.8,14.9,101.6,10.8,101.6z M11.1,112.5c-2.5,0.2-4.6-1.7-4.8-4.2
		c-0.2-2.5,1.7-4.6,4.2-4.8c2.5-0.2,4.6,1.7,4.8,4.2c0,0.2,0,0.4,0,0.6C15.2,110.5,13.4,112.3,11.1,112.5z M11,110.4
		c-1.3,0.1-2.5-0.9-2.6-2.3s0.9-2.5,2.3-2.6c1.3-0.1,2.5,0.9,2.6,2.3c0,0.1,0,0.2,0,0.3C13.2,109.3,12.2,110.3,11,110.4z"/>
</g>
</svg>
