<?xml version="1.0" encoding="utf-8"?>
<!-- Generator: Adobe Illustrator 25.2.1, SVG Export Plug-In . SVG Version: 6.00 Build 0)  -->
<svg version="1.1" id="Revoke" fill="currentColor" xmlns="http://www.w3.org/2000/svg" xmlns:xlink="http://www.w3.org/1999/xlink" x="0px" y="0px"
	 viewBox="0 0 24 24" style="enable-background:new 0 0 24 24;" xml:space="preserve">
<path id="Combined_Shape" d="M12,22C6.5,22,2,17.5,2,12S6.5,2,12,2s10,4.5,10,10C22,17.5,17.5,22,12,22z M5.5,6.5
	c-3,3.6-2.5,9,1.1,12c3.2,2.6,7.8,2.6,10.9,0L5.5,6.5z M12,3.5c-2,0-3.9,0.7-5.5,2l12,12c3-3.6,2.5-9-1.1-12C15.9,4.2,14,3.5,12,3.5
	z"/>
</svg>
