<?xml version="1.0" encoding="utf-8"?>
<!-- Generator: Adobe Illustrator 25.2.1, SVG Export Plug-In . SVG Version: 6.00 Build 0)  -->
<svg version="1.1" id="Role" fill="currentColor" xmlns="http://www.w3.org/2000/svg" xmlns:xlink="http://www.w3.org/1999/xlink" x="0px" y="0px"
	 viewBox="0 0 24 24" style="enable-background:new 0 0 24 24;" xml:space="preserve">
<g id="Group">
	<path id="Vector_631_Stroke_" d="M2.8,18.1v2c0,0.4-0.3,0.8-0.8,0.8s-0.8-0.3-0.8-0.8v-2c0-2.6,2.1-4.8,4.8-4.8h6
		c2.6,0,4.8,2.1,4.8,4.8v2c0,0.4-0.3,0.8-0.8,0.8s-0.8-0.3-0.8-0.8v-2c0-1.8-1.5-3.2-3.2-3.2H6C4.2,14.9,2.8,16.3,2.8,18.1z"/>
	<path id="Combined_Shape" d="M9,11.1c-2.2,0-4-1.8-4-4s1.8-4,4-4s4,1.8,4,4S11.2,11.1,9,11.1z M9,4.6c-1.4,0-2.5,1.1-2.5,2.5
		S7.6,9.6,9,9.6s2.5-1.1,2.5-2.5S10.4,4.6,9,4.6z"/>
	<path id="Combined_Shape-2" d="M13,11.1L13,11.1V9.6c1.4,0,2.5-1.1,2.5-2.5S14.4,4.6,13,4.6V3.1c2.2,0,4,1.8,4,4S15.2,11.1,13,11.1
		z"/>
	<path id="Combined_Shape-3" d="M9,11.1c-2.2,0-4-1.8-4-4s1.8-4,4-4s4,1.8,4,4S11.2,11.1,9,11.1z M9,4.6c-1.4,0-2.5,1.1-2.5,2.5
		S7.6,9.6,9,9.6s2.5-1.1,2.5-2.5S10.4,4.6,9,4.6z"/>
</g>
<g id="Group-2" transform="translate(6)">
	<path id="Vector_631_Stroke_2" d="M10.3,13.4H12c2.6,0,4.8,2.1,4.8,4.8v2c0,0.4-0.3,0.8-0.8,0.8s-0.8-0.3-0.8-0.8v-2
		c0-1.8-1.5-3.2-3.2-3.2h-1.7C9.8,14.5,9.8,13.8,10.3,13.4C10.2,13.4,10.2,13.4,10.3,13.4z"/>
</g>
</svg>
