<?xml version="1.0" encoding="utf-8"?>
<!-- Generator: Adobe Illustrator 25.2.1, SVG Export Plug-In . SVG Version: 6.00 Build 0)  -->
<svg version="1.1" id="Run" fill="currentColor" xmlns="http://www.w3.org/2000/svg" xmlns:xlink="http://www.w3.org/1999/xlink" x="0px" y="0px"
	 viewBox="0 0 24 24" style="enable-background:new 0 0 24 24;" xml:space="preserve">
<path id="Combined_Shape" d="M8,19.8L8,19.8c-1.7,0-3-1.3-3-3V7.2c0-1.7,1.3-3,3-3c0.5,0,1.1,0.1,1.5,0.4l8.1,4.8
	c1.4,0.8,1.9,2.7,1.1,4.1c-0.3,0.4-0.6,0.8-1.1,1.1l-8.1,4.8C9,19.6,8.5,19.8,8,19.8z M8,5.7L8,5.7c-0.8,0-1.5,0.7-1.5,1.5v9.5
	c0,0.8,0.7,1.5,1.5,1.5c0.3,0,0.5-0.1,0.8-0.2l8.1-4.8c0.7-0.4,1-1.3,0.5-2.1c-0.1-0.2-0.3-0.4-0.5-0.5L8.7,6C8.5,5.8,8.2,5.7,8,5.7
	z"/>
</svg>
