<?xml version="1.0" encoding="utf-8"?>
<!-- Generator: Adobe Illustrator 25.2.1, SVG Export Plug-In . SVG Version: 6.00 Build 0)  -->
<svg version="1.1" id="Search" fill="currentColor" xmlns="http://www.w3.org/2000/svg" xmlns:xlink="http://www.w3.org/1999/xlink" x="0px" y="0px"
	 viewBox="0 0 24 24" style="enable-background:new 0 0 24 24;" xml:space="preserve">
<path id="Combined_Shape" d="M20.6,21.4c-0.2,0-0.4-0.1-0.5-0.2l-2.7-2.7c-3.8,3.2-9.5,2.7-12.7-1.1S2,8,5.8,4.8S15.3,2,18.5,5.8
	c2.8,3.4,2.8,8.3,0,11.6l2.7,2.7c0.3,0.3,0.3,0.8,0,1.1C21,21.3,20.8,21.4,20.6,21.4z M11.6,4.1c-4.1,0-7.5,3.4-7.5,7.5
	s3.4,7.5,7.5,7.5s7.5-3.4,7.5-7.5C19.1,7.5,15.8,4.1,11.6,4.1z"/>
</svg>
