<?xml version="1.0" encoding="utf-8"?>
<!-- Generator: Adobe Illustrator 25.2.1, SVG Export Plug-In . SVG Version: 6.00 Build 0)  -->
<svg version="1.1" id="Security" fill="currentColor" xmlns="http://www.w3.org/2000/svg" xmlns:xlink="http://www.w3.org/1999/xlink" x="0px" y="0px"
	 viewBox="0 0 24 24" style="enable-background:new 0 0 24 24;" xml:space="preserve">
<path id="Combined_Shape" d="M12,22.3c-0.4,0-0.7-0.1-1.1-0.2C8.6,20.9,3,17.5,3,12V6.7c0-1.3,0.8-2.4,2.1-2.8l6-2
	c0.6-0.2,1.3-0.2,1.9,0l6,2c1.2,0.4,2,1.6,2,2.8V12c0,5.5-5.6,8.8-7.9,10C12.7,22.2,12.4,22.3,12,22.3z M12,3.2
	c-0.2,0-0.3,0-0.5,0.1l-6,2c-0.6,0.2-1,0.8-1,1.4V12c0.1,2.1,1,4.1,2.6,5.6c1.3,1.3,2.8,2.3,4.5,3.1c0.2,0.1,0.5,0.1,0.8,0
	c1.6-0.8,3.1-1.9,4.5-3.1c1.6-1.4,2.6-3.4,2.6-5.6V6.7c0-0.6-0.4-1.2-1-1.4l-6-2C12.3,3.2,12.2,3.2,12,3.2z"/>
</svg>
