<?xml version="1.0" encoding="utf-8"?>
<!-- Generator: Adobe Illustrator 25.2.1, SVG Export Plug-In . SVG Version: 6.00 Build 0)  -->
<svg version="1.1" id="Setting" fill="currentColor" xmlns="http://www.w3.org/2000/svg" xmlns:xlink="http://www.w3.org/1999/xlink" x="0px" y="0px"
	 viewBox="0 0 24 24" style="enable-background:new 0 0 24 24;" xml:space="preserve">
<g id="Group" transform="translate(3.25 3.25)">
	<path id="Combined_Shape" d="M6.8,17.5c-1.8,0-3.3-1.3-3.7-3H0.8c-0.4,0-0.8-0.3-0.8-0.8C0,13.3,0.3,13,0.8,13h2.3
		c0.4-2,2.4-3.3,4.4-2.9c1.5,0.3,2.6,1.5,2.9,2.9h6.3c0.4,0,0.8,0.3,0.8,0.8c0,0.4-0.3,0.8-0.8,0.8h-6.3
		C10.1,16.2,8.5,17.5,6.8,17.5z M6.8,11.5c-1.2,0-2.2,1-2.2,2.2s1,2.2,2.2,2.2S9,15,9,13.8C9,12.5,8,11.5,6.8,11.5z"/>
	<path id="Combined_Shape-2" d="M10.8,7.5c-1.8,0-3.3-1.3-3.7-3H0.8C0.3,4.5,0,4.2,0,3.8S0.3,3,0.8,3h6.3c0.4-2,2.4-3.3,4.4-2.9
		C13,0.4,14.1,1.5,14.4,3h2.3c0.4,0,0.8,0.3,0.8,0.8s-0.3,0.8-0.8,0.8h-2.3C14.1,6.2,12.5,7.5,10.8,7.5z M10.8,1.5
		c-1.2,0-2.2,1-2.2,2.2S9.5,6,10.8,6S13,5,13,3.8C13,2.5,12,1.5,10.8,1.5z"/>
</g>
</svg>
