<?xml version="1.0" encoding="utf-8"?>
<!-- Generator: Adobe Illustrator 25.2.1, SVG Export Plug-In . SVG Version: 6.00 Build 0)  -->
<svg version="1.1" id="Slack" fill="currentColor" xmlns="http://www.w3.org/2000/svg" xmlns:xlink="http://www.w3.org/1999/xlink" x="0px" y="0px"
	 viewBox="0 0 24 24" style="enable-background:new 0 0 24 24;" xml:space="preserve">
<path id="Combined_Shape" d="M14.5,22.5c-1.1,0-2-0.9-2-2v-1c0-0.6,0.4-1,1-1h1c1.1,0,2,0.9,2,2S15.6,22.5,14.5,22.5z M14,20v0.5
	c0,0.3,0.2,0.5,0.5,0.5s0.5-0.2,0.5-0.5S14.8,20,14.5,20H14z M9,22.5c-1.4,0-2.5-1.1-2.5-2.5v-5c0-1.4,1.1-2.5,2.5-2.5
	s2.5,1.1,2.5,2.5v5C11.5,21.4,10.4,22.5,9,22.5z M9,14c-0.6,0-1,0.4-1,1v5c0,0.6,0.4,1,1,1c0.6,0,1-0.4,1-1v-5C10,14.4,9.6,14,9,14z
	 M20,17.5h-5c-1.4,0-2.5-1.1-2.5-2.5s1.1-2.5,2.5-2.5h5c1.4,0,2.5,1.1,2.5,2.5S21.4,17.5,20,17.5z M15,14c-0.6,0-1,0.4-1,1
	s0.4,1,1,1h5c0.6,0,1-0.4,1-1s-0.4-1-1-1H15z M3.5,16.5c-1.1,0-2-0.9-2-2s0.9-2,2-2h1c0.6,0,1,0.4,1,1v1C5.5,15.6,4.6,16.5,3.5,16.5
	z M3.5,14C3.2,14,3,14.2,3,14.5S3.2,15,3.5,15S4,14.8,4,14.5V14H3.5z M20.5,11.5h-1c-0.6,0-1-0.4-1-1v-1c0-1.1,0.9-2,2-2s2,0.9,2,2
	S21.6,11.5,20.5,11.5z M20.5,9C20.2,9,20,9.2,20,9.5V10h0.5c0.3,0,0.5-0.2,0.5-0.5S20.8,9,20.5,9z M15,11.5c-1.4,0-2.5-1.1-2.5-2.5
	V4c0-1.4,1.1-2.5,2.5-2.5s2.5,1.1,2.5,2.5v5C17.5,10.4,16.4,11.5,15,11.5z M15,3c-0.6,0-1,0.4-1,1v5c0,0.6,0.4,1,1,1s1-0.4,1-1V4
	C16,3.4,15.6,3,15,3z M9,11.5H4c-1.4,0-2.5-1.1-2.5-2.5S2.6,6.5,4,6.5h5c1.4,0,2.5,1.1,2.5,2.5S10.4,11.5,9,11.5z M4,8
	C3.4,8,3,8.4,3,9c0,0.6,0.4,1,1,1h5c0.6,0,1-0.4,1-1c0-0.6-0.4-1-1-1H4z M10.5,5.5h-1c-1.1,0-2-0.9-2-2s0.9-2,2-2s2,0.9,2,2v1
	C11.5,5.1,11.1,5.5,10.5,5.5z M9.5,3C9.2,3,9,3.2,9,3.5S9.2,4,9.5,4H10V3.5C10,3.2,9.8,3,9.5,3z"/>
</svg>
