<?xml version="1.0" encoding="utf-8"?>
<!-- Generator: Adobe Illustrator 25.2.1, SVG Export Plug-In . SVG Version: 6.00 Build 0)  -->
<svg version="1.1" id="System" fill="currentColor" xmlns="http://www.w3.org/2000/svg" xmlns:xlink="http://www.w3.org/1999/xlink" x="0px" y="0px"
	 viewBox="0 0 24 24" style="enable-background:new 0 0 24 24;" xml:space="preserve">
<g id="Group" transform="translate(1.895 1)">
	<path id="Combined_Shape" d="M10.1,15c-2.2,0-4-1.8-4-4s1.8-4,4-4s4,1.8,4,4S12.3,15,10.1,15z M10.1,8.5c-1.4,0-2.5,1.1-2.5,2.5
		s1.1,2.5,2.5,2.5s2.5-1.1,2.5-2.5S11.5,8.5,10.1,8.5z"/>
	<path id="Combined_Shape-2" d="M10.7,22H9.5c-0.9,0-1.6-0.5-1.9-1.4l-0.4-1.2c-0.2-0.5-0.6-1-1.1-1.3c-0.1-0.1-0.2-0.1-0.2-0.1
		c-0.4-0.2-0.8-0.4-1.2-0.4c-0.1,0-0.3,0-0.4,0L3,18c-0.8,0.2-1.7-0.2-2.1-1L0.3,16c-0.4-0.7-0.3-1.7,0.2-2.3l0.8-0.9
		c0.4-0.4,0.6-1,0.5-1.6c0-0.1,0-0.2,0-0.3c0-0.6-0.2-1.1-0.5-1.6L0.5,8.4C-0.1,7.7-0.2,6.8,0.3,6L0.9,5C1.3,4.2,2.2,3.8,3,4
		l1.2,0.2c0.1,0,0.3,0,0.4,0c0.4,0,0.9-0.1,1.2-0.4c0.1,0,0.2-0.1,0.2-0.1C6.6,3.5,7,3.1,7.2,2.5l0.4-1.2C7.9,0.6,8.6,0,9.5,0h1.2
		c0.9,0,1.6,0.5,1.9,1.4L13,2.5c0.2,0.5,0.6,1,1.1,1.3c0.1,0,0.2,0.1,0.2,0.1c0.4,0.2,0.8,0.4,1.2,0.4c0.1,0,0.3,0,0.4,0L17.2,4
		c0.8-0.2,1.7,0.2,2.1,1L19.9,6c0.4,0.7,0.3,1.7-0.2,2.3l-0.8,0.9c-0.4,0.4-0.6,1-0.5,1.6c0,0.1,0,0.2,0,0.3c0,0.6,0.2,1.1,0.5,1.6
		l0.8,0.9c0.6,0.6,0.7,1.6,0.2,2.3L19.3,17c-0.4,0.7-1.3,1.1-2.1,1L16,17.8c-0.1,0-0.3,0-0.4,0c-0.4,0-0.9,0.1-1.2,0.4
		c-0.1,0-0.1,0.1-0.2,0.1c-0.5,0.3-0.9,0.7-1.1,1.3l-0.4,1.2C12.4,21.5,11.6,22,10.7,22z M4.6,16.2c0.7,0,1.4,0.2,2,0.6
		c0.1,0,0.1,0.1,0.2,0.1c0.8,0.4,1.5,1.2,1.8,2.1L9,20.2c0.1,0.2,0.3,0.3,0.5,0.3h1.2c0.2,0,0.4-0.1,0.5-0.3l0.4-1.2
		c0.3-0.9,1-1.6,1.8-2.1c0.1,0,0.1-0.1,0.2-0.1c0.6-0.4,1.3-0.6,2-0.6c0.2,0,0.5,0,0.7,0.1l1.2,0.2c0.2,0,0.4-0.1,0.5-0.2l0.6-1.1
		c0.1-0.2,0.1-0.4-0.1-0.6l-0.8-0.9c-0.6-0.7-0.9-1.6-0.9-2.6c0-0.1,0-0.1,0-0.2c0-1,0.3-1.9,0.9-2.6l0.8-0.9
		c0.1-0.2,0.2-0.4,0.1-0.6L18,5.7c-0.1-0.2-0.3-0.3-0.5-0.2l-1.2,0.2c-0.2,0-0.5,0.1-0.7,0.1c-0.7,0-1.4-0.2-2-0.6
		c-0.1,0-0.1-0.1-0.2-0.1c-0.8-0.5-1.5-1.2-1.8-2.1l-0.4-1.2c-0.1-0.2-0.3-0.3-0.5-0.3H9.5C9.3,1.5,9.1,1.6,9,1.8L8.6,3
		c-0.3,0.9-1,1.6-1.8,2.1c-0.1,0-0.1,0.1-0.2,0.1C6,5.6,5.3,5.8,4.6,5.8c-0.2,0-0.5,0-0.7-0.1L2.7,5.5c-0.2,0-0.4,0.1-0.5,0.2
		L1.6,6.8C1.5,7,1.5,7.2,1.6,7.4l0.8,0.9C3.1,9,3.4,9.9,3.4,10.9c0,0.1,0,0.1,0,0.2c0,1-0.3,1.9-0.9,2.6l-0.8,0.9
		c-0.1,0.2-0.2,0.4-0.1,0.6l0.6,1.1c0.1,0.2,0.3,0.3,0.5,0.2l1.2-0.2C4.2,16.2,4.4,16.2,4.6,16.2z"/>
</g>
</svg>
