<?xml version="1.0" encoding="utf-8"?>
<!-- Generator: Adobe Illustrator 25.2.1, SVG Export Plug-In . SVG Version: 6.00 Build 0)  -->
<svg version="1.1" id="Task" fill="currentColor" xmlns="http://www.w3.org/2000/svg" xmlns:xlink="http://www.w3.org/1999/xlink" x="0px" y="0px"
	 viewBox="0 0 24 24" style="enable-background:new 0 0 24 24;" xml:space="preserve">
<g id="Group" transform="translate(0 0)">
	<path id="Combined_Shape" d="M16.5,22.4c-1.2,0-2.3-0.3-3.3-1H4.5c-1.7,0-3-1.3-3-3v-12c0-1.7,1.3-3,3-3h1.2v-1
		c0-0.4,0.3-0.8,0.8-0.8S7.2,2,7.2,2.4v1h8.5v-1c0-0.4,0.3-0.8,0.8-0.8s0.8,0.3,0.8,0.8v1h1.2c1.7,0,3,1.3,3,3v6.7
		c1.8,2.8,1.1,6.5-1.7,8.3C18.8,22,17.7,22.4,16.5,22.4L16.5,22.4z M16.5,11.9c-2.5,0-4.5,2-4.5,4.5s2,4.5,4.5,4.5s4.5-2,4.5-4.5
		C21,13.9,19,11.9,16.5,11.9z M4.5,4.9C3.7,4.9,3,5.5,3,6.4v12c0,0.8,0.7,1.5,1.5,1.5h7.1c-1.9-2.7-1.3-6.4,1.4-8.4
		c2.1-1.5,4.9-1.5,7,0V6.4c0-0.8-0.7-1.5-1.5-1.5h-1.2v1.5c0,0.4-0.3,0.8-0.8,0.8s-0.8-0.3-0.8-0.8V4.9H7.2v1.5
		c0,0.4-0.3,0.8-0.8,0.8S5.7,6.8,5.7,6.4V4.9H4.5z"/>
	<path id="Vector_479_Stroke_" d="M17.2,14.4v1.7l0.8,0.8c0.3,0.3,0.3,0.8,0,1.1s-0.8,0.3-1.1,0c0,0,0,0,0,0l-1-1
		c-0.1-0.1-0.2-0.3-0.2-0.5v-2c0-0.4,0.3-0.8,0.8-0.8S17.2,14,17.2,14.4z"/>
</g>
</svg>
