<?xml version="1.0" encoding="utf-8"?>
<!-- Generator: Adobe Illustrator 25.2.1, SVG Export Plug-In . SVG Version: 6.00 Build 0)  -->
<svg version="1.1" id="Teams" fill="currentColor" xmlns="http://www.w3.org/2000/svg" xmlns:xlink="http://www.w3.org/1999/xlink" x="0px" y="0px"
	 viewBox="0 0 24 24" style="enable-background:new 0 0 24 24;" xml:space="preserve">
<path id="icons8-microsoft-teams" d="M13.5,1.7L0,3.4v16.3l13.5,1.7v-1.7c0.2,0.1,0.5,0.1,0.8,0.1h1.5c1.4,0,2.6-0.8,3.3-2
	c0.3,0.3,0.8,0.5,1.2,0.5h1.2c1.4,0,2.5-1.1,2.5-2.5v-3.5h-4.5v-0.8h-6V9.6C14,9.9,14.5,10,15,10c0.9,0,1.7-0.3,2.2-1
	c1-1.2,1-2.9,0-4.1c-0.6-0.6-1.4-1-2.2-1c-0.5,0-1,0.1-1.5,0.4V1.7z M12,3.4v16.3L1.5,18.4V4.7L12,3.4z M15,5.5
	c0.4,0,0.8,0.1,1.1,0.5c0.5,0.6,0.5,1.5,0,2.1c-0.3,0.3-0.7,0.5-1.1,0.4c-0.4,0-0.8-0.1-1.1-0.5c-0.5-0.6-0.5-1.5,0-2.1
	C14.2,5.7,14.6,5.5,15,5.5L15,5.5z M21,6.3c-0.6,0-1.3,0.3-1.7,0.7c-0.8,0.9-0.8,2.2,0,3.1c0.9,0.9,2.4,1,3.3,0.1c0,0,0,0,0.1-0.1
	c0.8-0.9,0.8-2.2,0-3.1C22.3,6.5,21.6,6.3,21,6.3L21,6.3z M21,7.8c0.2,0,0.4,0.1,0.6,0.2c0.2,0.3,0.2,0.8,0,1.1
	c-0.3,0.3-0.8,0.3-1.1,0c-0.2-0.3-0.2-0.8,0-1.1C20.6,7.8,20.8,7.7,21,7.8L21,7.8z M3.8,8.5V10H6v5.2h1.5V10h2.2V8.5H3.8z M13.5,13
	H18v3c0,1.2-1,2.2-2.2,2.2c0,0,0,0,0,0h-1.5c-0.3,0-0.5,0-0.8-0.1V13z M19.5,13.8h3v2c0,0.5-0.4,1-0.9,1c0,0-0.1,0-0.1,0h-1.1
	c-0.3,0-0.8-0.3-0.8-0.8V13.8z"/>
</svg>
