<?xml version="1.0" encoding="utf-8"?>
<!-- Generator: Adobe Illustrator 25.2.1, SVG Export Plug-In . SVG Version: 6.00 Build 0)  -->
<svg version="1.1" id="Team" fill="currentColor" xmlns="http://www.w3.org/2000/svg" xmlns:xlink="http://www.w3.org/1999/xlink" x="0px" y="0px"
	 viewBox="0 0 24 24" style="enable-background:new 0 0 24 24;" xml:space="preserve">
<g id="Regular_1.5px_group" transform="translate(0.5)">
	<g id="Group" transform="translate(4.5 3)">
		<path id="Vector_631_Stroke_" d="M1,15.1v2c0,0.4-0.3,0.8-0.8,0.8s-0.8-0.3-0.8-0.8v-2c0-2.6,2.1-4.8,4.8-4.8h6
			c2.6,0,4.8,2.1,4.8,4.8v2c0,0.4-0.3,0.8-0.8,0.8s-0.8-0.3-0.8-0.8v-2c0-1.8-1.5-3.2-3.2-3.2h-6C2.5,11.9,1,13.3,1,15.1z"/>
		<path id="Combined_Shape" d="M7.2,8.1c-2.2,0-4-1.8-4-4s1.8-4,4-4s4,1.8,4,4S9.5,8.1,7.2,8.1z M7.2,1.6c-1.4,0-2.5,1.1-2.5,2.5
			s1.1,2.5,2.5,2.5s2.5-1.1,2.5-2.5S8.6,1.6,7.2,1.6z"/>
		<path id="Combined_Shape-2" d="M14.1,9.7c-1.6,0-2.9-1.3-2.9-2.9s1.3-2.9,2.9-2.9c1.6,0,2.9,1.3,2.9,2.9C17,8.4,15.7,9.7,14.1,9.7
			z M14.1,5.2c-0.9,0-1.6,0.7-1.6,1.6s0.7,1.6,1.6,1.6c0.9,0,1.6-0.7,1.6-1.6l0,0C15.7,5.9,15,5.2,14.1,5.2z M0.1,9.7
			c-1.6,0-2.9-1.3-2.9-2.9c0-1.6,1.3-2.9,2.9-2.9C1.7,3.9,3,5.2,3,6.8C3,8.4,1.7,9.7,0.1,9.7L0.1,9.7z M0.1,5.2
			c-0.9,0-1.6,0.7-1.6,1.6c0,0,0,0,0,0c0,0.9,0.7,1.6,1.6,1.6c0,0,0,0,0,0c0.9,0,1.6-0.7,1.6-1.6C1.7,5.9,1,5.2,0.1,5.2L0.1,5.2z"/>
		<path id="Soustraction_1" d="M18.2,17.9c-0.4,0-0.7-0.3-0.8-0.8v-2c0-1.5-1-2.8-2.4-3.1v-1.5c2.3,0.4,3.9,2.4,3.9,4.7v2
			C19,17.5,18.7,17.9,18.2,17.9z"/>
		<path id="Combined_Shape-3" d="M7.2,8.1c-2.2,0-4-1.8-4-4s1.8-4,4-4s4,1.8,4,4S9.5,8.1,7.2,8.1z M7.2,1.6c-1.4,0-2.5,1.1-2.5,2.5
			s1.1,2.5,2.5,2.5s2.5-1.1,2.5-2.5S8.6,1.6,7.2,1.6z"/>
	</g>
	<g id="Group-2" transform="translate(-15 3)">
		<path id="Soustraction_1-2" d="M15.3,17.9c0.4,0,0.8-0.3,0.7-0.8v-2c0-1.5,1-2.8,2.4-3.1v-1.5c-2.3,0.4-3.9,2.4-3.9,4.7v2
			C14.5,17.5,14.8,17.9,15.3,17.9z"/>
	</g>
</g>
</svg>
