<?xml version="1.0" encoding="utf-8"?>
<!-- Generator: Adobe Illustrator 25.2.1, SVG Export Plug-In . SVG Version: 6.00 Build 0)  -->
<svg version="1.1" id="Template" fill="currentColor" xmlns="http://www.w3.org/2000/svg" xmlns:xlink="http://www.w3.org/1999/xlink" x="0px" y="0px"
	 viewBox="0 0 24 24" style="enable-background:new 0 0 24 24;" xml:space="preserve">
<path id="Combined_Shape" d="M18,21h-2c-1.7,0-3-1.3-3-3v-2c0-1.7,1.3-3,3-3h2c1.7,0,3,1.3,3,3v2C21,19.7,19.7,21,18,21z M16,14.5
	c-0.8,0-1.5,0.7-1.5,1.5v2c0,0.8,0.7,1.5,1.5,1.5h2c0.8,0,1.5-0.7,1.5-1.5v-2c0-0.8-0.7-1.5-1.5-1.5H16z M8,21H6c-1.7,0-3-1.3-3-3
	v-2c0-1.7,1.3-3,3-3h2c1.7,0,3,1.3,3,3v2C11,19.7,9.7,21,8,21z M6,14.5c-0.8,0-1.5,0.7-1.5,1.5v2c0,0.8,0.7,1.5,1.5,1.5h2
	c0.8,0,1.5-0.7,1.5-1.5v-2c0-0.8-0.7-1.5-1.5-1.5H6z M18,11h-2c-1.7,0-3-1.3-3-3V6c0-1.7,1.3-3,3-3h2c1.7,0,3,1.3,3,3v2
	C21,9.7,19.7,11,18,11z M16,4.5c-0.8,0-1.5,0.7-1.5,1.5v2c0,0.8,0.7,1.5,1.5,1.5h2c0.8,0,1.5-0.7,1.5-1.5V6c0-0.8-0.7-1.5-1.5-1.5
	H16z M8,11H6c-1.7,0-3-1.3-3-3V6c0-1.7,1.3-3,3-3h2c1.7,0,3,1.3,3,3v2C11,9.7,9.7,11,8,11z M6,4.5C5.2,4.5,4.5,5.2,4.5,6v2
	c0,0.8,0.7,1.5,1.5,1.5h2c0.8,0,1.5-0.7,1.5-1.5V6c0-0.8-0.7-1.5-1.5-1.5H6z"/>
</svg>
