<?xml version="1.0" encoding="utf-8"?>
<!-- Generator: Adobe Illustrator 26.5.0, SVG Export Plug-In . SVG Version: 6.00 Build 0)  -->
<svg version="1.1" id="ThirdParty" fill="currentColor" xmlns="http://www.w3.org/2000/svg" xmlns:xlink="http://www.w3.org/1999/xlink" x="0px" y="0px"
	 viewBox="0 0 24 24" style="enable-background:new 0 0 24 24;" xml:space="preserve">
<g id="chart-pie" transform="translate(-736 -1980)">
	<path id="chart-pie_00000063632720781886528560000001492694766543456131_" d="M758.5,1990.6c-0.5-3.9-3.7-8.2-7.5-8.7
		c-0.5-0.1-1,0.1-1.4,0.4c-0.4,0.3-0.6,0.8-0.6,1.3v6c0,1.5,0,1.4,1.2,2.2c0,0,4.9,3,5.8,3c0.7,0.1,1.5-0.2,2-0.8
		C758.5,1993,758.7,1991.8,758.5,1990.6z M755.7,1993.2c0,0-4.1-2.2-4.7-2.6c-0.4-0.2-0.6-0.6-0.5-1l0.1-6c0-0.1,0-0.1,0.1-0.2
		c0,0,0.1-0.1,0.2-0.1h0l0,0c1,0.1,2,0.6,2.8,1.3c1.5,1.4,2.6,3.2,3.2,5.1c0.2,0.9,0.3,1.8,0.2,2.7c0,0.5-0.4,0.9-0.9,0.9
		C756,1993.3,755.8,1993.3,755.7,1993.2L755.7,1993.2z M752.8,1995.4l-3.2-1.9c-2.1-1.1-2.2-1.2-2.2-1.6v-6c0-0.5-0.2-1-0.6-1.3
		c-0.4-0.3-0.9-0.4-1.4-0.3c-4.8,1-7.9,5.6-6.9,10.4c0.7,3.4,3.3,6.1,6.8,6.9c0.6,0.1,1.2,0.2,1.9,0.2c1.7,0,3.4-0.5,4.9-1.5
		c1-0.5,1.7-1.4,2.2-2.4c0.4-1-0.1-2.1-1.1-2.5C753,1995.4,752.9,1995.4,752.8,1995.4L752.8,1995.4z M751.1,1999
		c-3.4,2.2-7.9,1.3-10.1-2.1c-2.2-3.4-1.3-7.9,2.1-10.1c0.8-0.5,1.7-0.9,2.6-1.1h0c0,0,0.1,0,0.1,0c0,0,0.1,0.1,0.1,0.2v6
		c0,0.9-0.1,1.4,1.1,1.9c0,0,5.7,2.8,5.9,3.3S752,1998.4,751.1,1999L751.1,1999z"/>
</g>
</svg>
