<?xml version="1.0" encoding="utf-8"?>
<!-- Generator: Adobe Illustrator 25.2.1, SVG Export Plug-In . SVG Version: 6.00 Build 0)  -->
<svg version="1.1" id="Trigger" fill="currentColor" xmlns="http://www.w3.org/2000/svg" xmlns:xlink="http://www.w3.org/1999/xlink" x="0px" y="0px"
	 viewBox="0 0 24 24" style="enable-background:new 0 0 24 24;" xml:space="preserve">
<path id="Vector_465_Stroke_" d="M12.8,3v2c0,0.4-0.3,0.8-0.8,0.8S11.2,5.4,11.2,5V3c0-0.4,0.3-0.8,0.8-0.8S12.8,2.6,12.8,3z"/>
<path id="Vector_466_Stroke_" d="M12.8,19v2c0,0.4-0.3,0.8-0.8,0.8s-0.8-0.3-0.8-0.8v-2c0-0.4,0.3-0.8,0.8-0.8S12.8,18.6,12.8,19z"
	/>
<path id="Vector_465_Stroke_2" d="M6.2,5.1l1.4,1.4c0.3,0.3,0.3,0.8,0,1.1c-0.3,0.3-0.8,0.3-1.1,0L5.1,6.2c-0.3-0.3-0.3-0.8,0-1.1
	C5.4,4.8,5.9,4.8,6.2,5.1z"/>
<path id="Vector_466_Stroke_2" d="M17.5,16.4l1.4,1.4c0.3,0.3,0.3,0.8,0,1.1c-0.3,0.3-0.8,0.3-1.1,0l-1.4-1.4
	c-0.3-0.3-0.3-0.8,0-1.1C16.7,16.1,17.2,16.1,17.5,16.4z"/>
<path id="Vector_465_Stroke_3" d="M3,11.2h2c0.4,0,0.8,0.3,0.8,0.8S5.4,12.8,5,12.8H3c-0.4,0-0.8-0.3-0.8-0.8S2.6,11.2,3,11.2z"/>
<path id="Vector_466_Stroke_3" d="M19,11.2h2c0.4,0,0.8,0.3,0.8,0.8s-0.3,0.8-0.8,0.8h-2c-0.4,0-0.8-0.3-0.8-0.8S18.6,11.2,19,11.2z
	"/>
<path id="Vector_465_Stroke_4" d="M5.1,17.8l1.4-1.4c0.3-0.3,0.8-0.3,1.1,0c0.3,0.3,0.3,0.8,0,1.1l-1.4,1.4c-0.3,0.3-0.8,0.3-1.1,0
	C4.8,18.6,4.8,18.1,5.1,17.8z"/>
<path id="Vector_466_Stroke_4" d="M16.4,6.5l1.4-1.4c0.3-0.3,0.8-0.3,1.1,0c0.3,0.3,0.3,0.8,0,1.1l-1.4,1.4c-0.3,0.3-0.8,0.3-1.1,0
	C16.1,7.3,16.1,6.8,16.4,6.5z"/>
</svg>
