<?xml version="1.0" encoding="utf-8"?>
<!-- Generator: Adobe Illustrator 26.4.0, SVG Export Plug-In . SVG Version: 6.00 Build 0)  -->
<svg xmlns:xlink="http://www.w3.org/1999/xlink" version="1.1" id="TrustChain" fill="currentColor" xmlns="http://www.w3.org/2000/svg" x="0px"
     y="0px"
     viewBox="0 0 24 24" style="enable-background:new 0 0 24 24;" xml:space="preserve">
<style type="text/css">
	.st0{fill:#FFFFFF;}
</style>
  <g id="Regular_1.5px_more_vertical">
	<path id="Combined_Shape" d="M18,21c-1.7,0-3-1.3-3-3s1.3-3,3-3s3,1.3,3,3S19.7,21,18,21z M18,16.5c-0.8,0-1.5,0.7-1.5,1.5
		s0.7,1.5,1.5,1.5s1.5-0.7,1.5-1.5S18.8,16.5,18,16.5z"/>
    <path id="Combined_Shape-2" d="M12,15c-1.7,0-3-1.3-3-3s1.3-3,3-3s3,1.3,3,3S13.7,15,12,15z M12,10.5c-0.8,0-1.5,0.7-1.5,1.5
		s0.7,1.5,1.5,1.5s1.5-0.7,1.5-1.5S12.8,10.5,12,10.5z"/>
    <path id="Combined_Shape-3" d="M6,9C4.3,9,3,7.7,3,6s1.3-3,3-3s3,1.3,3,3S7.7,9,6,9z M6,4.5C5.2,4.5,4.5,5.2,4.5,6S5.2,7.5,6,7.5
		S7.5,6.8,7.5,6S6.8,4.5,6,4.5z"/>
</g>
  <g id="Union_1" transform="translate(5.2 7.45)">
	<path class="st0" d="M3.7,4.8H1c-0.3,0-0.5-0.2-0.5-0.5V4V1.5H1v2.3v0.5h0.5h2.2V4.8z"/>
    <path d="M4.2,5.3H1c-0.6,0-1-0.4-1-1V1h1.5v2.8h2.7V5.3z"/>
</g>
  <g id="Union_2" transform="translate(11.2 14.45)">
	<path class="st0" d="M3.7,3.8H1c-0.3,0-0.5-0.2-0.5-0.5V3V0.5H1v2.3v0.5h0.5h2.2V3.8z"/>
    <path d="M4.2,4.3H1c-0.6,0-1-0.4-1-1V0h1.5v2.8h2.7V4.3z"/>
</g>
</svg>
