<?xml version="1.0" encoding="utf-8"?>
<!-- Generator: Adobe Illustrator 25.2.1, SVG Export Plug-In . SVG Version: 6.00 Build 0)  -->
<svg version="1.1" id="Update" fill="currentColor" xmlns="http://www.w3.org/2000/svg" xmlns:xlink="http://www.w3.org/1999/xlink" x="0px" y="0px"
	 viewBox="0 0 45.4 45.4" style="enable-background:new 0 0 45.4 45.4;" xml:space="preserve">
<style type="text/css">
	.st0{fill:none;}
</style>
<path id="Soustraction_108" class="st0" d="M26.3,41.1c-0.2,0-0.5-0.1-0.7-0.2l-2.9-1.9l-2.9,1.9c-0.2,0.1-0.4,0.2-0.7,0.2
	c-0.7,0-1.2-0.5-1.2-1.2c0,0,0,0,0,0v-4.5H3.5c-0.7,0-1.2-0.5-1.2-1.2v0V5.5c0-0.7,0.5-1.2,1.2-1.2l0,0h38.4c0.7,0,1.2,0.5,1.2,1.2
	v0v28.6c0,0.7-0.5,1.2-1.2,1.2l0,0H27.5v4.5C27.5,40.5,27,41.1,26.3,41.1C26.3,41.1,26.3,41.1,26.3,41.1z M24.9,12.7L24.9,12.7
	L14.8,22.8c-0.1,0.1-0.1,0.1-0.1,0.2l-1.1,4.5c0,0.1,0,0.3,0.1,0.4c0.1,0.1,0.2,0.1,0.3,0.1c0,0,0.1,0,0.1,0l4.5-1.1
	c0.1,0,0.1-0.1,0.2-0.1l10.1-10.1L24.9,12.7L24.9,12.7z M28.8,9.6c-0.5,0-1,0.2-1.4,0.6L26,11.6l3.9,3.9l1.4-1.4
	c0.4-0.4,0.6-0.9,0.6-1.4c0-0.5-0.2-1-0.6-1.4l-1.1-1.1C29.8,9.8,29.3,9.6,28.8,9.6L28.8,9.6z"/>
</svg>
