<?xml version="1.0" encoding="utf-8"?>
<!-- Generator: Adobe Illustrator 25.2.1, SVG Export Plug-In . SVG Version: 6.00 Build 0)  -->
<svg version="1.1" id="Upload" fill="currentColor" xmlns="http://www.w3.org/2000/svg" xmlns:xlink="http://www.w3.org/1999/xlink" x="0px" y="0px"
	 viewBox="0 0 24 24" style="enable-background:new 0 0 24 24;" xml:space="preserve">
<path id="Path_13_Copy_7_Stroke_" d="M4.8,14.7v2C4.8,17.4,5.3,18,6,18h12c0.7,0,1.2-0.6,1.2-1.2v-2c0-0.4,0.3-0.8,0.8-0.8
	s0.8,0.3,0.8,0.8v2c0,1.5-1.2,2.8-2.8,2.8H6c-1.5,0-2.8-1.2-2.8-2.8v-2C3.2,14.3,3.6,14,4,14S4.8,14.3,4.8,14.7z"/>
<path id="Union" d="M17,10.3c-0.3,0.3-0.8,0.3-1.1,0c0,0,0,0,0,0l-3.2-3.2v7.7c0,0.4-0.3,0.8-0.8,0.8c-0.4,0-0.8-0.3-0.8-0.8V7.1
	L8,10.3c-0.3,0.3-0.8,0.3-1.1,0c-0.3-0.3-0.3-0.7,0-1l4.5-4.5c0.3-0.3,0.8-0.3,1.1,0L17,9.2C17.3,9.5,17.3,10,17,10.3z"/>
</svg>
