<?xml version="1.0" encoding="utf-8"?>
<!-- Generator: Adobe Illustrator 26.4.0, SVG Export Plug-In . SVG Version: 6.00 Build 0)  -->
<svg version="1.1" id="Usage" fill="currentColor" xmlns="http://www.w3.org/2000/svg" xmlns:xlink="http://www.w3.org/1999/xlink" x="0px" y="0px"
	 viewBox="0 0 24 24" style="enable-background:new 0 0 24 24;" xml:space="preserve">
<g id="Group" transform="translate(2.393 2.465)">
	<path id="Combined_Shape" d="M8.7,19.2c-0.8,0-1.6-0.3-2.1-0.9l-5.7-5.7c-1.2-1.2-1.2-3.1,0-4.2c0,0,0,0,0,0l7.5-7.5
		C9,0.3,9.7,0,10.5,0c0.1,0,0.2,0,0.2,0L16,0.4c1.5,0.1,2.7,1.3,2.8,2.8l0.4,5.3c0.1,0.9-0.2,1.7-0.9,2.4l-7.5,7.5
		C10.2,18.8,9.5,19.2,8.7,19.2z M10.5,1.5c-0.4,0-0.8,0.2-1.1,0.4L1.9,9.4c-0.6,0.6-0.6,1.5,0,2.1l5.7,5.7c0.6,0.6,1.5,0.6,2.1,0
		l7.5-7.5c0.3-0.3,0.5-0.7,0.4-1.2l-0.4-5.3c-0.1-0.7-0.6-1.3-1.4-1.4l-5.3-0.4C10.6,1.5,10.5,1.5,10.5,1.5z"/>
	<path id="Ellipse_140" d="M12.2,7c0.6,0.6,1.5,0.6,2.1,0c0.6-0.6,0.6-1.5,0-2.1s-1.5-0.6-2.1,0c0,0,0,0,0,0
		C11.6,5.4,11.6,6.4,12.2,7z"/>
	<path id="Vector_566_Stroke_" d="M8.1,13.9c0.3,0.3,0.8,0.3,1.1,0s0.3-0.8,0-1.1l0,0L6.4,10c-0.3-0.3-0.8-0.3-1.1,0
		c-0.3,0.3-0.3,0.7,0,1L8.1,13.9z"/>
</g>
</svg>
