<?xml version="1.0" encoding="utf-8"?>
<!-- Generator: Adobe Illustrator 24.3.0, SVG Export Plug-In . SVG Version: 6.00 Build 0)  -->
<svg version="1.1" id="Vault" fill="currentColor" xmlns="http://www.w3.org/2000/svg" xmlns:xlink="http://www.w3.org/1999/xlink" x="0px" y="0px"
	 viewBox="0 0 32 34.6" style="enable-background:new 0 0 32 34.6;" xml:space="preserve">
<style type="text/css">
	.st0{fill:none;}
</style>
<path id="Soustraction_32" class="st0" d="M27.6,32.8h-4.9c-0.5,0-0.9-0.4-0.9-0.9v-1h6.7v1C28.5,32.4,28.1,32.8,27.6,32.8z
	 M9.3,32.8H4.4c-0.5,0-0.9-0.4-0.9-0.9v-1h6.7v1C10.2,32.4,9.8,32.8,9.3,32.8L9.3,32.8z M30.6,29.1H1.4c-0.5,0-0.9-0.4-0.9-0.9V2.7
	c0-0.5,0.4-0.9,0.9-0.9h29.2c0.5,0,0.9,0.4,0.9,0.9v25.5C31.5,28.7,31.1,29.1,30.6,29.1z M5,5.4c-0.5,0-0.9,0.4-0.9,0.9v18.2
	c0,0.5,0.4,0.9,0.9,0.9h22c0.5,0,0.9-0.4,0.9-0.9V6.3c0-0.5-0.4-0.9-0.9-0.9L5,5.4z M26.1,23.6H5.9V7.2h20.1L26.1,23.6L26.1,23.6z
	 M13,10.5c-1.4,1.1-1.6,3.1-0.5,4.4c0.7,0.9,1.9,1.4,3.1,1.1l3.7,4.7c0,0.1,0.1,0.1,0.2,0.1l1.6,0.2c0.2,0,0.3-0.1,0.3-0.2
	c0,0,0,0,0,0l0.2-1.6c0-0.1,0-0.2-0.1-0.2l-0.4-0.4c-0.1-0.1-0.1-0.1-0.2-0.1l-0.4,0l0-0.6c0-0.1-0.1-0.3-0.2-0.3l-0.6-0.1l0.1-0.4
	c0-0.1,0-0.2,0-0.2c0-0.1-0.1-0.1-0.2-0.1l-0.5-0.1l0.1-0.5c0-0.1,0-0.2-0.1-0.2l-1.3-1.5l0,0c0.5-1.1,0.4-2.3-0.4-3.2
	C16.4,9.7,14.4,9.4,13,10.5L13,10.5z M14.8,12.7c-0.4,0.3-0.9,0.2-1.2-0.1c-0.3-0.4-0.2-0.9,0.1-1.2c0.4-0.3,0.9-0.2,1.2,0.1
	C15.2,11.9,15.2,12.4,14.8,12.7C14.8,12.7,14.8,12.7,14.8,12.7L14.8,12.7z"/>
</svg>
