<?xml version="1.0" encoding="utf-8"?>
<!-- Generator: Adobe Illustrator 26.5.0, SVG Export Plug-In . SVG Version: 6.00 Build 0)  -->
<svg version="1.1" id="ViewApprove" fill="currentColor" xmlns="http://www.w3.org/2000/svg" xmlns:xlink="http://www.w3.org/1999/xlink" x="0px"
	 y="0px" viewBox="0 0 24 24" style="enable-background:new 0 0 24 24;" xml:space="preserve">
<style type="text/css">
	.st0{fill:#25314C;}
</style>
<g id="message-check-alt" transform="translate(-2080 -1436)">
	<path id="message-check-alt-2" class="st0" d="M2098,1438.2h-12c-1.9-0.2-3.5,1.1-3.8,3c0,0.3,0,0.5,0,0.8v15
		c0,0.3,0.2,0.6,0.5,0.7c0.1,0,0.2,0.1,0.3,0.1c0.2,0,0.4-0.1,0.5-0.2l2.8-2.8h11.7c1.9,0.2,3.5-1.1,3.8-3c0-0.3,0-0.5,0-0.8v-9
		c0.2-1.9-1.1-3.5-3-3.8C2098.5,1438.2,2098.3,1438.2,2098,1438.2z M2100.2,1451c0,1.6-0.7,2.2-2.2,2.2h-12c-0.2,0-0.4,0.1-0.5,0.2
		l-1.7,1.7V1442c0-1.6,0.7-2.2,2.2-2.2h12c1.6,0,2.2,0.7,2.2,2.2V1451z M2095.6,1444c0.3,0.3,0.3,0.8,0,1.1c0,0,0,0,0,0l-4,4
		c-0.3,0.3-0.8,0.3-1.1,0c0,0,0,0,0,0l-2-2c-0.3-0.3-0.3-0.8,0-1.1c0.3-0.3,0.8-0.3,1.1,0c0,0,0,0,0,0l1.5,1.5l3.5-3.5
		C2094.8,1443.7,2095.3,1443.7,2095.6,1444C2095.6,1444,2095.6,1444,2095.6,1444L2095.6,1444z"/>
</g>
</svg>
