<?xml version="1.0" encoding="utf-8"?>
<!-- Generator: Adobe Illustrator 26.5.0, SVG Export Plug-In . SVG Version: 6.00 Build 0)  -->
<svg version="1.1" id="ViewCancel" fill="currentColor" xmlns="http://www.w3.org/2000/svg" xmlns:xlink="http://www.w3.org/1999/xlink" x="0px" y="0px"
	 viewBox="0 0 24 24" style="enable-background:new 0 0 24 24;" xml:space="preserve">
<style type="text/css">
	.st0{fill:#25314C;}
</style>
<g id="message-minus-alt" transform="translate(-2248 -1436)">
	<path id="message-minus-alt-2" class="st0" d="M2251,1457.8c-0.1,0-0.2,0-0.3-0.1c-0.3-0.1-0.5-0.4-0.5-0.7v-15
		c-0.2-1.9,1.1-3.5,3-3.8c0.3,0,0.5,0,0.8,0h12c1.9-0.2,3.5,1.1,3.8,3c0,0.3,0,0.5,0,0.8v9c0.2,1.9-1.1,3.5-3,3.8
		c-0.3,0-0.5,0-0.8,0h-11.7l-2.8,2.8C2251.4,1457.7,2251.2,1457.8,2251,1457.8z M2254,1439.8c-1.6,0-2.2,0.7-2.2,2.2v13.2l1.7-1.7
		c0.1-0.1,0.3-0.2,0.5-0.2h12c1.6,0,2.2-0.7,2.2-2.2v-9c0-1.6-0.7-2.2-2.2-2.2H2254z M2263.8,1446.5c0-0.4-0.3-0.8-0.8-0.8h-6
		c-0.4,0-0.8,0.3-0.8,0.8s0.3,0.8,0.8,0.8h6C2263.4,1447.2,2263.8,1446.9,2263.8,1446.5z"/>
</g>
</svg>
