<?xml version="1.0" encoding="utf-8"?>
<!-- Generator: Adobe Illustrator 25.2.1, SVG Export Plug-In . SVG Version: 6.00 Build 0)  -->
<svg version="1.1" id="ViewDashboard" fill="currentColor" xmlns="http://www.w3.org/2000/svg" xmlns:xlink="http://www.w3.org/1999/xlink" x="0px" y="0px"
	 viewBox="0 0 24 24" style="enable-background:new 0 0 24 24;" xml:space="preserve">
<path id="Shape" d="M21,19H3c-0.5,0-0.9-0.4-1-0.9L2,18v-5c0-1.6,1.2-2.9,2.8-3H5h3V8c0-1.6,1.2-2.9,2.8-3L11,5h2
	c1.6,0,2.9,1.2,3,2.8V8v4h3c1.6,0,2.9,1.2,3,2.8V15v3c0,0.5-0.4,0.9-0.9,1L21,19z M16,13.5v4h4.5V15c0-0.8-0.7-1.5-1.5-1.5H16z
	 M11,6.5c-0.8,0-1.5,0.7-1.5,1.5v9.5h5V8c0-0.8-0.7-1.5-1.5-1.5H11z M5,11.5c-0.8,0-1.4,0.6-1.5,1.4l0,0.1v4.5H8v-6H5z"/>
</svg>
