<?xml version="1.0" encoding="utf-8"?>
<!-- Generator: Adobe Illustrator 25.2.1, SVG Export Plug-In . SVG Version: 6.00 Build 0)  -->
<svg version="1.1" id="View" fill="currentColor" xmlns="http://www.w3.org/2000/svg" xmlns:xlink="http://www.w3.org/1999/xlink" x="0px" y="0px"
	 viewBox="0 0 45.4 45.4" style="enable-background:new 0 0 45.4 45.4;" xml:space="preserve">
<style type="text/css">
	.st0{fill:none;}
</style>
<path id="Soustraction_70" class="st0" d="M4.1,40.5c-0.3,0-0.6-0.1-0.7-0.3c-0.4-0.5-0.6-1.2-0.6-1.8v-17c0-0.2,0-0.3,0.1-0.5v-10
	c0-3.3,2.7-6.1,6.1-6.1H38c3.3,0,6.1,2.7,6.1,6.1v17.3c0,3.3-2.7,6.1-6.1,6.1H13.2l-8.5,6C4.5,40.5,4.3,40.5,4.1,40.5z M25,23.7
	L25,23.7l5.6,5.5c0.3,0.3,0.7,0.5,1.1,0.5c0.4,0,0.8-0.2,1.1-0.4c0.3-0.3,0.5-0.7,0.5-1.1c0-0.4-0.1-0.8-0.4-1.1L32.8,27l-5.5-5.4
	c2.4-3.4,1.6-8.1-1.8-10.5c-3.4-2.4-8.1-1.6-10.5,1.8c-2.4,3.4-1.6,8.1,1.8,10.5c1.3,0.9,2.8,1.4,4.4,1.4
	C22.5,24.7,23.8,24.4,25,23.7L25,23.7z M21.1,22.1L21.1,22.1c-2.7,0-4.9-2.2-4.9-4.9c0-2.7,2.2-4.9,4.9-4.9c2.7,0,4.9,2.2,4.9,4.9
	C26,19.9,23.8,22.1,21.1,22.1z"/>
</svg>
