<?xml version="1.0" encoding="utf-8"?>
<!-- Generator: Adobe Illustrator 25.2.1, SVG Export Plug-In . SVG Version: 6.00 Build 0)  -->
<svg version="1.1" id="ViewTable" fill="currentColor" xmlns="http://www.w3.org/2000/svg" xmlns:xlink="http://www.w3.org/1999/xlink" x="0px" y="0px"
	 viewBox="0 0 24 24" style="enable-background:new 0 0 24 24;" xml:space="preserve">
<path id="Vector_605_Stroke_" d="M4,5.2h16c0.4,0,0.8,0.3,0.8,0.8S20.4,6.8,20,6.8H4C3.6,6.8,3.2,6.4,3.2,6S3.6,5.2,4,5.2z"/>
<path id="Vector_606_Stroke_" d="M4,9.2h16c0.4,0,0.8,0.3,0.8,0.8s-0.3,0.8-0.8,0.8H4c-0.4,0-0.8-0.3-0.8-0.8S3.6,9.2,4,9.2z"/>
<path id="Vector_607_Stroke_" d="M4,13.2h16c0.4,0,0.8,0.3,0.8,0.8s-0.3,0.8-0.8,0.8H4c-0.4,0-0.8-0.3-0.8-0.8S3.6,13.2,4,13.2z"/>
<path id="Vector_608_Stroke_" d="M4,17.2h16c0.4,0,0.8,0.3,0.8,0.8s-0.3,0.8-0.8,0.8H4c-0.4,0-0.8-0.3-0.8-0.8S3.6,17.2,4,17.2z"/>
</svg>
