<?xml version="1.0" encoding="utf-8"?>
<!-- Generator: Adobe Illustrator 26.5.0, SVG Export Plug-In . SVG Version: 6.00 Build 0)  -->
<svg version="1.1" id="ViewDeny" fill="currentColor" xmlns="http://www.w3.org/2000/svg" xmlns:xlink="http://www.w3.org/1999/xlink" x="0px" y="0px"
	 viewBox="0 0 24 24" style="enable-background:new 0 0 24 24;" xml:space="preserve">
<style type="text/css">
	.st0{fill:#25314C;}
</style>
<g id="message-times-alt" transform="translate(-2136 -1436)">
	<path id="message-times-alt-2" class="st0" d="M2154,1438.2h-12c-1.9-0.2-3.5,1.1-3.8,3c0,0.3,0,0.5,0,0.8v15
		c0,0.3,0.2,0.6,0.5,0.7c0.1,0,0.2,0.1,0.3,0.1c0.2,0,0.4-0.1,0.5-0.2l2.8-2.8h11.7c1.9,0.2,3.5-1.1,3.8-3c0-0.3,0-0.5,0-0.8v-9
		c0.2-1.9-1.1-3.5-3-3.8C2154.5,1438.2,2154.3,1438.2,2154,1438.2z M2156.2,1451c0,1.6-0.7,2.2-2.2,2.2h-12c-0.2,0-0.4,0.1-0.5,0.2
		l-1.7,1.7V1442c0-1.6,0.7-2.2,2.2-2.2h12c1.6,0,2.2,0.7,2.2,2.2V1451z M2151,1444.5l-2,2l2,2c0.3,0.3,0.3,0.8,0,1.1
		c-0.3,0.3-0.8,0.3-1.1,0c0,0,0,0,0,0l-2-2l-2,2c-0.3,0.3-0.8,0.3-1.1,0c-0.3-0.3-0.3-0.7,0-1l2-2l-2-2c-0.3-0.3-0.3-0.8,0-1.1
		c0.3-0.3,0.7-0.3,1,0l2,2l2-2c0.3-0.3,0.8-0.3,1.1,0C2151.3,1443.8,2151.3,1444.2,2151,1444.5z"/>
</g>
</svg>
