<?xml version="1.0" encoding="utf-8"?>
<!-- Generator: Adobe Illustrator 25.2.1, SVG Export Plug-In . SVG Version: 6.00 Build 0)  -->
<svg version="1.1" id="ViewCertificate" fill="currentColor" xmlns="http://www.w3.org/2000/svg" xmlns:xlink="http://www.w3.org/1999/xlink" x="0px" y="0px"
	 viewBox="0 0 45.4 45.4" style="enable-background:new 0 0 45.4 45.4;" xml:space="preserve">
<style type="text/css">
	.st0{fill:none;}
</style>
<path id="Soustraction_93" class="st0" d="M26.3,41.1c-0.2,0-0.5-0.1-0.7-0.2l-2.9-2l-3,2c-0.2,0.1-0.4,0.2-0.7,0.2
	c-0.7,0-1.2-0.5-1.2-1.2c0,0,0,0,0,0v-4.6H3.5c-0.7,0-1.2-0.5-1.2-1.2v0V5.5c0-0.7,0.5-1.2,1.2-1.2l0,0h38.4c0.7,0,1.2,0.5,1.2,1.2
	v0v28.7c0,0.7-0.5,1.2-1.2,1.2l0,0H27.5v4.6C27.5,40.6,27,41.1,26.3,41.1C26.3,41.1,26.3,41.1,26.3,41.1z M22.7,11.9
	c-4.4,0-8.5,2.3-11.7,6.5c-0.2,0.3-0.2,0.8,0,1.1c3.2,4.2,7.3,6.5,11.7,6.5s8.5-2.3,11.7-6.5c0.2-0.3,0.2-0.8,0-1.1
	C31.2,14.2,27.1,11.9,22.7,11.9z M22.7,23.9c-1.4,0-2.7-0.6-3.6-1.6c-1-1-1.4-2.4-1.3-3.7c0.2-2.5,2.2-4.5,4.7-4.7
	c0.1,0,0.2,0,0.3,0c1.4,0,2.7,0.6,3.6,1.6c1,1,1.4,2.4,1.3,3.7c-0.2,2.5-2.2,4.5-4.7,4.7C22.9,23.9,22.8,23.9,22.7,23.9L22.7,23.9z
	 M22.7,16.3c-0.1,0-0.1,0-0.2,0c-1.4,0.1-2.4,1.2-2.5,2.5c-0.1,0.7,0.2,1.5,0.7,2c0.5,0.5,1.2,0.9,2,0.9c0.1,0,0.1,0,0.2,0
	c1.4-0.1,2.4-1.2,2.5-2.5c0.1-0.7-0.2-1.5-0.7-2C24.2,16.6,23.5,16.3,22.7,16.3L22.7,16.3z"/>
</svg>
