<?xml version="1.0" encoding="utf-8"?>
<!-- Generator: Adobe Illustrator 25.2.1, SVG Export Plug-In . SVG Version: 6.00 Build 0)  -->
<svg version="1.1" id="VisibilityO" fill="currentColor" xmlns="http://www.w3.org/2000/svg" xmlns:xlink="http://www.w3.org/1999/xlink" x="0px" y="0px"
	 viewBox="0 0 24 24" style="enable-background:new 0 0 24 24;" xml:space="preserve">
<g id="Group" transform="translate(2.25 2.25)">
	<path id="Subtract" d="M6.6,9.2c0,1.7,1.3,3,3,3c1.1,0,2-0.6,2.6-1.5L11,9.6c-0.2,0.8-1,1.3-1.8,1.1c-0.8-0.2-1.3-1-1.1-1.8
		c0.1-0.5,0.5-0.9,1.1-1.1L8,6.6C7.1,7.1,6.6,8.1,6.6,9.2z"/>
	<path id="Subtract-2" d="M0.2,8.1c-0.4,0.7-0.4,1.6,0,2.3c1.2,2,4.2,5.9,9.4,5.9c2.2,0,4.3-0.7,6-2l-1.1-1.1
		c-1.4,1.1-3.2,1.6-4.9,1.6c-4.4,0-7-3.3-8.1-5.1C1.3,9.3,1.3,9,1.4,8.8C2.5,7,4.1,5.5,5.9,4.5L4.8,3.4C2.9,4.5,1.3,6.1,0.2,8.1z"/>
	<path id="Subtract-3" d="M17.7,9.5c0.1-0.2,0.1-0.5,0-0.7C16.6,7,13.9,3.7,9.6,3.7c-0.7,0-1.4,0.1-2.1,0.3L6.3,2.7
		c1-0.4,2.2-0.6,3.3-0.6c5.2,0,8.2,3.9,9.4,5.9c0.4,0.7,0.4,1.6,0,2.3c-0.6,1-1.4,2-2.2,2.8l-1.1-1.1C16.4,11.3,17.1,10.5,17.7,9.5z
		"/>
	<path id="Vector_606_Stroke_" d="M1.1-0.3l18,18c0.3,0.3,0.3,0.8,0,1.1c-0.3,0.3-0.7,0.3-1,0L0,0.7c-0.3-0.3-0.3-0.8,0-1.1
		C0.4-0.6,0.8-0.6,1.1-0.3z"/>
</g>
</svg>
