<?xml version="1.0" encoding="utf-8"?>
<!-- Generator: Adobe Illustrator 25.2.1, SVG Export Plug-In . SVG Version: 6.00 Build 0)  -->
<svg version="1.1" id="Visibility" fill="currentColor" xmlns="http://www.w3.org/2000/svg" xmlns:xlink="http://www.w3.org/1999/xlink" x="0px" y="0px"
	 viewBox="0 0 24 24" style="enable-background:new 0 0 24 24;" xml:space="preserve">
<g id="Group" transform="translate(-0.002 0)">
	<path id="Combined_Shape" d="M11.8,19c-2.3,0-4.5-0.8-6.2-2.2c-1.3-1-2.4-2.3-3.2-3.7c-0.4-0.7-0.4-1.6,0-2.3
		c0.8-1.4,1.9-2.7,3.2-3.7c3.6-2.9,8.8-2.9,12.4,0c1.3,1,2.4,2.3,3.2,3.7c0.4,0.7,0.4,1.6,0,2.3c-0.8,1.4-1.9,2.7-3.2,3.7
		C16.2,18.2,14.1,19,11.8,19z M11.8,6.5C9.9,6.5,8,7.2,6.5,8.4c-1.1,0.9-2.1,2-2.8,3.3c-0.1,0.2-0.1,0.5,0,0.7
		c0.7,1.3,1.7,2.4,2.8,3.3c3.1,2.5,7.5,2.5,10.6,0c1.1-0.9,2.1-2,2.8-3.3c0.1-0.2,0.1-0.5,0-0.7c-0.7-1.2-1.7-2.4-2.8-3.3
		C15.6,7.2,13.7,6.5,11.8,6.5z"/>
	<path id="Combined_Shape-2" d="M11.8,15c-1.7,0-3-1.3-3-3s1.3-3,3-3s3,1.3,3,3S13.5,15,11.8,15z M11.8,10.5c-0.8,0-1.5,0.7-1.5,1.5
		c0,0.8,0.7,1.5,1.5,1.5s1.5-0.7,1.5-1.5C13.3,11.2,12.6,10.5,11.8,10.5z"/>
</g>
</svg>
