<?xml version="1.0" encoding="utf-8"?>
<!-- Generator: Adobe Illustrator 25.2.1, SVG Export Plug-In . SVG Version: 6.00 Build 0)  -->
<svg version="1.1" id="WebRA" fill="currentColor" xmlns="http://www.w3.org/2000/svg" xmlns:xlink="http://www.w3.org/1999/xlink" x="0px" y="0px"
	 viewBox="0 0 24 24" style="enable-background:new 0 0 24 24;" xml:space="preserve">
<g id="Group" transform="translate(0 0)">
	<path id="Combined_Shape" d="M12,22C6.5,22,2,17.5,2,12S6.5,2,12,2s10,4.5,10,10C22,17.5,17.5,22,12,22z M12,3.5
		c-4.7,0-8.5,3.8-8.5,8.5s3.8,8.5,8.5,8.5s8.5-3.8,8.5-8.5C20.5,7.3,16.7,3.5,12,3.5z"/>
</g>
<path id="Tracé_119" d="M15.7,10.4c0,0.8-0.2,1.5-0.6,2.1c-0.4,0.6-1,1.1-1.6,1.3l2.1,3.4h-2l-1.9-3.2H10v3.2H8.3V6.8h3.9
	c1,0,1.9,0.3,2.6,1C15.4,8.5,15.8,9.4,15.7,10.4z M10,8.3v4.3h2c0.5,0,1.1-0.2,1.4-0.6c0.4-0.4,0.6-1,0.6-1.5c0-0.6-0.2-1.1-0.6-1.5
	c-0.4-0.4-0.9-0.6-1.4-0.6H10z"/>
</svg>
